  0
SECTION
  2
HEADER
  9
$ACADVER
  1
AC1015
  9
$ACADMAINTVER
 70
     6
  9
$DWGCODEPAGE
  3
ANSI_1252
  9
$INSBASE
 10
0.0
 20
0.0
 30
0.0
  9
$EXTMIN
 10
0.0
 20
0.0
 30
0.0
  9
$EXTMAX
 10
720.0
 20
546.0
 30
2.0
  9
$LIMMIN
 10
0.0
 20
0.0
  9
$LIMMAX
 10
420.0
 20
297.0
  9
$ORTHOMODE
 70
     0
  9
$REGENMODE
 70
     1
  9
$FILLMODE
 70
     1
  9
$QTEXTMODE
 70
     0
  9
$MIRRTEXT
 70
     1
  9
$LTSCALE
 40
1.0
  9
$ATTMODE
 70
     1
  9
$TEXTSIZE
 40
2.5
  9
$TRACEWID
 40
1.0
  9
$TEXTSTYLE
  7
Standard
  9
$CLAYER
  8
0
  9
$CELTYPE
  6
ByLayer
  9
$CECOLOR
 62
   256
  9
$CELTSCALE
 40
1.0
  9
$DISPSILH
 70
     0
  9
$DIMSCALE
 40
1.0
  9
$DIMASZ
 40
2.5
  9
$DIMEXO
 40
0.625
  9
$DIMDLI
 40
3.75
  9
$DIMRND
 40
0.0
  9
$DIMDLE
 40
0.0
  9
$DIMEXE
 40
1.25
  9
$DIMTP
 40
0.0
  9
$DIMTM
 40
0.0
  9
$DIMTXT
 40
2.5
  9
$DIMCEN
 40
2.5
  9
$DIMTSZ
 40
0.0
  9
$DIMTOL
 70
     0
  9
$DIMLIM
 70
     0
  9
$DIMTIH
 70
     0
  9
$DIMTOH
 70
     0
  9
$DIMSE1
 70
     0
  9
$DIMSE2
 70
     0
  9
$DIMTAD
 70
     1
  9
$DIMZIN
 70
     8
  9
$DIMBLK
  1

  9
$DIMASO
 70
     1
  9
$DIMSHO
 70
     1
  9
$DIMPOST
  1

  9
$DIMAPOST
  1

  9
$DIMALT
 70
     0
  9
$DIMALTD
 70
     3
  9
$DIMALTF
 40
0.03937
  9
$DIMLFAC
 40
1.0
  9
$DIMTOFL
 70
     1
  9
$DIMTVP
 40
0.0
  9
$DIMTIX
 70
     0
  9
$DIMSOXD
 70
     0
  9
$DIMSAH
 70
     0
  9
$DIMBLK1
  1

  9
$DIMBLK2
  1

  9
$DIMSTYLE
  2

  9
$DIMCLRD
 70
     0
  9
$DIMCLRE
 70
     0
  9
$DIMCLRT
 70
     0
  9
$DIMTFAC
 40
1.0
  9
$DIMGAP
 40
0.625
  9
$DIMJUST
 70
     0
  9
$DIMSD1
 70
     0
  9
$DIMSD2
 70
     0
  9
$DIMTOLJ
 70
     0
  9
$DIMTZIN
 70
     8
  9
$DIMALTZ
 70
     0
  9
$DIMALTTZ
 70
     0
  9
$DIMUPT
 70
     0
  9
$DIMDEC
 70
     2
  9
$DIMTDEC
 70
     2
  9
$DIMALTU
 70
     2
  9
$DIMALTTD
 70
     3
  9
$DIMTXSTY
  7
Standard
  9
$DIMAUNIT
 70
     0
  9
$DIMADEC
 70
     0
  9
$DIMALTRND
 40
0.0
  9
$DIMAZIN
 70
     0
  9
$DIMDSEP
 70
    44
  9
$DIMATFIT
 70
     0
  9
$DIMFRAC
 70
     0
  9
$DIMLDRBLK
  1

  9
$DIMLUNIT
 70
     2
  9
$DIMLWD
 70
    -2
  9
$DIMLWE
 70
    -2
  9
$DIMTMOVE
 70
     0
  9
$LUNITS
 70
     2
  9
$LUPREC
 70
     4
  9
$SKETCHINC
 40
1.0
  9
$FILLETRAD
 40
2.5
  9
$AUNITS
 70
     0
  9
$AUPREC
 70
     0
  9
$MENU
  1
.
  9
$ELEVATION
 40
0.0
  9
$PELEVATION
 40
0.0
  9
$THICKNESS
 40
0.0
  9
$LIMCHECK
 70
     0
  9
$CHAMFERA
 40
2.5
  9
$CHAMFERB
 40
2.5
  9
$CHAMFERC
 40
0.0
  9
$CHAMFERD
 40
0.0
  9
$SKPOLY
 70
     0
  9
$TDCREATE
 40
0.000000000
  9
$TDUCREATE
 40
0.000000000
  9
$TDUPDATE
 40
0.000000000
  9
$TDUUPDATE
 40
0.000000000
  9
$TDINDWG
 40
0.0000000000
  9
$TDUSRTIMER
 40
0.0000000000
  9
$USRTIMER
 70
     1
  9
$ANGBASE
 50
0.0
  9
$ANGDIR
 70
     0
  9
$PDMODE
 70
     0
  9
$PDSIZE
 40
0.0
  9
$PLINEWID
 40
0.0
  9
$SPLFRAME
 70
     0
  9
$SPLINETYPE
 70
     6
  9
$SPLINESEGS
 70
     8
  9
$HANDSEED
  5
166
  9
$SURFTAB1
 70
     6
  9
$SURFTAB2
 70
     6
  9
$SURFTYPE
 70
     6
  9
$SURFU
 70
     6
  9
$SURFV
 70
     6
  9
$UCSBASE
  2

  9
$UCSNAME
  2

  9
$UCSORG
 10
0.0
 20
0.0
 30
0.0
  9
$UCSXDIR
 10
1.0
 20
0.0
 30
0.0
  9
$UCSYDIR
 10
0.0
 20
1.0
 30
0.0
  9
$UCSORTHOREF
  2

  9
$UCSORTHOVIEW
 70
     1
  9
$UCSORGTOP
 10
0.0
 20
0.0
 30
0.0
  9
$UCSORGBOTTOM
 10
0.0
 20
0.0
 30
0.0
  9
$UCSORGLEFT
 10
0.0
 20
0.0
 30
0.0
  9
$UCSORGRIGHT
 10
0.0
 20
0.0
 30
0.0
  9
$UCSORGFRONT
 10
0.0
 20
0.0
 30
0.0
  9
$UCSORGBACK
 10
0.0
 20
0.0
 30
0.0
  9
$PUCSBASE
  2

  9
$PUCSNAME
  2

  9
$PUCSORG
 10
0.0
 20
0.0
 30
0.0
  9
$PUCSXDIR
 10
1.0
 20
0.0
 30
0.0
  9
$PUCSYDIR
 10
0.0
 20
1.0
 30
0.0
  9
$PUCSORTHOREF
  2

  9
$PUCSORTHOVIEW
 70
     0
  9
$PUCSORGTOP
 10
0.0
 20
0.0
 30
0.0
  9
$PUCSORGBOTTOM
 10
0.0
 20
0.0
 30
0.0
  9
$PUCSORGLEFT
 10
0.0
 20
0.0
 30
0.0
  9
$PUCSORGRIGHT
 10
0.0
 20
0.0
 30
0.0
  9
$PUCSORGFRONT
 10
0.0
 20
0.0
 30
0.0
  9
$PUCSORGBACK
 10
0.0
 20
0.0
 30
0.0
  9
$USERI1
 70
     0
  9
$USERI2
 70
     0
  9
$USERI3
 70
     0
  9
$USERI4
 70
     0
  9
$USERI5
 70
     0
  9
$USERR1
 40
0.0
  9
$USERR2
 40
0.0
  9
$USERR3
 40
0.0
  9
$USERR4
 40
0.0
  9
$USERR5
 40
0.0
  9
$WORLDVIEW
 70
     1
  9
$SHADEDGE
 70
     3
  9
$SHADEDIF
 70
    70
  9
$TILEMODE
 70
     1
  9
$MAXACTVP
 70
    48
  9
$PINSBASE
 10
0.0
 20
0.0
 30
0.0
  9
$PLIMCHECK
 70
     0
  9
$PEXTMIN
 10
0.0
 20
0.0
 30
0.0
  9
$PEXTMAX
 10
720.0
 20
546.0
 30
2.0
  9
$PLIMMIN
 10
0.0
 20
0.0
  9
$PLIMMAX
 10
420.0
 20
297.0
  9
$UNITMODE
 70
     0
  9
$VISRETAIN
 70
     0
  9
$PLINEGEN
 70
     0
  9
$PSLTSCALE
 70
     1
  9
$TREEDEPTH
 70
  3020
  9
$CMLSTYLE
  2
Standard
  9
$CMLJUST
 70
     0
  9
$CMLSCALE
 40
20.0
  9
$PROXYGRAPHICS
 70
     1
  9
$MEASUREMENT
 70
     1
  9
$CELWEIGHT
370
    -1
  9
$ENDCAPS
280
     0
  9
$JOINSTYLE
280
     0
  9
$LWDISPLAY
290
     0
  9
$INSUNITS
 70
     0
  9
$HYPERLINKBASE
  1

  9
$STYLESHEET
  1

  9
$XEDIT
290
     1
  9
$CEPSNTYPE
380
     0
  9
$PSTYLEMODE
290
     0
  9
$FINGERPRINTGUID
  2

  9
$VERSIONGUID
  2

  9
$EXTNAMES
290
     0
  9
$PSVPSCALE
 40
0.0
  0
ENDSEC
  0
SECTION
  2
CLASSES
  0
CLASS
  1
LWPOLYLINE
  2
AcDbPolyline
  3
AutoCAD 2000
 90
        0
280
     0
281
     1
  0
CLASS
  1
IMAGE
  2
AcDbRasterImage
  3
ISM
 90
      127
280
     0
281
     1
  0
CLASS
  1
OLE2FRAME
  2
AcDbOle2Frame
  3
AutoCAD 2000
 90
        0
280
     0
281
     1
  0
CLASS
  1
HATCH
  2
AcDbHatch
  3
AutoCAD 2000
 90
        0
280
     0
281
     1
  0
CLASS
  1
DICTIONARYVAR
  2
AcDbDictionaryVar
  3
AutoCAD 2000
 90
        0
280
     0
281
     0
  0
CLASS
  1
RASTERVARIABLES
  2
AcDbRasterVariables
  3
ISM
 90
        0
280
     0
281
     0
  0
CLASS
  1
IMAGEDEF
  2
AcDbRasterImageDef
  3
ISM
 90
        0
280
     0
281
     0
  0
CLASS
  1
IMAGEDEF_REACTOR
  2
AcDbRasterImageDefReactor
  3
ISM
 90
        1
280
     0
281
     0
  0
CLASS
  1
IDBUFFER
  2
AcDbIdBuffer
  3
AutoCAD 2000
 90
        0
280
     0
281
     0
  0
CLASS
  1
SPATIAL_FILTER
  2
AcDbSpatialFilter
  3
AutoCAD 2000
 90
        0
280
     0
281
     0
  0
CLASS
  1
XRECORD
  2
AcDbXrecord
  3
AutoCAD 2000
 90
        0
280
     0
281
     0
  0
CLASS
  1
SORTENTSTABLE
  2
AcDbSortentsTable
  3
AutoCAD 2000
 90
        0
280
     0
281
     0
  0
CLASS
  1
LAYER_INDEX
  2
AcDbLayerIndex
  3
AutoCAD 2000
 90
        0
280
     0
281
     0
  0
CLASS
  1
SPATIAL_INDEX
  2
AcDbSpatialIndex
  3
AutoCAD 2000
 90
        0
280
     0
281
     0
  0
CLASS
  1
OBJECT_PTR
  2
CAseDLPNTableRecord
  3
"ASE-LPNTableRecord"
 90
        1
280
     0
281
     0
  0
CLASS
  1
LAYOUT
  2
AcDbLayout
  3
AutoCAD 2000
 90
        0
280
     0
281
     0
  0
CLASS
  1
PLOTSETTINGS
  2
AcDbPlotSettings
  3
AutoCAD 2000
 90
        0
280
     0
281
     0
  0
CLASS
  1
ACDBDICTIONARYWDFLT
  2
AcDbDictionaryWithDefault
  3
AutoCAD 2000
 90
        0
280
     0
281
     0
  0
CLASS
  1
ACDBPLACEHOLDER
  2
AcDbPlaceHolder
  3
AutoCAD 2000
 90
        0
280
     0
281
     0
  0
CLASS
  1
VBA_PROJECT
  2
AcDbVbaProject
  3
acadvba
 90
        0
280
     0
281
     0
  0
CLASS
  1
WIPEOUT
  2
AcDbWipeout
  3
WipeOut|AutoCAD Express Tool|expresstools@autodesk.com
 90
      127
280
     0
281
     1
  0
CLASS
  1
WIPEOUTVARIABLES
  2
AcDbWipeoutVariables
  3
WipeOut|AutoCAD Express Tool|expresstools@autodesk.com
 90
        0
280
     0
281
     0
  0
CLASS
  1
RTEXT
  2
RText
  3
RText|AutoCAD Express Tool|expresstools@autodesk.com
 90
        0
280
     0
281
     1
  0
CLASS
  1
ARCALIGNEDTEXT
  2
AcDbArcAlignedText
  3
ATEXT|AutoCAD Express Tool|expresstools@autodesk.com
 90
        0
280
     0
281
     1
  0
ENDSEC
  0
SECTION
  2
TABLES
  0
TABLE
  2
VPORT
  5
7
100
AcDbSymbolTable
 70
     1
  0
VPORT
  5
15
100
AcDbSymbolTableRecord
100
AcDbViewportTableRecord
  2
*ACTIVE
 70
     0
 10
0.0
 20
0.0
 11
1.0
 21
1.0
 12
6.591288
 22
4.579184
 13
0.0
 23
0.0
 14
1.0
 24
1.0
 15
0.0
 25
0.0
 16
0.0
 26
0.0
 36
1.0
 17
0.0
 27
0.0
 37
0.0
 40
9.158369
 41
0.688564
 42
50.0
 43
0.0
 44
0.0
 50
0.0
 51
0.0
 71
     0
 72
   100
 73
     1
 74
     1
 75
     0
 76
     0
 77
     0
 78
     0
281
     0
 65
     0
110
0.0
120
0.0
130
0.0
111
1.0
121
0.0
131
0.0
112
0.0
122
1.0
132
0.0
345
0
346
0
 79
     0
146
0.0
  0
ENDTAB
  0
TABLE
  2
LTYPE
  5
4
100
AcDbSymbolTable
 70
     3
  0
LTYPE
  5
11
100
AcDbSymbolTableRecord
100
AcDbLinetypeTableRecord
  2
ByBlock
 70
    64
  3

 72
    65
 73
     0
 40
0.0
  0
LTYPE
  5
12
100
AcDbSymbolTableRecord
100
AcDbLinetypeTableRecord
  2
ByLayer
 70
    64
  3

 72
    65
 73
     0
 40
0.0
  0
LTYPE
  5
13
100
AcDbSymbolTableRecord
100
AcDbLinetypeTableRecord
  2
Continuous
 70
    64
  3
Solid line
 72
    65
 73
     0
 40
0.0
  0
ENDTAB
  0
TABLE
  2
LAYER
  5
2
100
AcDbSymbolTable
 70
     1
  0
LAYER
  5
14
100
AcDbSymbolTableRecord
100
AcDbLayerTableRecord
  2
0
 70
     0
 62
     7
  6
Continuous
290
     1
370
    -3
390
1D
  0
ENDTAB
  0
TABLE
  2
STYLE
  5
3
100
AcDbSymbolTable
 70
     1
  0
STYLE
  5
17
100
AcDbSymbolTableRecord
100
AcDbTextStyleTableRecord
  2
Standard
 70
     0
 40
0.0
 41
1.0
 50
0.0
 71
     0
 42
0.0
  3
txt
  4

  0
ENDTAB
  0
TABLE
  2
VIEW
  5
5
100
AcDbSymbolTable
 70
     0
  0
ENDTAB
  0
TABLE
  2
UCS
  5
6
100
AcDbSymbolTable
 70
     0
  0
ENDTAB
  0
TABLE
  2
APPID
  5
8
100
AcDbSymbolTable
 70
     1
  0
APPID
  5
16
100
AcDbSymbolTableRecord
100
AcDbRegAppTableRecord
  2
ACAD
 70
     0
  0
ENDTAB
  0
TABLE
  2
DIMSTYLE
  5
9
100
AcDbSymbolTable
 70
     1
100
AcDbDimStyleTable
 71
     0
  0
DIMSTYLE
105
18
100
AcDbSymbolTableRecord
100
AcDbDimStyleTableRecord
  2
Standard
 70
     0
  3

  4

 40
1.0
 41
0.18
 42
0.0625
 43
0.38
 44
0.18
 45
0.0
 46
0.0
 47
0.0
 48
0.0
 71
     0
 72
     0
 73
     1
 74
     1
 75
     0
 76
     0
 77
     0
 78
     0
 79
     0
140
0.18
141
0.09
142
0.0
143
25.4
144
1.0
145
0.0
146
1.0
147
0.09
148
0.0
170
     0
171
     2
172
     0
173
     0
174
     0
175
     0
176
     0
177
     0
178
     0
179
     0
271
     4
272
     4
273
     2
274
     2
275
     0
276
     0
277
     2
278
    46
279
     0
280
     0
281
     0
282
     0
283
     1
284
     0
285
     0
286
     0
288
     0
289
     3
340
17
341
0
342
0
343
0
344
0
371
    -2
372
    -2
  0
ENDTAB
  0
TABLE
  2
BLOCK_RECORD
  5
1
100
AcDbSymbolTable
 70
     0
  0
BLOCK_RECORD
  5
A
100
AcDbSymbolTableRecord
100
AcDbBlockTableRecord
  2
*MODEL_SPACE
340
20
  0
BLOCK_RECORD
  5
B
100
AcDbSymbolTableRecord
100
AcDbBlockTableRecord
  2
*PAPER_SPACE
340
21
  0
ENDTAB
  0
ENDSEC
  0
SECTION
  2
BLOCKS
  0
BLOCK
  5
D
100
AcDbEntity
  8
0
390
0
100
AcDbBlockBegin
  2
*MODEL_SPACE
 70
     0
 10
0.0
 20
0.0
 30
0.0
  3
*MODEL_SPACE
  1

  0
ENDBLK
  5
E
100
AcDbEntity
  8
0
390
0
100
AcDbBlockEnd
  0
BLOCK
  5
F
100
AcDbEntity
 67
     1
  8
0
390
0
100
AcDbBlockBegin
  2
*PAPER_SPACE
 70
     0
 10
0.0
 20
0.0
 30
0.0
  3
*PAPER_SPACE
  1

  0
ENDBLK
  5
10
100
AcDbEntity
 67
     1
  8
0
390
0
100
AcDbBlockEnd
  0
ENDSEC
  0
SECTION
  2
ENTITIES
  0
VIEWPORT
  5
165
100
AcDbEntity
 67
     1
  8
0
370
     0
390
0
 62
     0
 48
0.0
100
AcDbViewport
 10
0.0
 20
0.0
 30
0.0
 40
1000.0
 41
1000.0
 68
     1
 69
     1
 12
0.0
 22
0.0
 13
0.0
 23
0.0
 14
1.0
 24
1.0
 15
1.0
 25
1.0
 16
0.0
 26
0.0
 36
1.0
 17
0.0
 27
0.0
 37
0.0
 42
50.0
 43
0.0
 44
0.0
 45
1000.0
 50
0.0
 51
0.0
 72
   100
 90
        0
340
0
  1

281
     0
 71
     0
 74
     1
110
0.0
120
0.0
130
0.0
111
1.0
121
0.0
131
0.0
112
0.0
122
1.0
132
0.0
345
0
346
0
 79
     0
146
0.0
  0
ARC
  5
24
100
AcDbEntity
  8
0
370
    35
390
0
 62
     7
100
AcDbCircle
 10
594.5
 20
420.5
 30
0.0
 40
76.0
210
0.0
220
0.0
230
1.0
100
AcDbArc
 50
316.093208
 51
327.447192
  0
LINE
  5
25
100
AcDbEntity
  8
0
370
    35
390
0
 62
     7
 48
0.0625
100
AcDbLine
 10
647.487854
 20
369.562744
 30
0.0
 11
649.255615
 21
367.794983
 31
0.0
210
0.0
220
0.0
230
1.0
  0
ARC
  5
26
100
AcDbEntity
  8
0
370
    35
390
0
 62
     7
100
AcDbCircle
 10
717.206421
 20
342.168304
 30
0.0
 40
69.577183
210
0.0
220
0.0
230
1.0
100
AcDbArc
 50
94.530214
 51
147.447187
  0
LINE
  5
27
100
AcDbEntity
  8
0
370
    35
390
0
 62
     7
 48
0.0725
100
AcDbLine
 10
645.437256
 20
367.512115
 30
0.0
 11
647.487854
 21
369.562744
 31
0.0
210
0.0
220
0.0
230
1.0
  0
ARC
  5
28
100
AcDbEntity
  8
0
370
    35
390
0
 62
     7
100
AcDbCircle
 10
672.831665
 20
297.793579
 30
0.0
 40
69.577183
210
0.0
220
0.0
230
1.0
100
AcDbArc
 50
122.552814
 51
175.469786
  0
ARC
  5
29
100
AcDbEntity
  8
0
370
    35
390
0
 62
     7
100
AcDbCircle
 10
594.5
 20
420.5
 30
0.0
 40
76.0
210
0.0
220
0.0
230
1.0
100
AcDbArc
 50
302.552809
 51
313.906789
  0
LINE
  5
2A
100
AcDbEntity
  8
0
370
    35
390
0
 62
     7
 48
0.0625
100
AcDbLine
 10
647.205017
 20
365.744354
 30
0.0
 11
645.437256
 21
367.512115
 31
0.0
210
0.0
220
0.0
230
1.0
  0
ARC
  5
2B
100
AcDbEntity
  8
0
370
    35
390
0
 62
     7
100
AcDbCircle
 10
711.0
 20
420.5
 30
0.0
 40
9.0
210
0.0
220
0.0
230
1.0
100
AcDbArc
 50
274.530216
 51
85.469784
  0
ARC
  5
2C
100
AcDbEntity
  8
0
370
    35
390
0
 62
     7
100
AcDbCircle
 10
717.206421
 20
498.831696
 30
0.0
 40
69.577183
210
0.0
220
0.0
230
1.0
100
AcDbArc
 50
212.552813
 51
265.469786
  0
ARC
  5
2D
100
AcDbEntity
  8
0
370
    35
390
0
 62
     7
100
AcDbCircle
 10
594.5
 20
420.5
 30
0.0
 40
76.0
210
0.0
220
0.0
230
1.0
100
AcDbArc
 50
32.552808
 51
43.906792
  0
LINE
  5
2E
100
AcDbEntity
  8
0
370
    35
390
0
 62
     7
 48
0.0625
100
AcDbLine
 10
647.487854
 20
471.437256
 30
0.0
 11
649.255615
 21
473.205017
 31
0.0
210
0.0
220
0.0
230
1.0
  0
LINE
  5
2F
100
AcDbEntity
  8
0
370
    35
390
0
 62
     7
 48
0.0725
100
AcDbLine
 10
645.437256
 20
473.487885
 30
0.0
 11
647.487854
 21
471.437256
 31
0.0
210
0.0
220
0.0
230
1.0
  0
LINE
  5
30
100
AcDbEntity
  8
0
370
    35
390
0
 62
     7
 48
0.0625
100
AcDbLine
 10
647.205017
 20
475.255646
 30
0.0
 11
645.437256
 21
473.487885
 31
0.0
210
0.0
220
0.0
230
1.0
  0
ARC
  5
31
100
AcDbEntity
  8
0
370
    35
390
0
 62
     7
100
AcDbCircle
 10
594.5
 20
420.5
 30
0.0
 40
76.0
210
0.0
220
0.0
230
1.0
100
AcDbArc
 50
46.093211
 51
57.447191
  0
ARC
  5
32
100
AcDbEntity
  8
0
370
    35
390
0
 62
     7
100
AcDbCircle
 10
672.831665
 20
543.206421
 30
0.0
 40
69.577183
210
0.0
220
0.0
230
1.0
100
AcDbArc
 50
184.530214
 51
237.447186
  0
ARC
  5
33
100
AcDbEntity
  8
0
370
    35
390
0
 62
     7
100
AcDbCircle
 10
594.5
 20
537.0
 30
0.0
 40
9.0
210
0.0
220
0.0
230
1.0
100
AcDbArc
 50
4.530216
 51
175.469786
  0
ARC
  5
34
100
AcDbEntity
  8
0
370
    35
390
0
 62
     7
100
AcDbCircle
 10
516.168335
 20
543.206421
 30
0.0
 40
69.577183
210
0.0
220
0.0
230
1.0
100
AcDbArc
 50
302.552809
 51
355.469784
  0
ARC
  5
35
100
AcDbEntity
  8
0
370
    35
390
0
 62
     7
100
AcDbCircle
 10
594.5
 20
420.5
 30
0.0
 40
76.0
210
0.0
220
0.0
230
1.0
100
AcDbArc
 50
122.552814
 51
133.906788
  0
LINE
  5
36
100
AcDbEntity
  8
0
370
    35
390
0
 62
     7
 48
0.0625
100
AcDbLine
 10
541.794983
 20
475.255646
 30
0.0
 11
543.562744
 21
473.487885
 31
0.0
210
0.0
220
0.0
230
1.0
  0
LINE
  5
37
100
AcDbEntity
  8
0
370
    35
390
0
 62
     7
 48
0.0725
100
AcDbLine
 10
543.562744
 20
473.487885
 30
0.0
 11
541.512146
 21
471.437256
 31
0.0
210
0.0
220
0.0
230
1.0
  0
LINE
  5
38
100
AcDbEntity
  8
0
370
    35
390
0
 62
     7
 48
0.0625
100
AcDbLine
 10
541.512146
 20
471.437256
 30
0.0
 11
539.744385
 21
473.205017
 31
0.0
210
0.0
220
0.0
230
1.0
  0
ARC
  5
39
100
AcDbEntity
  8
0
370
    35
390
0
 62
     7
100
AcDbCircle
 10
594.5
 20
420.5
 30
0.0
 40
76.0
210
0.0
220
0.0
230
1.0
100
AcDbArc
 50
136.093213
 51
147.447187
  0
ARC
  5
3A
100
AcDbEntity
  8
0
370
    35
390
0
 62
     7
100
AcDbCircle
 10
471.793579
 20
498.831696
 30
0.0
 40
69.577183
210
0.0
220
0.0
230
1.0
100
AcDbArc
 50
274.530216
 51
327.447192
  0
ARC
  5
3B
100
AcDbEntity
  8
0
370
    35
390
0
 62
     7
100
AcDbCircle
 10
478.0
 20
420.5
 30
0.0
 40
9.0
210
0.0
220
0.0
230
1.0
100
AcDbArc
 50
94.530214
 51
265.469786
  0
ARC
  5
3C
100
AcDbEntity
  8
0
370
    35
390
0
 62
     7
100
AcDbCircle
 10
471.793579
 20
342.168304
 30
0.0
 40
69.577183
210
0.0
220
0.0
230
1.0
100
AcDbArc
 50
32.552808
 51
85.469784
  0
ARC
  5
3D
100
AcDbEntity
  8
0
370
    35
390
0
 62
     7
100
AcDbCircle
 10
594.5
 20
420.5
 30
0.0
 40
76.0
210
0.0
220
0.0
230
1.0
100
AcDbArc
 50
212.552813
 51
223.906787
  0
LINE
  5
3E
100
AcDbEntity
  8
0
370
    35
390
0
 62
     7
 48
0.0625
100
AcDbLine
 10
541.512146
 20
369.562744
 30
0.0
 11
539.744385
 21
367.794983
 31
0.0
210
0.0
220
0.0
230
1.0
  0
LINE
  5
3F
100
AcDbEntity
  8
0
370
    35
390
0
 62
     7
 48
0.0725
100
AcDbLine
 10
543.562744
 20
367.512115
 30
0.0
 11
541.512146
 21
369.562744
 31
0.0
210
0.0
220
0.0
230
1.0
  0
LINE
  5
40
100
AcDbEntity
  8
0
370
    35
390
0
 62
     7
 48
0.0625
100
AcDbLine
 10
541.794983
 20
365.744354
 30
0.0
 11
543.562744
 21
367.512115
 31
0.0
210
0.0
220
0.0
230
1.0
  0
ARC
  5
41
100
AcDbEntity
  8
0
370
    35
390
0
 62
     7
100
AcDbCircle
 10
594.5
 20
420.5
 30
0.0
 40
76.0
210
0.0
220
0.0
230
1.0
100
AcDbArc
 50
226.093212
 51
237.447186
  0
ARC
  5
42
100
AcDbEntity
  8
0
370
    35
390
0
 62
     7
100
AcDbCircle
 10
516.168335
 20
297.793579
 30
0.0
 40
69.577183
210
0.0
220
0.0
230
1.0
100
AcDbArc
 50
4.530216
 51
57.447191
  0
ARC
  5
43
100
AcDbEntity
  8
0
370
    35
390
0
 62
     7
100
AcDbCircle
 10
478.0
 20
420.5
 30
0.0
 40
66.5
210
0.0
220
0.0
230
1.0
100
AcDbArc
 50
328.337384
 51
31.662616
  0
CIRCLE
  5
44
100
AcDbEntity
  8
0
370
    35
390
0
 62
     7
100
AcDbCircle
 10
594.5
 20
537.0
 30
0.0
 40
3.5
210
0.0
220
0.0
230
1.0
  0
CIRCLE
  5
45
100
AcDbEntity
  8
0
370
    35
390
0
 62
     7
100
AcDbCircle
 10
590.257385
 20
299.757355
 30
0.0
 40
1.1
210
0.0
220
0.0
230
1.0
  0
CIRCLE
  5
46
100
AcDbEntity
  8
0
370
    35
390
0
 62
     7
100
AcDbCircle
 10
590.257385
 20
308.242645
 30
0.0
 40
1.1
210
0.0
220
0.0
230
1.0
  0
CIRCLE
  5
47
100
AcDbEntity
  8
0
370
    35
390
0
 62
     7
100
AcDbCircle
 10
598.742615
 20
308.242645
 30
0.0
 40
1.1
210
0.0
220
0.0
230
1.0
  0
CIRCLE
  5
48
100
AcDbEntity
  8
0
370
    35
390
0
 62
     7
100
AcDbCircle
 10
706.757385
 20
424.742645
 30
0.0
 40
1.1
210
0.0
220
0.0
230
1.0
  0
CIRCLE
  5
49
100
AcDbEntity
  8
0
370
    35
390
0
 62
     7
100
AcDbCircle
 10
706.757385
 20
416.257355
 30
0.0
 40
1.1
210
0.0
220
0.0
230
1.0
  0
CIRCLE
  5
4A
100
AcDbEntity
  8
0
370
    35
390
0
 62
     7
100
AcDbCircle
 10
715.242615
 20
416.257355
 30
0.0
 40
1.1
210
0.0
220
0.0
230
1.0
  0
CIRCLE
  5
4B
100
AcDbEntity
  8
0
370
    35
390
0
 62
     7
100
AcDbCircle
 10
715.242615
 20
424.742645
 30
0.0
 40
1.1
210
0.0
220
0.0
230
1.0
  0
CIRCLE
  5
4C
100
AcDbEntity
  8
0
370
    35
390
0
 62
     7
100
AcDbCircle
 10
711.0
 20
420.5
 30
0.0
 40
3.5
210
0.0
220
0.0
230
1.0
  0
CIRCLE
  5
4D
100
AcDbEntity
  8
0
370
    35
390
0
 62
     7
100
AcDbCircle
 10
548.705383
 20
449.115631
 30
0.0
 40
1.25
210
0.0
220
0.0
230
1.0
  0
CIRCLE
  5
4E
100
AcDbEntity
  8
0
370
    35
390
0
 62
     7
100
AcDbCircle
 10
555.5
 20
420.5
 30
0.0
 40
1.25
210
0.0
220
0.0
230
1.0
  0
CIRCLE
  5
4F
100
AcDbEntity
  8
0
370
    35
390
0
 62
     7
100
AcDbCircle
 10
548.705383
 20
391.884369
 30
0.0
 40
1.25
210
0.0
220
0.0
230
1.0
  0
CIRCLE
  5
50
100
AcDbEntity
  8
0
370
    35
390
0
 62
     7
100
AcDbCircle
 10
623.115662
 20
466.294586
 30
0.0
 40
1.25
210
0.0
220
0.0
230
1.0
  0
CIRCLE
  5
51
100
AcDbEntity
  8
0
370
    35
390
0
 62
     7
100
AcDbCircle
 10
594.5
 20
459.5
 30
0.0
 40
1.25
210
0.0
220
0.0
230
1.0
  0
CIRCLE
  5
52
100
AcDbEntity
  8
0
370
    35
390
0
 62
     7
100
AcDbCircle
 10
565.884338
 20
466.294586
 30
0.0
 40
1.25
210
0.0
220
0.0
230
1.0
  0
CIRCLE
  5
53
100
AcDbEntity
  8
0
370
    35
390
0
 62
     7
100
AcDbCircle
 10
640.294617
 20
391.884369
 30
0.0
 40
1.25
210
0.0
220
0.0
230
1.0
  0
CIRCLE
  5
54
100
AcDbEntity
  8
0
370
    35
390
0
 62
     7
100
AcDbCircle
 10
633.5
 20
420.5
 30
0.0
 40
1.25
210
0.0
220
0.0
230
1.0
  0
CIRCLE
  5
55
100
AcDbEntity
  8
0
370
    35
390
0
 62
     7
100
AcDbCircle
 10
640.294617
 20
449.115631
 30
0.0
 40
1.25
210
0.0
220
0.0
230
1.0
  0
CIRCLE
  5
56
100
AcDbEntity
  8
0
370
    35
390
0
 62
     7
100
AcDbCircle
 10
565.884338
 20
374.705414
 30
0.0
 40
1.25
210
0.0
220
0.0
230
1.0
  0
CIRCLE
  5
57
100
AcDbEntity
  8
0
370
    35
390
0
 62
     7
100
AcDbCircle
 10
594.5
 20
381.5
 30
0.0
 40
1.25
210
0.0
220
0.0
230
1.0
  0
CIRCLE
  5
58
100
AcDbEntity
  8
0
370
    35
390
0
 62
     7
100
AcDbCircle
 10
623.115662
 20
374.705414
 30
0.0
 40
1.25
210
0.0
220
0.0
230
1.0
  0
LINE
  5
59
100
AcDbEntity
  8
0
370
    35
390
0
 62
     7
 48
0.072137
100
AcDbLine
 10
625.896545
 20
467.420074
 30
0.0
 11
624.814026
 21
470.094788
 31
0.0
210
0.0
220
0.0
230
1.0
  0
ARC
  5
5A
100
AcDbEntity
  8
0
370
    35
390
0
 62
     7
100
AcDbCircle
 10
625.740967
 20
470.46994
 30
0.0
 40
1.0
210
0.0
220
0.0
230
1.0
100
AcDbArc
 50
115.15367
 51
202.033994
  0
ARC
  5
5B
100
AcDbEntity
  8
0
370
    35
390
0
 62
     7
100
AcDbCircle
 10
594.5
 20
537.0
 30
0.0
 40
72.5
210
0.0
220
0.0
230
1.0
100
AcDbArc
 50
295.153672
 51
302.767249
  0
ARC
  5
5C
100
AcDbEntity
  8
0
370
    35
390
0
 62
     7
100
AcDbCircle
 10
594.5
 20
420.5
 30
0.0
 40
68.0
210
0.0
220
0.0
230
1.0
100
AcDbArc
 50
46.22184
 51
54.75709
  0
LINE
  5
5D
100
AcDbEntity
  8
0
370
    35
390
0
 62
     7
 48
0.012541
100
AcDbLine
 10
641.546997
 20
469.597626
 30
0.0
 11
641.901733
 21
469.952332
 31
0.0
210
0.0
220
0.0
230
1.0
  0
LINE
  5
5E
100
AcDbEntity
  8
0
370
    35
390
0
 62
     7
 48
0.0725
100
AcDbLine
 10
641.901733
 20
469.952332
 30
0.0
 11
643.952332
 21
467.901733
 31
0.0
210
0.0
220
0.0
230
1.0
  0
LINE
  5
5F
100
AcDbEntity
  8
0
370
    35
390
0
 62
     7
 48
0.01254
100
AcDbLine
 10
643.952332
 20
467.901733
 30
0.0
 11
643.597656
 21
467.547028
 31
0.0
210
0.0
220
0.0
230
1.0
  0
ARC
  5
60
100
AcDbEntity
  8
0
370
    35
390
0
 62
     7
100
AcDbCircle
 10
594.5
 20
420.5
 30
0.0
 40
68.0
210
0.0
220
0.0
230
1.0
100
AcDbArc
 50
35.242909
 51
43.778159
  0
ARC
  5
61
100
AcDbEntity
  8
0
370
    35
390
0
 62
     7
100
AcDbCircle
 10
711.0
 20
420.5
 30
0.0
 40
72.5
210
0.0
220
0.0
230
1.0
100
AcDbArc
 50
147.232746
 51
154.846331
  0
ARC
  5
62
100
AcDbEntity
  8
0
370
    35
390
0
 62
     7
100
AcDbCircle
 10
644.46991
 20
451.740997
 30
0.0
 40
1.0
210
0.0
220
0.0
230
1.0
100
AcDbArc
 50
247.966012
 51
334.846331
  0
LINE
  5
63
100
AcDbEntity
  8
0
370
    35
390
0
 62
     7
 48
0.072137
100
AcDbLine
 10
641.420044
 20
451.896515
 30
0.0
 11
644.094788
 21
450.814026
 31
0.0
210
0.0
220
0.0
230
1.0
  0
ARC
  5
64
100
AcDbEntity
  8
0
370
    35
390
0
 62
     7
100
AcDbCircle
 10
640.294617
 20
449.115631
 30
0.0
 40
3.0
210
0.0
220
0.0
230
1.0
100
AcDbArc
 50
67.96601
 51
247.966012
  0
LINE
  5
65
100
AcDbEntity
  8
0
370
    35
390
0
 62
     7
 48
0.072136
100
AcDbLine
 10
639.169128
 20
446.334747
 30
0.0
 11
641.843811
 21
445.252258
 31
0.0
210
0.0
220
0.0
230
1.0
  0
ARC
  5
66
100
AcDbEntity
  8
0
370
    35
390
0
 62
     7
100
AcDbCircle
 10
641.468689
 20
444.325287
 30
0.0
 40
1.0
210
0.0
220
0.0
230
1.0
100
AcDbArc
 50
341.08569
 51
67.96601
  0
ARC
  5
67
100
AcDbEntity
  8
0
370
    35
390
0
 62
     7
100
AcDbCircle
 10
711.0
 20
420.5
 30
0.0
 40
72.5
210
0.0
220
0.0
230
1.0
100
AcDbArc
 50
161.085695
 51
176.880316
  0
ARC
  5
68
100
AcDbEntity
  8
0
370
    35
390
0
 62
     7
100
AcDbCircle
 10
637.608948
 20
424.5
 30
0.0
 40
1.0
210
0.0
220
0.0
230
1.0
100
AcDbArc
 50
269.999997
 51
356.880321
  0
LINE
  5
69
100
AcDbEntity
  8
0
370
    35
390
0
 62
     7
 48
0.102724
100
AcDbLine
 10
633.5
 20
423.5
 30
0.0
 11
637.608948
 21
423.5
 31
0.0
210
0.0
220
0.0
230
1.0
  0
ARC
  5
6A
100
AcDbEntity
  8
0
370
    35
390
0
 62
     7
100
AcDbCircle
 10
633.5
 20
420.5
 30
0.0
 40
3.0
210
0.0
220
0.0
230
1.0
100
AcDbArc
 50
90.000003
 51
269.999997
  0
LINE
  5
6B
100
AcDbEntity
  8
0
370
    35
390
0
 62
     7
 48
0.102724
100
AcDbLine
 10
633.5
 20
417.5
 30
0.0
 11
637.608948
 21
417.5
 31
0.0
210
0.0
220
0.0
230
1.0
  0
ARC
  5
6C
100
AcDbEntity
  8
0
370
    35
390
0
 62
     7
100
AcDbCircle
 10
637.608948
 20
416.5
 30
0.0
 40
1.0
210
0.0
220
0.0
230
1.0
100
AcDbArc
 50
3.119679
 51
90.000003
  0
ARC
  5
6D
100
AcDbEntity
  8
0
370
    35
390
0
 62
     7
100
AcDbCircle
 10
711.0
 20
420.5
 30
0.0
 40
72.5
210
0.0
220
0.0
230
1.0
100
AcDbArc
 50
183.119684
 51
198.914305
  0
ARC
  5
6E
100
AcDbEntity
  8
0
370
    35
390
0
 62
     7
100
AcDbCircle
 10
641.468689
 20
396.674713
 30
0.0
 40
1.0
210
0.0
220
0.0
230
1.0
100
AcDbArc
 50
292.03399
 51
18.91431
  0
LINE
  5
6F
100
AcDbEntity
  8
0
370
    35
390
0
 62
     7
 48
0.072136
100
AcDbLine
 10
639.169128
 20
394.665253
 30
0.0
 11
641.843811
 21
395.747742
 31
0.0
210
0.0
220
0.0
230
1.0
  0
ARC
  5
70
100
AcDbEntity
  8
0
370
    35
390
0
 62
     7
100
AcDbCircle
 10
640.294617
 20
391.884369
 30
0.0
 40
3.0
210
0.0
220
0.0
230
1.0
100
AcDbArc
 50
112.033988
 51
292.03399
  0
LINE
  5
71
100
AcDbEntity
  8
0
370
    35
390
0
 62
     7
 48
0.072137
100
AcDbLine
 10
641.420044
 20
389.103485
 30
0.0
 11
644.094788
 21
390.185974
 31
0.0
210
0.0
220
0.0
230
1.0
  0
ARC
  5
72
100
AcDbEntity
  8
0
370
    35
390
0
 62
     7
100
AcDbCircle
 10
644.46991
 20
389.259003
 30
0.0
 40
1.0
210
0.0
220
0.0
230
1.0
100
AcDbArc
 50
25.153669
 51
112.033988
  0
ARC
  5
73
100
AcDbEntity
  8
0
370
    35
390
0
 62
     7
100
AcDbCircle
 10
711.0
 20
420.5
 30
0.0
 40
72.5
210
0.0
220
0.0
230
1.0
100
AcDbArc
 50
205.153669
 51
212.767254
  0
ARC
  5
74
100
AcDbEntity
  8
0
370
    35
390
0
 62
     7
100
AcDbCircle
 10
594.5
 20
420.5
 30
0.0
 40
68.0
210
0.0
220
0.0
230
1.0
100
AcDbArc
 50
316.221841
 51
324.757091
  0
LINE
  5
75
100
AcDbEntity
  8
0
370
    35
390
0
 62
     7
 48
0.01254
100
AcDbLine
 10
643.952332
 20
373.098267
 30
0.0
 11
643.597656
 21
373.452972
 31
0.0
210
0.0
220
0.0
230
1.0
  0
LINE
  5
76
100
AcDbEntity
  8
0
370
    35
390
0
 62
     7
 48
0.0725
100
AcDbLine
 10
641.901733
 20
371.047668
 30
0.0
 11
643.952332
 21
373.098267
 31
0.0
210
0.0
220
0.0
230
1.0
  0
LINE
  5
77
100
AcDbEntity
  8
0
370
    35
390
0
 62
     7
 48
0.012541
100
AcDbLine
 10
641.546997
 20
371.402374
 30
0.0
 11
641.901733
 21
371.047668
 31
0.0
210
0.0
220
0.0
230
1.0
  0
ARC
  5
78
100
AcDbEntity
  8
0
370
    35
390
0
 62
     7
100
AcDbCircle
 10
594.5
 20
420.5
 30
0.0
 40
68.0
210
0.0
220
0.0
230
1.0
100
AcDbArc
 50
305.24291
 51
313.77816
  0
ARC
  5
79
100
AcDbEntity
  8
0
370
    35
390
0
 62
     7
100
AcDbCircle
 10
594.5
 20
304.0
 30
0.0
 40
72.5
210
0.0
220
0.0
230
1.0
100
AcDbArc
 50
57.232751
 51
64.846328
  0
ARC
  5
7A
100
AcDbEntity
  8
0
370
    35
390
0
 62
     7
100
AcDbCircle
 10
625.740967
 20
370.53006
 30
0.0
 40
1.0
210
0.0
220
0.0
230
1.0
100
AcDbArc
 50
157.966006
 51
244.84633
  0
LINE
  5
7B
100
AcDbEntity
  8
0
370
    35
390
0
 62
     7
 48
0.072137
100
AcDbLine
 10
625.896545
 20
373.579926
 30
0.0
 11
624.814026
 21
370.905212
 31
0.0
210
0.0
220
0.0
230
1.0
  0
ARC
  5
7C
100
AcDbEntity
  8
0
370
    35
390
0
 62
     7
100
AcDbCircle
 10
623.115662
 20
374.705414
 30
0.0
 40
3.0
210
0.0
220
0.0
230
1.0
100
AcDbArc
 50
337.966011
 51
157.966006
  0
LINE
  5
7D
100
AcDbEntity
  8
0
370
    35
390
0
 62
     7
 48
0.072137
100
AcDbLine
 10
620.334778
 20
375.830872
 30
0.0
 11
619.252258
 21
373.156158
 31
0.0
210
0.0
220
0.0
230
1.0
  0
ARC
  5
7E
100
AcDbEntity
  8
0
370
    35
390
0
 62
     7
100
AcDbCircle
 10
618.325317
 20
373.531311
 30
0.0
 40
1.0
210
0.0
220
0.0
230
1.0
100
AcDbArc
 50
251.085687
 51
337.966011
  0
ARC
  5
7F
100
AcDbEntity
  8
0
370
    35
390
0
 62
     7
100
AcDbCircle
 10
594.5
 20
304.0
 30
0.0
 40
72.5
210
0.0
220
0.0
230
1.0
100
AcDbArc
 50
71.085692
 51
86.88032
  0
ARC
  5
80
100
AcDbEntity
  8
0
370
    35
390
0
 62
     7
100
AcDbCircle
 10
598.5
 20
377.391083
 30
0.0
 40
1.0
210
0.0
220
0.0
230
1.0
100
AcDbArc
 50
180.000005
 51
266.880322
  0
LINE
  5
81
100
AcDbEntity
  8
0
370
    35
390
0
 62
     7
 48
0.102723
100
AcDbLine
 10
597.5
 20
381.5
 30
0.0
 11
597.5
 21
377.391083
 31
0.0
210
0.0
220
0.0
230
1.0
  0
ARC
  5
82
100
AcDbEntity
  8
0
370
    35
390
0
 62
     7
100
AcDbCircle
 10
594.5
 20
381.5
 30
0.0
 40
3.0
210
0.0
220
0.0
230
1.0
100
AcDbArc
 50
0.0
 51
180.000005
  0
LINE
  5
83
100
AcDbEntity
  8
0
370
    35
390
0
 62
     7
 48
0.102723
100
AcDbLine
 10
591.5
 20
381.5
 30
0.0
 11
591.5
 21
377.391083
 31
0.0
210
0.0
220
0.0
230
1.0
  0
ARC
  5
84
100
AcDbEntity
  8
0
370
    35
390
0
 62
     7
100
AcDbCircle
 10
590.5
 20
377.391083
 30
0.0
 40
1.0
210
0.0
220
0.0
230
1.0
100
AcDbArc
 50
273.11968
 51
360.0
  0
ARC
  5
85
100
AcDbEntity
  8
0
370
    35
390
0
 62
     7
100
AcDbCircle
 10
594.5
 20
304.0
 30
0.0
 40
72.5
210
0.0
220
0.0
230
1.0
100
AcDbArc
 50
93.119678
 51
108.914313
  0
ARC
  5
86
100
AcDbEntity
  8
0
370
    35
390
0
 62
     7
100
AcDbCircle
 10
570.674683
 20
373.531311
 30
0.0
 40
1.0
210
0.0
220
0.0
230
1.0
100
AcDbArc
 50
202.033994
 51
288.914308
  0
LINE
  5
87
100
AcDbEntity
  8
0
370
    35
390
0
 62
     7
 48
0.072137
100
AcDbLine
 10
568.665222
 20
375.830872
 30
0.0
 11
569.747742
 21
373.156158
 31
0.0
210
0.0
220
0.0
230
1.0
  0
ARC
  5
88
100
AcDbEntity
  8
0
370
    35
390
0
 62
     7
100
AcDbCircle
 10
565.884338
 20
374.705414
 30
0.0
 40
3.0
210
0.0
220
0.0
230
1.0
100
AcDbArc
 50
22.033989
 51
202.033994
  0
LINE
  5
89
100
AcDbEntity
  8
0
370
    35
390
0
 62
     7
 48
0.072137
100
AcDbLine
 10
563.103455
 20
373.579926
 30
0.0
 11
564.185974
 21
370.905212
 31
0.0
210
0.0
220
0.0
230
1.0
  0
ARC
  5
8A
100
AcDbEntity
  8
0
370
    35
390
0
 62
     7
100
AcDbCircle
 10
563.259033
 20
370.53006
 30
0.0
 40
1.0
210
0.0
220
0.0
230
1.0
100
AcDbArc
 50
295.153672
 51
22.033989
  0
ARC
  5
8B
100
AcDbEntity
  8
0
370
    35
390
0
 62
     7
100
AcDbCircle
 10
594.5
 20
304.0
 30
0.0
 40
72.5
210
0.0
220
0.0
230
1.0
100
AcDbArc
 50
115.15367
 51
122.767254
  0
ARC
  5
8C
100
AcDbEntity
  8
0
370
    35
390
0
 62
     7
100
AcDbCircle
 10
594.5
 20
420.5
 30
0.0
 40
68.0
210
0.0
220
0.0
230
1.0
100
AcDbArc
 50
226.221839
 51
234.757089
  0
LINE
  5
8D
100
AcDbEntity
  8
0
370
    35
390
0
 62
     7
 48
0.012541
100
AcDbLine
 10
547.453003
 20
371.402374
 30
0.0
 11
547.098267
 21
371.047668
 31
0.0
210
0.0
220
0.0
230
1.0
  0
LINE
  5
8E
100
AcDbEntity
  8
0
370
    35
390
0
 62
     7
 48
0.0725
100
AcDbLine
 10
547.098267
 20
371.047668
 30
0.0
 11
545.047668
 21
373.098267
 31
0.0
210
0.0
220
0.0
230
1.0
  0
LINE
  5
8F
100
AcDbEntity
  8
0
370
    35
390
0
 62
     7
 48
0.01254
100
AcDbLine
 10
545.047668
 20
373.098267
 30
0.0
 11
545.402344
 21
373.452972
 31
0.0
210
0.0
220
0.0
230
1.0
  0
ARC
  5
90
100
AcDbEntity
  8
0
370
    35
390
0
 62
     7
100
AcDbCircle
 10
594.5
 20
420.5
 30
0.0
 40
68.0
210
0.0
220
0.0
230
1.0
100
AcDbArc
 50
215.242911
 51
223.778161
  0
ARC
  5
91
100
AcDbEntity
  8
0
370
    35
390
0
 62
     7
100
AcDbCircle
 10
478.0
 20
420.5
 30
0.0
 40
72.5
210
0.0
220
0.0
230
1.0
100
AcDbArc
 50
327.232751
 51
334.846331
  0
ARC
  5
92
100
AcDbEntity
  8
0
370
    35
390
0
 62
     7
100
AcDbCircle
 10
544.53009
 20
389.259003
 30
0.0
 40
1.0
210
0.0
220
0.0
230
1.0
100
AcDbArc
 50
67.96601
 51
154.846331
  0
LINE
  5
93
100
AcDbEntity
  8
0
370
    35
390
0
 62
     7
 48
0.072137
100
AcDbLine
 10
547.579956
 20
389.103485
 30
0.0
 11
544.905212
 21
390.185974
 31
0.0
210
0.0
220
0.0
230
1.0
  0
ARC
  5
94
100
AcDbEntity
  8
0
370
    35
390
0
 62
     7
100
AcDbCircle
 10
548.705383
 20
391.884369
 30
0.0
 40
3.0
210
0.0
220
0.0
230
1.0
100
AcDbArc
 50
247.966012
 51
67.96601
  0
LINE
  5
95
100
AcDbEntity
  8
0
370
    35
390
0
 62
     7
 48
0.072136
100
AcDbLine
 10
549.830872
 20
394.665253
 30
0.0
 11
547.156189
 21
395.747742
 31
0.0
210
0.0
220
0.0
230
1.0
  0
ARC
  5
96
100
AcDbEntity
  8
0
370
    35
390
0
 62
     7
100
AcDbCircle
 10
547.531311
 20
396.674713
 30
0.0
 40
1.0
210
0.0
220
0.0
230
1.0
100
AcDbArc
 50
161.085695
 51
247.966012
  0
ARC
  5
97
100
AcDbEntity
  8
0
370
    35
390
0
 62
     7
100
AcDbCircle
 10
478.0
 20
420.5
 30
0.0
 40
72.5
210
0.0
220
0.0
230
1.0
100
AcDbArc
 50
341.08569
 51
356.880321
  0
ARC
  5
98
100
AcDbEntity
  8
0
370
    35
390
0
 62
     7
100
AcDbCircle
 10
551.391052
 20
416.5
 30
0.0
 40
1.0
210
0.0
220
0.0
230
1.0
100
AcDbArc
 50
90.000003
 51
176.880316
  0
LINE
  5
99
100
AcDbEntity
  8
0
370
    35
390
0
 62
     7
 48
0.102724
100
AcDbLine
 10
555.5
 20
417.5
 30
0.0
 11
551.391052
 21
417.5
 31
0.0
210
0.0
220
0.0
230
1.0
  0
ARC
  5
9A
100
AcDbEntity
  8
0
370
    35
390
0
 62
     7
100
AcDbCircle
 10
555.5
 20
420.5
 30
0.0
 40
3.0
210
0.0
220
0.0
230
1.0
100
AcDbArc
 50
269.999997
 51
90.000003
  0
LINE
  5
9B
100
AcDbEntity
  8
0
370
    35
390
0
 62
     7
 48
0.102724
100
AcDbLine
 10
555.5
 20
423.5
 30
0.0
 11
551.391052
 21
423.5
 31
0.0
210
0.0
220
0.0
230
1.0
  0
ARC
  5
9C
100
AcDbEntity
  8
0
370
    35
390
0
 62
     7
100
AcDbCircle
 10
551.391052
 20
424.5
 30
0.0
 40
1.0
210
0.0
220
0.0
230
1.0
100
AcDbArc
 50
183.119684
 51
269.999997
  0
ARC
  5
9D
100
AcDbEntity
  8
0
370
    35
390
0
 62
     7
100
AcDbCircle
 10
478.0
 20
420.5
 30
0.0
 40
72.5
210
0.0
220
0.0
230
1.0
100
AcDbArc
 50
3.119679
 51
18.91431
  0
ARC
  5
9E
100
AcDbEntity
  8
0
370
    35
390
0
 62
     7
100
AcDbCircle
 10
547.531311
 20
444.325287
 30
0.0
 40
1.0
210
0.0
220
0.0
230
1.0
100
AcDbArc
 50
112.033988
 51
198.914305
  0
LINE
  5
9F
100
AcDbEntity
  8
0
370
    35
390
0
 62
     7
 48
0.072136
100
AcDbLine
 10
549.830872
 20
446.334747
 30
0.0
 11
547.156189
 21
445.252258
 31
0.0
210
0.0
220
0.0
230
1.0
  0
ARC
  5
A0
100
AcDbEntity
  8
0
370
    35
390
0
 62
     7
100
AcDbCircle
 10
548.705383
 20
449.115631
 30
0.0
 40
3.0
210
0.0
220
0.0
230
1.0
100
AcDbArc
 50
292.03399
 51
112.033988
  0
LINE
  5
A1
100
AcDbEntity
  8
0
370
    35
390
0
 62
     7
 48
0.072137
100
AcDbLine
 10
547.579956
 20
451.896515
 30
0.0
 11
544.905212
 21
450.814026
 31
0.0
210
0.0
220
0.0
230
1.0
  0
ARC
  5
A2
100
AcDbEntity
  8
0
370
    35
390
0
 62
     7
100
AcDbCircle
 10
544.53009
 20
451.740997
 30
0.0
 40
1.0
210
0.0
220
0.0
230
1.0
100
AcDbArc
 50
205.153669
 51
292.03399
  0
ARC
  5
A3
100
AcDbEntity
  8
0
370
    35
390
0
 62
     7
100
AcDbCircle
 10
478.0
 20
420.5
 30
0.0
 40
72.5
210
0.0
220
0.0
230
1.0
100
AcDbArc
 50
25.153669
 51
32.767249
  0
ARC
  5
A4
100
AcDbEntity
  8
0
370
    35
390
0
 62
     7
100
AcDbCircle
 10
594.5
 20
420.5
 30
0.0
 40
68.0
210
0.0
220
0.0
230
1.0
100
AcDbArc
 50
136.221839
 51
144.757089
  0
LINE
  5
A5
100
AcDbEntity
  8
0
370
    35
390
0
 62
     7
 48
0.01254
100
AcDbLine
 10
545.047668
 20
467.901733
 30
0.0
 11
545.402344
 21
467.547028
 31
0.0
210
0.0
220
0.0
230
1.0
  0
LINE
  5
A6
100
AcDbEntity
  8
0
370
    35
390
0
 62
     7
 48
0.0725
100
AcDbLine
 10
547.098267
 20
469.952332
 30
0.0
 11
545.047668
 21
467.901733
 31
0.0
210
0.0
220
0.0
230
1.0
  0
LINE
  5
A7
100
AcDbEntity
  8
0
370
    35
390
0
 62
     7
 48
0.012541
100
AcDbLine
 10
547.453003
 20
469.597626
 30
0.0
 11
547.098267
 21
469.952332
 31
0.0
210
0.0
220
0.0
230
1.0
  0
ARC
  5
A8
100
AcDbEntity
  8
0
370
    35
390
0
 62
     7
100
AcDbCircle
 10
594.5
 20
420.5
 30
0.0
 40
68.0
210
0.0
220
0.0
230
1.0
100
AcDbArc
 50
125.242911
 51
133.778161
  0
ARC
  5
A9
100
AcDbEntity
  8
0
370
    35
390
0
 62
     7
100
AcDbCircle
 10
594.5
 20
537.0
 30
0.0
 40
72.5
210
0.0
220
0.0
230
1.0
100
AcDbArc
 50
237.232746
 51
244.84633
  0
ARC
  5
AA
100
AcDbEntity
  8
0
370
    35
390
0
 62
     7
100
AcDbCircle
 10
563.259033
 20
470.46994
 30
0.0
 40
1.0
210
0.0
220
0.0
230
1.0
100
AcDbArc
 50
337.966011
 51
64.846328
  0
LINE
  5
AB
100
AcDbEntity
  8
0
370
    35
390
0
 62
     7
 48
0.072137
100
AcDbLine
 10
563.103455
 20
467.420074
 30
0.0
 11
564.185974
 21
470.094788
 31
0.0
210
0.0
220
0.0
230
1.0
  0
ARC
  5
AC
100
AcDbEntity
  8
0
370
    35
390
0
 62
     7
100
AcDbCircle
 10
565.884338
 20
466.294586
 30
0.0
 40
3.0
210
0.0
220
0.0
230
1.0
100
AcDbArc
 50
157.966006
 51
337.966011
  0
LINE
  5
AD
100
AcDbEntity
  8
0
370
    35
390
0
 62
     7
 48
0.072137
100
AcDbLine
 10
568.665222
 20
465.169128
 30
0.0
 11
569.747742
 21
467.843842
 31
0.0
210
0.0
220
0.0
230
1.0
  0
ARC
  5
AE
100
AcDbEntity
  8
0
370
    35
390
0
 62
     7
100
AcDbCircle
 10
570.674683
 20
467.468689
 30
0.0
 40
1.0
210
0.0
220
0.0
230
1.0
100
AcDbArc
 50
71.085692
 51
157.966006
  0
ARC
  5
AF
100
AcDbEntity
  8
0
370
    35
390
0
 62
     7
100
AcDbCircle
 10
594.5
 20
537.0
 30
0.0
 40
72.5
210
0.0
220
0.0
230
1.0
100
AcDbArc
 50
251.085687
 51
266.880322
  0
ARC
  5
B0
100
AcDbEntity
  8
0
370
    35
390
0
 62
     7
100
AcDbCircle
 10
590.5
 20
463.608917
 30
0.0
 40
1.0
210
0.0
220
0.0
230
1.0
100
AcDbArc
 50
0.0
 51
86.88032
  0
LINE
  5
B1
100
AcDbEntity
  8
0
370
    35
390
0
 62
     7
 48
0.102723
100
AcDbLine
 10
591.5
 20
459.5
 30
0.0
 11
591.5
 21
463.608917
 31
0.0
210
0.0
220
0.0
230
1.0
  0
ARC
  5
B2
100
AcDbEntity
  8
0
370
    35
390
0
 62
     7
100
AcDbCircle
 10
594.5
 20
459.5
 30
0.0
 40
3.0
210
0.0
220
0.0
230
1.0
100
AcDbArc
 50
180.000005
 51
360.0
  0
LINE
  5
B3
100
AcDbEntity
  8
0
370
    35
390
0
 62
     7
 48
0.102723
100
AcDbLine
 10
597.5
 20
459.5
 30
0.0
 11
597.5
 21
463.608917
 31
0.0
210
0.0
220
0.0
230
1.0
  0
ARC
  5
B4
100
AcDbEntity
  8
0
370
    35
390
0
 62
     7
100
AcDbCircle
 10
598.5
 20
463.608917
 30
0.0
 40
1.0
210
0.0
220
0.0
230
1.0
100
AcDbArc
 50
93.119678
 51
180.000005
  0
ARC
  5
B5
100
AcDbEntity
  8
0
370
    35
390
0
 62
     7
100
AcDbCircle
 10
594.5
 20
537.0
 30
0.0
 40
72.5
210
0.0
220
0.0
230
1.0
100
AcDbArc
 50
273.11968
 51
288.914308
  0
ARC
  5
B6
100
AcDbEntity
  8
0
370
    35
390
0
 62
     7
100
AcDbCircle
 10
618.325317
 20
467.468689
 30
0.0
 40
1.0
210
0.0
220
0.0
230
1.0
100
AcDbArc
 50
22.033989
 51
108.914313
  0
LINE
  5
B7
100
AcDbEntity
  8
0
370
    35
390
0
 62
     7
 48
0.072137
100
AcDbLine
 10
620.334778
 20
465.169128
 30
0.0
 11
619.252258
 21
467.843842
 31
0.0
210
0.0
220
0.0
230
1.0
  0
ARC
  5
B8
100
AcDbEntity
  8
0
370
    35
390
0
 62
     7
100
AcDbCircle
 10
623.115662
 20
466.294586
 30
0.0
 40
3.0
210
0.0
220
0.0
230
1.0
100
AcDbArc
 50
202.033994
 51
22.033989
  0
ARC
  5
B9
100
AcDbEntity
  8
0
370
    35
390
0
 62
     7
100
AcDbCircle
 10
594.5
 20
537.0
 30
0.0
 40
66.5
210
0.0
220
0.0
230
1.0
100
AcDbArc
 50
238.337378
 51
301.662617
  0
CIRCLE
  5
BA
100
AcDbEntity
  8
0
370
    35
390
0
 62
     7
100
AcDbCircle
 10
590.257385
 20
541.242615
 30
0.0
 40
1.1
210
0.0
220
0.0
230
1.0
  0
CIRCLE
  5
BB
100
AcDbEntity
  8
0
370
    35
390
0
 62
     7
100
AcDbCircle
 10
482.242645
 20
416.257355
 30
0.0
 40
1.1
210
0.0
220
0.0
230
1.0
  0
CIRCLE
  5
BC
100
AcDbEntity
  8
0
370
    35
390
0
 62
     7
100
AcDbCircle
 10
473.757355
 20
416.257355
 30
0.0
 40
1.1
210
0.0
220
0.0
230
1.0
  0
CIRCLE
  5
BD
100
AcDbEntity
  8
0
370
    35
390
0
 62
     7
100
AcDbCircle
 10
473.757355
 20
424.742645
 30
0.0
 40
1.1
210
0.0
220
0.0
230
1.0
  0
CIRCLE
  5
BE
100
AcDbEntity
  8
0
370
    35
390
0
 62
     7
100
AcDbCircle
 10
482.242645
 20
424.742645
 30
0.0
 40
1.1
210
0.0
220
0.0
230
1.0
  0
CIRCLE
  5
BF
100
AcDbEntity
  8
0
370
    35
390
0
 62
     7
100
AcDbCircle
 10
478.0
 20
420.5
 30
0.0
 40
3.5
210
0.0
220
0.0
230
1.0
  0
ARC
  5
C0
100
AcDbEntity
  8
0
370
    35
390
0
 62
     7
100
AcDbCircle
 10
594.5
 20
304.0
 30
0.0
 40
66.5
210
0.0
220
0.0
230
1.0
100
AcDbArc
 50
58.337383
 51
121.662622
  0
ARC
  5
C1
100
AcDbEntity
  8
0
370
    35
390
0
 62
     7
100
AcDbCircle
 10
711.0
 20
420.5
 30
0.0
 40
66.5
210
0.0
220
0.0
230
1.0
100
AcDbArc
 50
148.337379
 51
211.662621
  0
CIRCLE
  5
C2
100
AcDbEntity
  8
0
370
    35
390
0
 62
     7
100
AcDbCircle
 10
598.742615
 20
541.242615
 30
0.0
 40
1.1
210
0.0
220
0.0
230
1.0
  0
CIRCLE
  5
C3
100
AcDbEntity
  8
0
370
    35
390
0
 62
     7
100
AcDbCircle
 10
598.742615
 20
532.757385
 30
0.0
 40
1.1
210
0.0
220
0.0
230
1.0
  0
CIRCLE
  5
C4
100
AcDbEntity
  8
0
370
    35
390
0
 62
     7
100
AcDbCircle
 10
590.257385
 20
532.757385
 30
0.0
 40
1.1
210
0.0
220
0.0
230
1.0
  0
CIRCLE
  5
C5
100
AcDbEntity
  8
0
370
    35
390
0
 62
     7
100
AcDbCircle
 10
594.5
 20
304.0
 30
0.0
 40
3.5
210
0.0
220
0.0
230
1.0
  0
CIRCLE
  5
C6
100
AcDbEntity
  8
0
370
    35
390
0
 62
     7
100
AcDbCircle
 10
598.742615
 20
299.757355
 30
0.0
 40
1.1
210
0.0
220
0.0
230
1.0
  0
ARC
  5
C7
100
AcDbEntity
  8
0
370
    35
390
0
 62
     7
100
AcDbCircle
 10
594.5
 20
304.0
 30
0.0
 40
9.0
210
0.0
220
0.0
230
1.0
100
AcDbArc
 50
184.530214
 51
233.813389
  0
ARC
  5
C8
100
AcDbEntity
  8
0
370
    35
390
0
 62
     7
100
AcDbCircle
 10
594.5
 20
304.0
 30
0.0
 40
9.0
210
0.0
220
0.0
230
1.0
100
AcDbArc
 50
233.813389
 51
355.469784
  0
ARC
  5
C9
100
AcDbEntity
  8
0
370
    35
390
0
 62
     7
100
AcDbCircle
 10
656.100586
 20
454.357117
 30
0.0
 40
2.0
210
0.0
220
0.0
230
1.0
100
AcDbArc
 50
36.048208
 51
148.337379
  0
ARC
  5
CA
100
AcDbEntity
  8
0
370
    35
390
0
 62
     7
100
AcDbCircle
 10
717.206421
 20
498.831696
 30
0.0
 40
73.577183
210
0.0
220
0.0
230
1.0
100
AcDbArc
 50
216.048203
 51
257.595158
  0
ARC
  5
CB
100
AcDbEntity
  8
0
370
    35
390
0
 62
     7
100
AcDbCircle
 10
700.971069
 20
425.018921
 30
0.0
 40
2.0
210
0.0
220
0.0
230
1.0
100
AcDbArc
 50
335.744181
 51
77.595156
  0
ARC
  5
CC
100
AcDbEntity
  8
0
370
    35
390
0
 62
     7
100
AcDbCircle
 10
711.0
 20
420.5
 30
0.0
 40
9.0
210
0.0
220
0.0
230
1.0
100
AcDbArc
 50
155.744186
 51
204.255814
  0
ARC
  5
CD
100
AcDbEntity
  8
0
370
    35
390
0
 62
     7
100
AcDbCircle
 10
700.971069
 20
415.981079
 30
0.0
 40
2.0
210
0.0
220
0.0
230
1.0
100
AcDbArc
 50
282.404844
 51
24.255819
  0
ARC
  5
CE
100
AcDbEntity
  8
0
370
    35
390
0
 62
     7
100
AcDbCircle
 10
717.206421
 20
342.168304
 30
0.0
 40
73.577183
210
0.0
220
0.0
230
1.0
100
AcDbArc
 50
102.404842
 51
143.951797
  0
ARC
  5
CF
100
AcDbEntity
  8
0
370
    35
390
0
 62
     7
100
AcDbCircle
 10
656.100586
 20
386.642883
 30
0.0
 40
2.0
210
0.0
220
0.0
230
1.0
100
AcDbArc
 50
211.662621
 51
323.951792
  0
ARC
  5
D0
100
AcDbEntity
  8
0
370
    35
390
0
 62
     7
100
AcDbCircle
 10
599.018921
 20
314.028931
 30
0.0
 40
2.0
210
0.0
220
0.0
230
1.0
100
AcDbArc
 50
245.744179
 51
347.595157
  0
ARC
  5
D1
100
AcDbEntity
  8
0
370
    35
390
0
 62
     7
100
AcDbCircle
 10
594.5
 20
304.0
 30
0.0
 40
9.0
210
0.0
220
0.0
230
1.0
100
AcDbArc
 50
65.744184
 51
114.255821
  0
ARC
  5
D2
100
AcDbEntity
  8
0
370
    35
390
0
 62
     7
100
AcDbCircle
 10
589.981079
 20
314.028931
 30
0.0
 40
2.0
210
0.0
220
0.0
230
1.0
100
AcDbArc
 50
192.404848
 51
294.255816
  0
ARC
  5
D3
100
AcDbEntity
  8
0
370
    35
390
0
 62
     7
100
AcDbCircle
 10
516.168335
 20
297.793579
 30
0.0
 40
73.577183
210
0.0
220
0.0
230
1.0
100
AcDbArc
 50
12.404843
 51
53.951791
  0
ARC
  5
D4
100
AcDbEntity
  8
0
370
    35
390
0
 62
     7
100
AcDbCircle
 10
560.642883
 20
358.899414
 30
0.0
 40
2.0
210
0.0
220
0.0
230
1.0
100
AcDbArc
 50
121.662622
 51
233.951796
  0
ARC
  5
D5
100
AcDbEntity
  8
0
370
    35
390
0
 62
     7
100
AcDbCircle
 10
672.831665
 20
297.793579
 30
0.0
 40
73.577183
210
0.0
220
0.0
230
1.0
100
AcDbArc
 50
126.048204
 51
167.595152
  0
ARC
  5
D6
100
AcDbEntity
  8
0
370
    35
390
0
 62
     7
100
AcDbCircle
 10
628.357117
 20
358.899414
 30
0.0
 40
2.0
210
0.0
220
0.0
230
1.0
100
AcDbArc
 50
306.048209
 51
58.337383
  0
ARC
  5
D7
100
AcDbEntity
  8
0
370
    35
390
0
 62
     7
100
AcDbCircle
 10
532.899414
 20
386.642883
 30
0.0
 40
2.0
210
0.0
220
0.0
230
1.0
100
AcDbArc
 50
216.048203
 51
328.337384
  0
ARC
  5
D8
100
AcDbEntity
  8
0
370
    35
390
0
 62
     7
100
AcDbCircle
 10
532.899414
 20
454.357117
 30
0.0
 40
2.0
210
0.0
220
0.0
230
1.0
100
AcDbArc
 50
31.662616
 51
143.951797
  0
ARC
  5
D9
100
AcDbEntity
  8
0
370
    35
390
0
 62
     7
100
AcDbCircle
 10
471.793579
 20
498.831696
 30
0.0
 40
73.577183
210
0.0
220
0.0
230
1.0
100
AcDbArc
 50
282.404844
 51
323.951792
  0
ARC
  5
DA
100
AcDbEntity
  8
0
370
    35
390
0
 62
     7
100
AcDbCircle
 10
488.028931
 20
425.018921
 30
0.0
 40
2.0
210
0.0
220
0.0
230
1.0
100
AcDbArc
 50
102.404842
 51
204.255814
  0
ARC
  5
DB
100
AcDbEntity
  8
0
370
    35
390
0
 62
     7
100
AcDbCircle
 10
471.793579
 20
342.168304
 30
0.0
 40
73.577183
210
0.0
220
0.0
230
1.0
100
AcDbArc
 50
36.048208
 51
77.595156
  0
ARC
  5
DC
100
AcDbEntity
  8
0
370
    35
390
0
 62
     7
100
AcDbCircle
 10
478.0
 20
420.5
 30
0.0
 40
9.0
210
0.0
220
0.0
230
1.0
100
AcDbArc
 50
335.744181
 51
24.255819
  0
ARC
  5
DD
100
AcDbEntity
  8
0
370
    35
390
0
 62
     7
100
AcDbCircle
 10
488.028931
 20
415.981079
 30
0.0
 40
2.0
210
0.0
220
0.0
230
1.0
100
AcDbArc
 50
155.744186
 51
257.595158
  0
ARC
  5
DE
100
AcDbEntity
  8
0
370
    35
390
0
 62
     7
100
AcDbCircle
 10
560.642883
 20
482.100586
 30
0.0
 40
2.0
210
0.0
220
0.0
230
1.0
100
AcDbArc
 50
126.048204
 51
238.337378
  0
ARC
  5
DF
100
AcDbEntity
  8
0
370
    35
390
0
 62
     7
100
AcDbCircle
 10
516.168335
 20
543.206421
 30
0.0
 40
73.577183
210
0.0
220
0.0
230
1.0
100
AcDbArc
 50
306.048209
 51
347.595157
  0
ARC
  5
E0
100
AcDbEntity
  8
0
370
    35
390
0
 62
     7
100
AcDbCircle
 10
589.981079
 20
526.971069
 30
0.0
 40
2.0
210
0.0
220
0.0
230
1.0
100
AcDbArc
 50
65.744184
 51
167.595152
  0
ARC
  5
E1
100
AcDbEntity
  8
0
370
    35
390
0
 62
     7
100
AcDbCircle
 10
594.5
 20
537.0
 30
0.0
 40
9.0
210
0.0
220
0.0
230
1.0
100
AcDbArc
 50
245.744179
 51
294.255816
  0
ARC
  5
E2
100
AcDbEntity
  8
0
370
    35
390
0
 62
     7
100
AcDbCircle
 10
599.018921
 20
526.971069
 30
0.0
 40
2.0
210
0.0
220
0.0
230
1.0
100
AcDbArc
 50
12.404843
 51
114.255821
  0
ARC
  5
E3
100
AcDbEntity
  8
0
370
    35
390
0
 62
     7
100
AcDbCircle
 10
628.357117
 20
482.100586
 30
0.0
 40
2.0
210
0.0
220
0.0
230
1.0
100
AcDbArc
 50
301.662617
 51
53.951791
  0
ARC
  5
E4
100
AcDbEntity
  8
0
370
    35
390
0
 62
     7
100
AcDbCircle
 10
672.831665
 20
543.206421
 30
0.0
 40
73.577183
210
0.0
220
0.0
230
1.0
100
AcDbArc
 50
192.404848
 51
233.951796
  0
ARC
  5
E5
100
AcDbEntity
  8
0
370
    35
390
0
 62
     7
100
AcDbCircle
 10
596.296631
 20
518.659302
 30
0.0
 40
0.5
210
0.0
220
0.0
230
1.0
100
AcDbArc
 50
160.528775
 51
269.999997
  0
ARC
  5
E6
100
AcDbEntity
  8
0
370
    35
390
0
 62
     7
100
AcDbCircle
 10
597.710876
 20
518.159302
 30
0.0
 40
2.0
210
0.0
220
0.0
230
1.0
100
AcDbArc
 50
0.0
 51
160.528775
  0
ARC
  5
E7
100
AcDbEntity
  8
0
370
    35
390
0
 62
     7
100
AcDbCircle
 10
591.310852
 20
518.159302
 30
0.0
 40
2.0
210
0.0
220
0.0
230
1.0
100
AcDbArc
 50
19.471222
 51
180.000005
  0
ARC
  5
E8
100
AcDbEntity
  8
0
370
    35
390
0
 62
     7
100
AcDbCircle
 10
592.725098
 20
518.659302
 30
0.0
 40
0.5
210
0.0
220
0.0
230
1.0
100
AcDbArc
 50
269.999997
 51
19.471222
  0
LINE
  5
E9
100
AcDbEntity
  8
0
370
    35
390
0
 62
     7
 48
0.051688
100
AcDbLine
 10
592.443359
 20
475.259308
 30
0.0
 11
594.510864
 21
475.259308
 31
0.0
210
0.0
220
0.0
230
1.0
  0
ARC
  5
EA
100
AcDbEntity
  8
0
370
    35
390
0
 62
     7
100
AcDbCircle
 10
592.443359
 20
476.259308
 30
0.0
 40
1.0
210
0.0
220
0.0
230
1.0
100
AcDbArc
 50
184.0
 51
269.999997
  0
LINE
  5
EB
100
AcDbEntity
  8
0
370
    35
390
0
 62
     7
 48
0.051688
100
AcDbLine
 10
596.578369
 20
475.259308
 30
0.0
 11
594.510864
 21
475.259308
 31
0.0
210
0.0
220
0.0
230
1.0
  0
ARC
  5
EC
100
AcDbEntity
  8
0
370
    35
390
0
 62
     7
100
AcDbCircle
 10
596.578369
 20
476.259308
 30
0.0
 40
1.0
210
0.0
220
0.0
230
1.0
100
AcDbArc
 50
269.999997
 51
356.0
  0
LINE
  5
ED
100
AcDbEntity
  8
0
370
    35
390
0
 62
     7
 48
0.198661
100
AcDbLine
 10
599.710876
 20
510.21286
 30
0.0
 11
599.710876
 21
518.159302
 31
0.0
210
0.0
220
0.0
230
1.0
  0
LINE
  5
EE
100
AcDbEntity
  8
0
370
    35
390
0
 62
     7
100
AcDbLine
 10
599.467285
 20
503.237213
 30
0.0
 11
597.575928
 21
476.189545
 31
0.0
210
0.0
220
0.0
230
1.0
  0
ARC
  5
EF
100
AcDbEntity
  8
0
370
    35
390
0
 62
     7
100
AcDbCircle
 10
499.710876
 20
510.21286
 30
0.0
 40
100.0
210
0.0
220
0.0
230
1.0
100
AcDbArc
 50
356.0
 51
360.0
  0
LINE
  5
F0
100
AcDbEntity
  8
0
370
    35
390
0
 62
     7
 48
0.198661
100
AcDbLine
 10
589.310852
 20
510.21286
 30
0.0
 11
589.310852
 21
518.159302
 31
0.0
210
0.0
220
0.0
230
1.0
  0
LINE
  5
F1
100
AcDbEntity
  8
0
370
    35
390
0
 62
     7
100
AcDbLine
 10
589.554443
 20
503.237213
 30
0.0
 11
591.445801
 21
476.189545
 31
0.0
210
0.0
220
0.0
230
1.0
  0
ARC
  5
F2
100
AcDbEntity
  8
0
370
    35
390
0
 62
     7
100
AcDbCircle
 10
689.310852
 20
510.21286
 30
0.0
 40
100.0
210
0.0
220
0.0
230
1.0
100
AcDbArc
 50
180.000005
 51
184.0
  0
LINE
  5
F3
100
AcDbEntity
  8
0
370
    35
390
0
 62
     7
 48
0.2725
100
AcDbLine
 10
592.310852
 20
507.259308
 30
0.0
 11
592.310852
 21
518.159302
 31
0.0
210
0.0
220
0.0
230
1.0
  0
LINE
  5
F4
100
AcDbEntity
  8
0
370
    35
390
0
 62
     7
 48
0.2725
100
AcDbLine
 10
596.710876
 20
507.259308
 30
0.0
 11
596.710876
 21
518.159302
 31
0.0
210
0.0
220
0.0
230
1.0
  0
LINE
  5
F5
100
AcDbEntity
  8
0
370
    35
390
0
 62
     7
 48
0.010356
100
AcDbLine
 10
596.710876
 20
518.159302
 30
0.0
 11
596.296631
 21
518.159302
 31
0.0
210
0.0
220
0.0
230
1.0
  0
LINE
  5
F6
100
AcDbEntity
  8
0
370
    35
390
0
 62
     7
 48
0.010356
100
AcDbLine
 10
592.310852
 20
518.159302
 30
0.0
 11
592.725098
 21
518.159302
 31
0.0
210
0.0
220
0.0
230
1.0
  0
ARC
  5
F7
100
AcDbEntity
  8
0
370
    35
390
0
 62
     7
100
AcDbCircle
 10
596.210876
 20
507.259308
 30
0.0
 40
0.5
210
0.0
220
0.0
230
1.0
100
AcDbArc
 50
179.999995
 51
0.0
  0
ARC
  5
F8
100
AcDbEntity
  8
0
370
    35
390
0
 62
     7
100
AcDbCircle
 10
592.810852
 20
507.259308
 30
0.0
 40
0.5
210
0.0
220
0.0
230
1.0
100
AcDbArc
 50
179.999995
 51
0.0
  0
LINE
  5
F9
100
AcDbEntity
  8
0
370
    35
390
0
 62
     7
 48
0.0175
100
AcDbLine
 10
594.510864
 20
515.259277
 30
0.0
 11
595.210876
 21
515.259277
 31
0.0
210
0.0
220
0.0
230
1.0
  0
LINE
  5
FA
100
AcDbEntity
  8
0
370
    35
390
0
 62
     7
 48
0.187499
100
AcDbLine
 10
595.710876
 20
514.759277
 30
0.0
 11
595.710876
 21
507.259308
 31
0.0
210
0.0
220
0.0
230
1.0
  0
ARC
  5
FB
100
AcDbEntity
  8
0
370
    35
390
0
 62
     7
100
AcDbCircle
 10
595.210876
 20
514.759277
 30
0.0
 40
0.5
210
0.0
220
0.0
230
1.0
100
AcDbArc
 50
0.0
 51
90.000003
  0
LINE
  5
FC
100
AcDbEntity
  8
0
370
    35
390
0
 62
     7
 48
0.0175
100
AcDbLine
 10
594.510864
 20
515.259277
 30
0.0
 11
593.810852
 21
515.259277
 31
0.0
210
0.0
220
0.0
230
1.0
  0
LINE
  5
FD
100
AcDbEntity
  8
0
370
    35
390
0
 62
     7
 48
0.187499
100
AcDbLine
 10
593.310852
 20
514.759277
 30
0.0
 11
593.310852
 21
507.259308
 31
0.0
210
0.0
220
0.0
230
1.0
  0
ARC
  5
FE
100
AcDbEntity
  8
0
370
    35
390
0
 62
     7
100
AcDbCircle
 10
593.810852
 20
514.759277
 30
0.0
 40
0.5
210
0.0
220
0.0
230
1.0
100
AcDbArc
 50
90.000003
 51
180.000005
  0
ARC
  5
FF
100
AcDbEntity
  8
0
370
    35
390
0
 62
     7
100
AcDbCircle
 10
595.89032
 20
502.259308
 30
0.0
 40
1.0
210
0.0
220
0.0
230
1.0
100
AcDbArc
 50
356.0
 51
90.000003
  0
LINE
  5
100
100
AcDbEntity
  8
0
370
    35
390
0
 62
     7
 48
0.068973
100
AcDbLine
 10
595.89032
 20
503.259308
 30
0.0
 11
593.131409
 21
503.259308
 31
0.0
210
0.0
220
0.0
230
1.0
  0
ARC
  5
101
100
AcDbEntity
  8
0
370
    35
390
0
 62
     7
100
AcDbCircle
 10
593.131409
 20
502.259308
 30
0.0
 40
1.0
210
0.0
220
0.0
230
1.0
100
AcDbArc
 50
90.000003
 51
184.0
  0
LINE
  5
102
100
AcDbEntity
  8
0
370
    35
390
0
 62
     7
 48
0.49439
100
AcDbLine
 10
592.13385
 20
502.189545
 30
0.0
 11
593.513306
 21
482.462097
 31
0.0
210
0.0
220
0.0
230
1.0
  0
ARC
  5
103
100
AcDbEntity
  8
0
370
    35
390
0
 62
     7
100
AcDbCircle
 10
594.510864
 20
482.53186
 30
0.0
 40
1.0
210
0.0
220
0.0
230
1.0
100
AcDbArc
 50
184.0
 51
356.0
  0
LINE
  5
104
100
AcDbEntity
  8
0
370
    35
390
0
 62
     7
 48
0.49439
100
AcDbLine
 10
595.508423
 20
482.462097
 30
0.0
 11
596.887878
 21
502.189545
 31
0.0
210
0.0
220
0.0
230
1.0
  0
ARC
  5
105
100
AcDbEntity
  8
0
370
    35
390
0
 62
     7
100
AcDbCircle
 10
693.32135
 20
419.159302
 30
0.0
 40
0.5
210
0.0
220
0.0
230
1.0
100
AcDbArc
 50
70.528779
 51
179.999995
  0
ARC
  5
106
100
AcDbEntity
  8
0
370
    35
390
0
 62
     7
100
AcDbCircle
 10
692.82135
 20
417.745087
 30
0.0
 40
2.0
210
0.0
220
0.0
230
1.0
100
AcDbArc
 50
269.999997
 51
70.528779
  0
ARC
  5
107
100
AcDbEntity
  8
0
370
    35
390
0
 62
     7
100
AcDbCircle
 10
692.82135
 20
424.145111
 30
0.0
 40
2.0
210
0.0
220
0.0
230
1.0
100
AcDbArc
 50
289.471221
 51
90.000003
  0
ARC
  5
108
100
AcDbEntity
  8
0
370
    35
390
0
 62
     7
100
AcDbCircle
 10
693.32135
 20
422.730896
 30
0.0
 40
0.5
210
0.0
220
0.0
230
1.0
100
AcDbArc
 50
180.000005
 51
289.471221
  0
LINE
  5
109
100
AcDbEntity
  8
0
370
    35
390
0
 62
     7
 48
0.051687
100
AcDbLine
 10
649.921326
 20
423.012573
 30
0.0
 11
649.921326
 21
420.945099
 31
0.0
210
0.0
220
0.0
230
1.0
  0
ARC
  5
10A
100
AcDbEntity
  8
0
370
    35
390
0
 62
     7
100
AcDbCircle
 10
650.921326
 20
423.012573
 30
0.0
 40
1.0
210
0.0
220
0.0
230
1.0
100
AcDbArc
 50
94.0
 51
180.000005
  0
LINE
  5
10B
100
AcDbEntity
  8
0
370
    35
390
0
 62
     7
 48
0.051687
100
AcDbLine
 10
649.921326
 20
418.877625
 30
0.0
 11
649.921326
 21
420.945099
 31
0.0
210
0.0
220
0.0
230
1.0
  0
ARC
  5
10C
100
AcDbEntity
  8
0
370
    35
390
0
 62
     7
100
AcDbCircle
 10
650.921326
 20
418.877625
 30
0.0
 40
1.0
210
0.0
220
0.0
230
1.0
100
AcDbArc
 50
180.000005
 51
266.0
  0
LINE
  5
10D
100
AcDbEntity
  8
0
370
    35
390
0
 62
     7
 48
0.198662
100
AcDbLine
 10
684.874878
 20
415.745087
 30
0.0
 11
692.82135
 21
415.745087
 31
0.0
210
0.0
220
0.0
230
1.0
  0
LINE
  5
10E
100
AcDbEntity
  8
0
370
    35
390
0
 62
     7
100
AcDbLine
 10
677.899231
 20
415.988708
 30
0.0
 11
650.851563
 21
417.880035
 31
0.0
210
0.0
220
0.0
230
1.0
  0
ARC
  5
10F
100
AcDbEntity
  8
0
370
    35
390
0
 62
     7
100
AcDbCircle
 10
684.874878
 20
515.745117
 30
0.0
 40
100.0
210
0.0
220
0.0
230
1.0
100
AcDbArc
 50
266.0
 51
269.999997
  0
LINE
  5
110
100
AcDbEntity
  8
0
370
    35
390
0
 62
     7
 48
0.198662
100
AcDbLine
 10
684.874878
 20
426.145111
 30
0.0
 11
692.82135
 21
426.145111
 31
0.0
210
0.0
220
0.0
230
1.0
  0
LINE
  5
111
100
AcDbEntity
  8
0
370
    35
390
0
 62
     7
100
AcDbLine
 10
677.899231
 20
425.901489
 30
0.0
 11
650.851563
 21
424.010162
 31
0.0
210
0.0
220
0.0
230
1.0
  0
ARC
  5
112
100
AcDbEntity
  8
0
370
    35
390
0
 62
     7
100
AcDbCircle
 10
684.874878
 20
326.145081
 30
0.0
 40
100.0
210
0.0
220
0.0
230
1.0
100
AcDbArc
 50
90.000003
 51
94.0
  0
LINE
  5
113
100
AcDbEntity
  8
0
370
    35
390
0
 62
     7
 48
0.272501
100
AcDbLine
 10
681.921326
 20
423.145111
 30
0.0
 11
692.82135
 21
423.145111
 31
0.0
210
0.0
220
0.0
230
1.0
  0
LINE
  5
114
100
AcDbEntity
  8
0
370
    35
390
0
 62
     7
 48
0.272501
100
AcDbLine
 10
681.921326
 20
418.745087
 30
0.0
 11
692.82135
 21
418.745087
 31
0.0
210
0.0
220
0.0
230
1.0
  0
LINE
  5
115
100
AcDbEntity
  8
0
370
    35
390
0
 62
     7
 48
0.010355
100
AcDbLine
 10
692.82135
 20
418.745087
 30
0.0
 11
692.82135
 21
419.159302
 31
0.0
210
0.0
220
0.0
230
1.0
  0
LINE
  5
116
100
AcDbEntity
  8
0
370
    35
390
0
 62
     7
 48
0.010355
100
AcDbLine
 10
692.82135
 20
423.145111
 30
0.0
 11
692.82135
 21
422.730896
 31
0.0
210
0.0
220
0.0
230
1.0
  0
ARC
  5
117
100
AcDbEntity
  8
0
370
    35
390
0
 62
     7
100
AcDbCircle
 10
681.921326
 20
419.245087
 30
0.0
 40
0.5
210
0.0
220
0.0
230
1.0
100
AcDbArc
 50
90.000003
 51
269.999997
  0
ARC
  5
118
100
AcDbEntity
  8
0
370
    35
390
0
 62
     7
100
AcDbCircle
 10
681.921326
 20
422.645111
 30
0.0
 40
0.5
210
0.0
220
0.0
230
1.0
100
AcDbArc
 50
90.000003
 51
269.999997
  0
LINE
  5
119
100
AcDbEntity
  8
0
370
    35
390
0
 62
     7
 48
0.0175
100
AcDbLine
 10
689.921326
 20
420.945099
 30
0.0
 11
689.921326
 21
420.245087
 31
0.0
210
0.0
220
0.0
230
1.0
  0
LINE
  5
11A
100
AcDbEntity
  8
0
370
    35
390
0
 62
     7
 48
0.1875
100
AcDbLine
 10
689.421326
 20
419.745087
 30
0.0
 11
681.921326
 21
419.745087
 31
0.0
210
0.0
220
0.0
230
1.0
  0
ARC
  5
11B
100
AcDbEntity
  8
0
370
    35
390
0
 62
     7
100
AcDbCircle
 10
689.421326
 20
420.245087
 30
0.0
 40
0.5
210
0.0
220
0.0
230
1.0
100
AcDbArc
 50
269.999997
 51
360.0
  0
LINE
  5
11C
100
AcDbEntity
  8
0
370
    35
390
0
 62
     7
 48
0.0175
100
AcDbLine
 10
689.921326
 20
420.945099
 30
0.0
 11
689.921326
 21
421.645111
 31
0.0
210
0.0
220
0.0
230
1.0
  0
LINE
  5
11D
100
AcDbEntity
  8
0
370
    35
390
0
 62
     7
 48
0.1875
100
AcDbLine
 10
689.421326
 20
422.145111
 30
0.0
 11
681.921326
 21
422.145111
 31
0.0
210
0.0
220
0.0
230
1.0
  0
ARC
  5
11E
100
AcDbEntity
  8
0
370
    35
390
0
 62
     7
100
AcDbCircle
 10
689.421326
 20
421.645111
 30
0.0
 40
0.5
210
0.0
220
0.0
230
1.0
100
AcDbArc
 50
0.0
 51
90.000003
  0
ARC
  5
11F
100
AcDbEntity
  8
0
370
    35
390
0
 62
     7
100
AcDbCircle
 10
676.921326
 20
419.565613
 30
0.0
 40
1.0
210
0.0
220
0.0
230
1.0
100
AcDbArc
 50
266.0
 51
0.0
  0
LINE
  5
120
100
AcDbEntity
  8
0
370
    35
390
0
 62
     7
 48
0.068974
100
AcDbLine
 10
677.921326
 20
419.565613
 30
0.0
 11
677.921326
 21
422.324585
 31
0.0
210
0.0
220
0.0
230
1.0
  0
ARC
  5
121
100
AcDbEntity
  8
0
370
    35
390
0
 62
     7
100
AcDbCircle
 10
676.921326
 20
422.324585
 30
0.0
 40
1.0
210
0.0
220
0.0
230
1.0
100
AcDbArc
 50
360.0
 51
94.0
  0
LINE
  5
122
100
AcDbEntity
  8
0
370
    35
390
0
 62
     7
 48
0.49439
100
AcDbLine
 10
676.851563
 20
423.322144
 30
0.0
 11
657.124146
 21
421.942657
 31
0.0
210
0.0
220
0.0
230
1.0
  0
ARC
  5
123
100
AcDbEntity
  8
0
370
    35
390
0
 62
     7
100
AcDbCircle
 10
657.193909
 20
420.945099
 30
0.0
 40
1.0
210
0.0
220
0.0
230
1.0
100
AcDbArc
 50
94.0
 51
266.0
  0
LINE
  5
124
100
AcDbEntity
  8
0
370
    35
390
0
 62
     7
 48
0.49439
100
AcDbLine
 10
657.124146
 20
419.94754
 30
0.0
 11
676.851563
 21
418.568054
 31
0.0
210
0.0
220
0.0
230
1.0
  0
ARC
  5
125
100
AcDbEntity
  8
0
370
    35
390
0
 62
     7
100
AcDbCircle
 10
496.424774
 20
422.361053
 30
0.0
 40
0.5
210
0.0
220
0.0
230
1.0
100
AcDbArc
 50
250.528781
 51
0.0
  0
ARC
  5
126
100
AcDbEntity
  8
0
370
    35
390
0
 62
     7
100
AcDbCircle
 10
496.924774
 20
423.775269
 30
0.0
 40
2.0
210
0.0
220
0.0
230
1.0
100
AcDbArc
 50
90.000003
 51
250.528781
  0
ARC
  5
127
100
AcDbEntity
  8
0
370
    35
390
0
 62
     7
100
AcDbCircle
 10
496.924774
 20
417.375244
 30
0.0
 40
2.0
210
0.0
220
0.0
230
1.0
100
AcDbArc
 50
109.471219
 51
269.999997
  0
ARC
  5
128
100
AcDbEntity
  8
0
370
    35
390
0
 62
     7
100
AcDbCircle
 10
496.424774
 20
418.789459
 30
0.0
 40
0.5
210
0.0
220
0.0
230
1.0
100
AcDbArc
 50
360.0
 51
109.471219
  0
LINE
  5
129
100
AcDbEntity
  8
0
370
    35
390
0
 62
     7
 48
0.051687
100
AcDbLine
 10
539.824768
 20
418.507782
 30
0.0
 11
539.824768
 21
420.575256
 31
0.0
210
0.0
220
0.0
230
1.0
  0
ARC
  5
12A
100
AcDbEntity
  8
0
370
    35
390
0
 62
     7
100
AcDbCircle
 10
538.824768
 20
418.507782
 30
0.0
 40
1.0
210
0.0
220
0.0
230
1.0
100
AcDbArc
 50
274.000002
 51
360.0
  0
LINE
  5
12B
100
AcDbEntity
  8
0
370
    35
390
0
 62
     7
 48
0.051687
100
AcDbLine
 10
539.824768
 20
422.642731
 30
0.0
 11
539.824768
 21
420.575256
 31
0.0
210
0.0
220
0.0
230
1.0
  0
ARC
  5
12C
100
AcDbEntity
  8
0
370
    35
390
0
 62
     7
100
AcDbCircle
 10
538.824768
 20
422.642731
 30
0.0
 40
1.0
210
0.0
220
0.0
230
1.0
100
AcDbArc
 50
0.0
 51
85.999998
  0
LINE
  5
12D
100
AcDbEntity
  8
0
370
    35
390
0
 62
     7
 48
0.198661
100
AcDbLine
 10
504.871216
 20
425.775269
 30
0.0
 11
496.924774
 21
425.775269
 31
0.0
210
0.0
220
0.0
230
1.0
  0
LINE
  5
12E
100
AcDbEntity
  8
0
370
    35
390
0
 62
     7
100
AcDbLine
 10
511.846863
 20
425.531647
 30
0.0
 11
538.894531
 21
423.64032
 31
0.0
210
0.0
220
0.0
230
1.0
  0
ARC
  5
12F
100
AcDbEntity
  8
0
370
    35
390
0
 62
     7
100
AcDbCircle
 10
504.871216
 20
325.775269
 30
0.0
 40
100.0
210
0.0
220
0.0
230
1.0
100
AcDbArc
 50
85.999998
 51
90.000003
  0
LINE
  5
130
100
AcDbEntity
  8
0
370
    35
390
0
 62
     7
 48
0.198661
100
AcDbLine
 10
504.871216
 20
415.375244
 30
0.0
 11
496.924774
 21
415.375244
 31
0.0
210
0.0
220
0.0
230
1.0
  0
LINE
  5
131
100
AcDbEntity
  8
0
370
    35
390
0
 62
     7
100
AcDbLine
 10
511.846863
 20
415.618866
 30
0.0
 11
538.894531
 21
417.510193
 31
0.0
210
0.0
220
0.0
230
1.0
  0
ARC
  5
132
100
AcDbEntity
  8
0
370
    35
390
0
 62
     7
100
AcDbCircle
 10
504.871216
 20
515.375244
 30
0.0
 40
100.0
210
0.0
220
0.0
230
1.0
100
AcDbArc
 50
269.999997
 51
274.000002
  0
LINE
  5
133
100
AcDbEntity
  8
0
370
    35
390
0
 62
     7
 48
0.2725
100
AcDbLine
 10
507.824768
 20
418.375244
 30
0.0
 11
496.924774
 21
418.375244
 31
0.0
210
0.0
220
0.0
230
1.0
  0
LINE
  5
134
100
AcDbEntity
  8
0
370
    35
390
0
 62
     7
 48
0.2725
100
AcDbLine
 10
507.824768
 20
422.775269
 30
0.0
 11
496.924774
 21
422.775269
 31
0.0
210
0.0
220
0.0
230
1.0
  0
LINE
  5
135
100
AcDbEntity
  8
0
370
    35
390
0
 62
     7
 48
0.010355
100
AcDbLine
 10
496.924774
 20
422.775269
 30
0.0
 11
496.924774
 21
422.361053
 31
0.0
210
0.0
220
0.0
230
1.0
  0
LINE
  5
136
100
AcDbEntity
  8
0
370
    35
390
0
 62
     7
 48
0.010355
100
AcDbLine
 10
496.924774
 20
418.375244
 30
0.0
 11
496.924774
 21
418.789459
 31
0.0
210
0.0
220
0.0
230
1.0
  0
ARC
  5
137
100
AcDbEntity
  8
0
370
    35
390
0
 62
     7
100
AcDbCircle
 10
507.824768
 20
422.275269
 30
0.0
 40
0.5
210
0.0
220
0.0
230
1.0
100
AcDbArc
 50
269.999997
 51
90.000003
  0
ARC
  5
138
100
AcDbEntity
  8
0
370
    35
390
0
 62
     7
100
AcDbCircle
 10
507.824768
 20
418.875244
 30
0.0
 40
0.5
210
0.0
220
0.0
230
1.0
100
AcDbArc
 50
269.999997
 51
90.000003
  0
LINE
  5
139
100
AcDbEntity
  8
0
370
    35
390
0
 62
     7
 48
0.0175
100
AcDbLine
 10
499.824768
 20
420.575256
 30
0.0
 11
499.824768
 21
421.275269
 31
0.0
210
0.0
220
0.0
230
1.0
  0
LINE
  5
13A
100
AcDbEntity
  8
0
370
    35
390
0
 62
     7
 48
0.1875
100
AcDbLine
 10
500.324768
 20
421.775269
 30
0.0
 11
507.824768
 21
421.775269
 31
0.0
210
0.0
220
0.0
230
1.0
  0
ARC
  5
13B
100
AcDbEntity
  8
0
370
    35
390
0
 62
     7
100
AcDbCircle
 10
500.324768
 20
421.275269
 30
0.0
 40
0.5
210
0.0
220
0.0
230
1.0
100
AcDbArc
 50
90.000003
 51
180.000005
  0
LINE
  5
13C
100
AcDbEntity
  8
0
370
    35
390
0
 62
     7
 48
0.0175
100
AcDbLine
 10
499.824768
 20
420.575256
 30
0.0
 11
499.824768
 21
419.875244
 31
0.0
210
0.0
220
0.0
230
1.0
  0
LINE
  5
13D
100
AcDbEntity
  8
0
370
    35
390
0
 62
     7
 48
0.1875
100
AcDbLine
 10
500.324768
 20
419.375244
 30
0.0
 11
507.824768
 21
419.375244
 31
0.0
210
0.0
220
0.0
230
1.0
  0
ARC
  5
13E
100
AcDbEntity
  8
0
370
    35
390
0
 62
     7
100
AcDbCircle
 10
500.324768
 20
419.875244
 30
0.0
 40
0.5
210
0.0
220
0.0
230
1.0
100
AcDbArc
 50
180.000005
 51
269.999997
  0
ARC
  5
13F
100
AcDbEntity
  8
0
370
    35
390
0
 62
     7
100
AcDbCircle
 10
512.824768
 20
421.954742
 30
0.0
 40
1.0
210
0.0
220
0.0
230
1.0
100
AcDbArc
 50
85.999998
 51
179.999995
  0
LINE
  5
140
100
AcDbEntity
  8
0
370
    35
390
0
 62
     7
 48
0.068974
100
AcDbLine
 10
511.824768
 20
421.954742
 30
0.0
 11
511.824768
 21
419.19577
 31
0.0
210
0.0
220
0.0
230
1.0
  0
ARC
  5
141
100
AcDbEntity
  8
0
370
    35
390
0
 62
     7
100
AcDbCircle
 10
512.824768
 20
419.19577
 30
0.0
 40
1.0
210
0.0
220
0.0
230
1.0
100
AcDbArc
 50
180.000005
 51
274.000002
  0
LINE
  5
142
100
AcDbEntity
  8
0
370
    35
390
0
 62
     7
 48
0.49439
100
AcDbLine
 10
512.894531
 20
418.198212
 30
0.0
 11
532.621948
 21
419.577698
 31
0.0
210
0.0
220
0.0
230
1.0
  0
ARC
  5
143
100
AcDbEntity
  8
0
370
    35
390
0
 62
     7
100
AcDbCircle
 10
532.552185
 20
420.575256
 30
0.0
 40
1.0
210
0.0
220
0.0
230
1.0
100
AcDbArc
 50
274.000002
 51
85.999998
  0
LINE
  5
144
100
AcDbEntity
  8
0
370
    35
390
0
 62
     7
 48
0.49439
100
AcDbLine
 10
532.621948
 20
421.572815
 30
0.0
 11
512.894531
 21
422.952301
 31
0.0
210
0.0
220
0.0
230
1.0
  0
ARC
  5
145
100
AcDbEntity
  8
0
370
    35
390
0
 62
     7
100
AcDbCircle
 10
592.889648
 20
320.751984
 30
0.0
 40
0.5
210
0.0
220
0.0
230
1.0
100
AcDbArc
 50
340.528778
 51
90.000003
  0
ARC
  5
146
100
AcDbEntity
  8
0
370
    35
390
0
 62
     7
100
AcDbCircle
 10
591.475403
 20
321.251984
 30
0.0
 40
2.0
210
0.0
220
0.0
230
1.0
100
AcDbArc
 50
180.000005
 51
340.528778
  0
ARC
  5
147
100
AcDbEntity
  8
0
370
    35
390
0
 62
     7
100
AcDbCircle
 10
597.875427
 20
321.251984
 30
0.0
 40
2.0
210
0.0
220
0.0
230
1.0
100
AcDbArc
 50
199.471225
 51
360.0
  0
ARC
  5
148
100
AcDbEntity
  8
0
370
    35
390
0
 62
     7
100
AcDbCircle
 10
596.461182
 20
320.751984
 30
0.0
 40
0.5
210
0.0
220
0.0
230
1.0
100
AcDbArc
 50
90.000003
 51
199.471225
  0
LINE
  5
149
100
AcDbEntity
  8
0
370
    35
390
0
 62
     7
 48
0.051688
100
AcDbLine
 10
596.74292
 20
364.151978
 30
0.0
 11
594.675415
 21
364.151978
 31
0.0
210
0.0
220
0.0
230
1.0
  0
ARC
  5
14A
100
AcDbEntity
  8
0
370
    35
390
0
 62
     7
100
AcDbCircle
 10
596.74292
 20
363.151978
 30
0.0
 40
1.0
210
0.0
220
0.0
230
1.0
100
AcDbArc
 50
4.0
 51
90.000003
  0
LINE
  5
14B
100
AcDbEntity
  8
0
370
    35
390
0
 62
     7
 48
0.051688
100
AcDbLine
 10
592.60791
 20
364.151978
 30
0.0
 11
594.675415
 21
364.151978
 31
0.0
210
0.0
220
0.0
230
1.0
  0
ARC
  5
14C
100
AcDbEntity
  8
0
370
    35
390
0
 62
     7
100
AcDbCircle
 10
592.60791
 20
363.151978
 30
0.0
 40
1.0
210
0.0
220
0.0
230
1.0
100
AcDbArc
 50
90.000003
 51
176.0
  0
LINE
  5
14D
100
AcDbEntity
  8
0
370
    35
390
0
 62
     7
 48
0.198661
100
AcDbLine
 10
589.475403
 20
329.198425
 30
0.0
 11
589.475403
 21
321.251984
 31
0.0
210
0.0
220
0.0
230
1.0
  0
LINE
  5
14E
100
AcDbEntity
  8
0
370
    35
390
0
 62
     7
100
AcDbLine
 10
589.718994
 20
336.174072
 30
0.0
 11
591.610352
 21
363.221741
 31
0.0
210
0.0
220
0.0
230
1.0
  0
ARC
  5
14F
100
AcDbEntity
  8
0
370
    35
390
0
 62
     7
100
AcDbCircle
 10
689.475403
 20
329.198425
 30
0.0
 40
100.0
210
0.0
220
0.0
230
1.0
100
AcDbArc
 50
176.0
 51
180.000005
  0
LINE
  5
150
100
AcDbEntity
  8
0
370
    35
390
0
 62
     7
 48
0.198661
100
AcDbLine
 10
599.875427
 20
329.198425
 30
0.0
 11
599.875427
 21
321.251984
 31
0.0
210
0.0
220
0.0
230
1.0
  0
LINE
  5
151
100
AcDbEntity
  8
0
370
    35
390
0
 62
     7
100
AcDbLine
 10
599.631836
 20
336.174072
 30
0.0
 11
597.740479
 21
363.221741
 31
0.0
210
0.0
220
0.0
230
1.0
  0
ARC
  5
152
100
AcDbEntity
  8
0
370
    35
390
0
 62
     7
100
AcDbCircle
 10
499.875427
 20
329.198425
 30
0.0
 40
100.0
210
0.0
220
0.0
230
1.0
100
AcDbArc
 50
0.0
 51
4.0
  0
LINE
  5
153
100
AcDbEntity
  8
0
370
    35
390
0
 62
     7
 48
0.2725
100
AcDbLine
 10
596.875427
 20
332.151978
 30
0.0
 11
596.875427
 21
321.251984
 31
0.0
210
0.0
220
0.0
230
1.0
  0
LINE
  5
154
100
AcDbEntity
  8
0
370
    35
390
0
 62
     7
 48
0.2725
100
AcDbLine
 10
592.475403
 20
332.151978
 30
0.0
 11
592.475403
 21
321.251984
 31
0.0
210
0.0
220
0.0
230
1.0
  0
LINE
  5
155
100
AcDbEntity
  8
0
370
    35
390
0
 62
     7
 48
0.010356
100
AcDbLine
 10
592.475403
 20
321.251984
 30
0.0
 11
592.889648
 21
321.251984
 31
0.0
210
0.0
220
0.0
230
1.0
  0
LINE
  5
156
100
AcDbEntity
  8
0
370
    35
390
0
 62
     7
 48
0.010356
100
AcDbLine
 10
596.875427
 20
321.251984
 30
0.0
 11
596.461182
 21
321.251984
 31
0.0
210
0.0
220
0.0
230
1.0
  0
ARC
  5
157
100
AcDbEntity
  8
0
370
    35
390
0
 62
     7
100
AcDbCircle
 10
592.975403
 20
332.151978
 30
0.0
 40
0.5
210
0.0
220
0.0
230
1.0
100
AcDbArc
 50
0.0
 51
179.999995
  0
ARC
  5
158
100
AcDbEntity
  8
0
370
    35
390
0
 62
     7
100
AcDbCircle
 10
596.375427
 20
332.151978
 30
0.0
 40
0.5
210
0.0
220
0.0
230
1.0
100
AcDbArc
 50
0.0
 51
179.999995
  0
LINE
  5
159
100
AcDbEntity
  8
0
370
    35
390
0
 62
     7
 48
0.0175
100
AcDbLine
 10
594.675415
 20
324.151978
 30
0.0
 11
593.975403
 21
324.151978
 31
0.0
210
0.0
220
0.0
230
1.0
  0
LINE
  5
15A
100
AcDbEntity
  8
0
370
    35
390
0
 62
     7
 48
0.1875
100
AcDbLine
 10
593.475403
 20
324.651978
 30
0.0
 11
593.475403
 21
332.151978
 31
0.0
210
0.0
220
0.0
230
1.0
  0
ARC
  5
15B
100
AcDbEntity
  8
0
370
    35
390
0
 62
     7
100
AcDbCircle
 10
593.975403
 20
324.651978
 30
0.0
 40
0.5
210
0.0
220
0.0
230
1.0
100
AcDbArc
 50
180.000005
 51
269.999997
  0
LINE
  5
15C
100
AcDbEntity
  8
0
370
    35
390
0
 62
     7
 48
0.0175
100
AcDbLine
 10
594.675415
 20
324.151978
 30
0.0
 11
595.375427
 21
324.151978
 31
0.0
210
0.0
220
0.0
230
1.0
  0
LINE
  5
15D
100
AcDbEntity
  8
0
370
    35
390
0
 62
     7
 48
0.1875
100
AcDbLine
 10
595.875427
 20
324.651978
 30
0.0
 11
595.875427
 21
332.151978
 31
0.0
210
0.0
220
0.0
230
1.0
  0
ARC
  5
15E
100
AcDbEntity
  8
0
370
    35
390
0
 62
     7
100
AcDbCircle
 10
595.375427
 20
324.651978
 30
0.0
 40
0.5
210
0.0
220
0.0
230
1.0
100
AcDbArc
 50
269.999997
 51
360.0
  0
ARC
  5
15F
100
AcDbEntity
  8
0
370
    35
390
0
 62
     7
100
AcDbCircle
 10
593.295959
 20
337.151978
 30
0.0
 40
1.0
210
0.0
220
0.0
230
1.0
100
AcDbArc
 50
176.0
 51
269.999997
  0
LINE
  5
160
100
AcDbEntity
  8
0
370
    35
390
0
 62
     7
 48
0.068973
100
AcDbLine
 10
593.295959
 20
336.151978
 30
0.0
 11
596.054871
 21
336.151978
 31
0.0
210
0.0
220
0.0
230
1.0
  0
ARC
  5
161
100
AcDbEntity
  8
0
370
    35
390
0
 62
     7
100
AcDbCircle
 10
596.054871
 20
337.151978
 30
0.0
 40
1.0
210
0.0
220
0.0
230
1.0
100
AcDbArc
 50
269.999997
 51
4.0
  0
LINE
  5
162
100
AcDbEntity
  8
0
370
    35
390
0
 62
     7
 48
0.49439
100
AcDbLine
 10
597.052429
 20
337.221741
 30
0.0
 11
595.672974
 21
356.949188
 31
0.0
210
0.0
220
0.0
230
1.0
  0
ARC
  5
163
100
AcDbEntity
  8
0
370
    35
390
0
 62
     7
100
AcDbCircle
 10
594.675415
 20
356.879425
 30
0.0
 40
1.0
210
0.0
220
0.0
230
1.0
100
AcDbArc
 50
4.0
 51
176.0
  0
LINE
  5
164
100
AcDbEntity
  8
0
370
    35
390
0
 62
     7
 48
0.49439
100
AcDbLine
 10
593.677856
 20
356.949188
 30
0.0
 11
592.298401
 21
337.221741
 31
0.0
210
0.0
220
0.0
230
1.0
  0
ENDSEC
  0
SECTION
  2
OBJECTS
  0
DICTIONARY
  5
19
100
AcDbDictionary
280
     0
281
     1
  3
ACAD_GROUP
350
1A
  3
ACAD_MLINESTYLE
350
1B
  3
ACAD_LAYOUT
350
1E
  3
ACAD_PLOTSETTINGS
350
22
  3
ACAD_PLOTSTYLENAME
350
1F
  3
ACAD_WIPEOUT_VARS
350
23
  0
DICTIONARY
  5
1A
102
{ACAD_REACTORS
330
19
102
}
100
AcDbDictionary
280
     0
281
     1
  0
DICTIONARY
  5
1B
102
{ACAD_REACTORS
330
19
102
}
100
AcDbDictionary
280
     0
281
     1
  3
Standard
350
1C
  0
MLINESTYLE
  5
1C
102
{ACAD_REACTORS
330
1B
102
}
100
AcDbMlineStyle
  2
Standard
 70
     0
  3

 62
     0
 51
90.0
 52
90.0
 71
     2
 49
0.5
 62
   256
  6
ByLayer
 49
-0.5
 62
   256
  6
ByLayer
  0
ACDBDICTIONARYWDFLT
  5
1F
102
{ACAD_REACTORS
330
19
102
}
100
AcDbDictionary
281
     1
  3
Normal
350
1D
100
AcDbDictionaryWithDefault
340
1D
  0
ACDBPLACEHOLDER
  5
1D
102
{ACAD_REACTORS
330
1F
102
}
  0
LAYOUT
  5
20
102
{ACAD_REACTORS
330
1E
102
}
100
AcDbPlotSettings
  1

  2

  4

  6

 40
0.0
 41
0.0
 42
0.0
 43
0.0
 44
0.0
 45
0.0
 46
0.0
 47
0.0
 48
0.0
 49
0.0
140
0.0
141
0.0
142
1.0
143
1.0
 70
  1024
 72
     0
 73
     0
 74
     0
  7

 75
     0
147
1.0
148
0.0
149
0.0
100
AcDbLayout
  1
Model
 70
     0
 71
     0
 10
0.0
 20
0.0
 11
0.0
 21
0.0
 12
0.0
 22
0.0
 32
0.0
 14
0.0
 24
0.0
 34
0.0
 15
0.0
 25
0.0
 35
0.0
146
0.0
 13
0.0
 23
0.0
 33
0.0
 16
0.0
 26
0.0
 36
0.0
 17
0.0
 27
0.0
 37
0.0
 76
     0
330
A
331
0
345
0
346
0
  0
LAYOUT
  5
21
102
{ACAD_REACTORS
330
1E
102
}
100
AcDbPlotSettings
  1

  2

  4

  6

 40
0.0
 41
0.0
 42
0.0
 43
0.0
 44
0.0
 45
0.0
 46
0.0
 47
0.0
 48
0.0
 49
0.0
140
0.0
141
0.0
142
1.0
143
1.0
 70
     0
 72
     0
 73
     0
 74
     0
  7

 75
     0
147
1.0
148
0.0
149
0.0
100
AcDbLayout
  1
Layout1
 70
     0
 71
     0
 10
0.0
 20
0.0
 11
0.0
 21
0.0
 12
0.0
 22
0.0
 32
0.0
 14
0.0
 24
0.0
 34
0.0
 15
0.0
 25
0.0
 35
0.0
146
0.0
 13
0.0
 23
0.0
 33
0.0
 16
0.0
 26
0.0
 36
0.0
 17
0.0
 27
0.0
 37
0.0
 76
     0
330
B
331
0
345
0
346
0
  0
DICTIONARY
  5
1E
102
{ACAD_REACTORS
330
19
102
}
100
AcDbDictionary
280
     0
281
     1
  3
Layout1
350
21
  3
Model
350
20
  0
DICTIONARY
  5
22
102
{ACAD_REACTORS
330
19
102
}
100
AcDbDictionary
280
     0
281
     1
  0
WIPEOUTVARIABLES
  5
23
100
AcDbWipeoutVariables
 70
     1
  0
ENDSEC
  0
EOF
