%FSLAX25Y25*%
%MOIN*%
G70*
G01*
G75*
G04 Layer_Color=8421504*
%ADD10R,0.03937X0.05906*%
%ADD11R,0.15748X0.08465*%
%ADD12R,0.02402X0.03268*%
%ADD13R,0.15748X0.02362*%
%ADD14R,0.12362X0.02835*%
%ADD15R,0.03543X0.03150*%
%ADD16O,0.02362X0.08661*%
%ADD17P,0.20044X4X360.0*%
G04:AMPARAMS|DCode=18|XSize=8.66mil|YSize=27.56mil|CornerRadius=0mil|HoleSize=0mil|Usage=FLASHONLY|Rotation=315.000|XOffset=0mil|YOffset=0mil|HoleType=Round|Shape=Rectangle|*
%AMROTATEDRECTD18*
4,1,4,-0.01281,-0.00668,0.00668,0.01281,0.01281,0.00668,-0.00668,-0.01281,-0.01281,-0.00668,0.0*
%
%ADD18ROTATEDRECTD18*%

G04:AMPARAMS|DCode=19|XSize=8.66mil|YSize=27.56mil|CornerRadius=0mil|HoleSize=0mil|Usage=FLASHONLY|Rotation=45.000|XOffset=0mil|YOffset=0mil|HoleType=Round|Shape=Rectangle|*
%AMROTATEDRECTD19*
4,1,4,0.00668,-0.01281,-0.01281,0.00668,-0.00668,0.01281,0.01281,-0.00668,0.00668,-0.01281,0.0*
%
%ADD19ROTATEDRECTD19*%

%ADD20C,0.00800*%
%ADD21C,0.00600*%
%ADD22C,0.02000*%
%ADD23R,0.06500X0.17000*%
%ADD24R,0.07000X0.17000*%
%ADD25R,0.08000X0.05500*%
%ADD26R,0.07000X0.33000*%
%ADD27R,0.07500X0.05500*%
%ADD28R,0.10000X0.04500*%
%ADD29R,0.11000X0.04500*%
%ADD30R,0.07000X0.20000*%
%ADD31R,0.58000X0.10500*%
%ADD32C,0.00200*%
%ADD33R,0.05906X0.05906*%
%ADD34C,0.05906*%
%ADD35R,0.05906X0.05906*%
%ADD36C,0.01969*%
%ADD37R,0.01378X0.01378*%
%ADD38R,0.03150X0.03543*%
%ADD39R,0.23000X0.07500*%
%ADD40R,0.23500X0.07500*%
%ADD41R,0.17000X0.07500*%
%ADD42R,0.07000X0.19500*%
%ADD43R,0.08000X0.19500*%
%ADD44R,0.07000X0.21000*%
%ADD45R,0.08000X0.19000*%
%ADD46C,0.00984*%
%ADD47C,0.00787*%
%ADD48C,0.00500*%
D10*
X5000Y55312D02*
D03*
Y44888D02*
D03*
X85000Y55312D02*
D03*
Y44888D02*
D03*
D11*
X71500Y117567D02*
D03*
X44000D02*
D03*
X16500D02*
D03*
D12*
X64000Y104339D02*
D03*
X69000D02*
D03*
X74000D02*
D03*
X79000D02*
D03*
Y126661D02*
D03*
X74000D02*
D03*
X69000D02*
D03*
X64000D02*
D03*
X36500Y104339D02*
D03*
X41500D02*
D03*
X46500D02*
D03*
X51500D02*
D03*
Y126661D02*
D03*
X46500D02*
D03*
X41500D02*
D03*
X36500D02*
D03*
X9000Y104339D02*
D03*
X14000D02*
D03*
X19000D02*
D03*
X24000D02*
D03*
Y126661D02*
D03*
X19000D02*
D03*
X14000D02*
D03*
X9000D02*
D03*
D13*
X71500Y109398D02*
D03*
X44000D02*
D03*
X16500D02*
D03*
D14*
X73193Y106799D02*
D03*
X45693D02*
D03*
X18193D02*
D03*
D15*
X76500Y39244D02*
D03*
Y44756D02*
D03*
X33000Y24256D02*
D03*
Y18744D02*
D03*
X86500Y74244D02*
D03*
Y79756D02*
D03*
X74000Y98756D02*
D03*
Y93244D02*
D03*
X68000Y98756D02*
D03*
Y93244D02*
D03*
X46500Y98756D02*
D03*
Y93244D02*
D03*
X40500Y98756D02*
D03*
Y93244D02*
D03*
X19500Y98756D02*
D03*
Y93244D02*
D03*
X13500Y98756D02*
D03*
Y93244D02*
D03*
D16*
X79000Y85449D02*
D03*
X74000D02*
D03*
X69000D02*
D03*
X64000D02*
D03*
X79000Y66551D02*
D03*
X74000D02*
D03*
X69000D02*
D03*
X64000D02*
D03*
X51500Y85449D02*
D03*
X46500D02*
D03*
X41500D02*
D03*
X36500D02*
D03*
X51500Y66551D02*
D03*
X46500D02*
D03*
X41500D02*
D03*
X36500D02*
D03*
X24000Y85449D02*
D03*
X19000D02*
D03*
X14000D02*
D03*
X9000D02*
D03*
X24000Y66551D02*
D03*
X19000D02*
D03*
X14000D02*
D03*
X9000D02*
D03*
D17*
X48000Y35000D02*
D03*
D18*
X49670Y46692D02*
D03*
X50784Y45579D02*
D03*
X51897Y44465D02*
D03*
X53011Y43352D02*
D03*
X54124Y42238D02*
D03*
X55238Y41125D02*
D03*
X56352Y40011D02*
D03*
X57465Y38897D02*
D03*
X58579Y37784D02*
D03*
X59692Y36670D02*
D03*
X46330Y23308D02*
D03*
X45216Y24421D02*
D03*
X44103Y25535D02*
D03*
X42989Y26648D02*
D03*
X41875Y27762D02*
D03*
X40762Y28875D02*
D03*
X39648Y29989D02*
D03*
X38535Y31103D02*
D03*
X37421Y32216D02*
D03*
X36307Y33330D02*
D03*
D19*
X59692D02*
D03*
X58579Y32216D02*
D03*
X57465Y31103D02*
D03*
X56352Y29989D02*
D03*
X55238Y28875D02*
D03*
X54124Y27762D02*
D03*
X53011Y26648D02*
D03*
X51897Y25535D02*
D03*
X50784Y24421D02*
D03*
X49670Y23308D02*
D03*
X36307Y36670D02*
D03*
X37421Y37784D02*
D03*
X38535Y38897D02*
D03*
X39648Y40011D02*
D03*
X40762Y41125D02*
D03*
X41875Y42238D02*
D03*
X42989Y43352D02*
D03*
X44103Y44465D02*
D03*
X45216Y45579D02*
D03*
X46330Y46692D02*
D03*
D32*
X-0Y0D02*
Y160000D01*
X90000D01*
Y0D02*
Y160000D01*
X-0Y0D02*
X90000D01*
M02*
