M48
;Layer_Color=9474304
;FILE_FORMAT=2:5
INCH,LZ
;TYPE=PLATED
T1F00S00C0.01181
T2F00S00C0.03543
%
T01
X00275Y00175
Y00265
X00395Y00235
X00405Y00195
X004Y00155
X0042Y00095
X00475Y0018
X0057Y0022
X006Y00225
X0064Y0024
X0061Y0027
X00635Y00295
Y00415
X00605Y0049
X0062Y00535
X00575
X0055Y0048
Y00345
X00315Y00395
X0030476Y0043774
X00355Y00515
X00385Y0054
X00415Y006
X00365Y00725
X0029
X0024Y0072
X00085Y00725
X0004Y00605
X0019Y0056
X00215Y00525
X002Y00495
X0017Y0047
X0008888Y0044888
X0009Y00915
X00075Y0096
X0023272Y0097
X00225Y01065
Y01095
X0026
Y01065
X0023Y0115
Y01175
Y012
X002
Y01175
Y0115
X00145Y013
X0004661Y0126661
X0033Y01265
X0041756Y0130244
X00475Y012
Y01175
Y0115
X00505
Y01175
Y012
X005Y01095
Y01065
X00535
Y01095
X00645
X00675
X007Y0109398
X00695Y0107
X0075Y0115
Y01175
Y012
X0078
Y01175
Y0115
X00845Y0108
X0079Y00975
X0074Y00905
X00635Y0092
Y0096
X0051Y00975
X00465Y009
X00365Y00915
X00355Y0096
X0037Y01095
X004
X00425Y0109398
X0042Y0107
X00605Y01265
X0069Y013
X0064Y0072
X0055Y00725
X00515Y0072
X00555Y00645
X0069Y0059
X0074Y00595
X0079Y00715
X00825Y0071
X0019Y00905
T02
X0005Y0005
Y0015
Y0025
X0015
Y0015
Y0005
X0055
Y0015
X0065
Y0005
X0075
Y0015
X0085
Y0005
X0075Y0145
Y0155
X0065
Y0145
X0055
Y0155
X0045
Y0145
X0035
Y0155
M30
