%FSLAX25Y25*%
%MOIN*%
G70*
G01*
G75*
G04 Layer_Color=8388736*
%ADD10R,0.03937X0.05906*%
%ADD11R,0.15748X0.08465*%
%ADD12R,0.02402X0.03268*%
%ADD13R,0.15748X0.02362*%
%ADD14R,0.12362X0.02835*%
%ADD15R,0.03543X0.03150*%
%ADD16O,0.02362X0.08661*%
%ADD17P,0.20044X4X360.0*%
G04:AMPARAMS|DCode=18|XSize=8.66mil|YSize=27.56mil|CornerRadius=0mil|HoleSize=0mil|Usage=FLASHONLY|Rotation=315.000|XOffset=0mil|YOffset=0mil|HoleType=Round|Shape=Rectangle|*
%AMROTATEDRECTD18*
4,1,4,-0.01281,-0.00668,0.00668,0.01281,0.01281,0.00668,-0.00668,-0.01281,-0.01281,-0.00668,0.0*
%
%ADD18ROTATEDRECTD18*%

G04:AMPARAMS|DCode=19|XSize=8.66mil|YSize=27.56mil|CornerRadius=0mil|HoleSize=0mil|Usage=FLASHONLY|Rotation=45.000|XOffset=0mil|YOffset=0mil|HoleType=Round|Shape=Rectangle|*
%AMROTATEDRECTD19*
4,1,4,0.00668,-0.01281,-0.01281,0.00668,-0.00668,0.01281,0.01281,-0.00668,0.00668,-0.01281,0.0*
%
%ADD19ROTATEDRECTD19*%

%ADD20C,0.00800*%
%ADD21C,0.00600*%
%ADD22C,0.02000*%
%ADD23R,0.06500X0.17000*%
%ADD24R,0.07000X0.17000*%
%ADD25R,0.08000X0.05500*%
%ADD26R,0.07000X0.33000*%
%ADD27R,0.07500X0.05500*%
%ADD28R,0.10000X0.04500*%
%ADD29R,0.11000X0.04500*%
%ADD30R,0.07000X0.20000*%
%ADD31R,0.58000X0.10500*%
%ADD32C,0.00200*%
%ADD33R,0.05906X0.05906*%
%ADD34C,0.05906*%
%ADD35R,0.05906X0.05906*%
%ADD36C,0.01969*%
%ADD37R,0.01378X0.01378*%
%ADD38R,0.03150X0.03543*%
%ADD39R,0.23000X0.07500*%
%ADD40R,0.23500X0.07500*%
%ADD41R,0.17000X0.07500*%
%ADD42R,0.07000X0.19500*%
%ADD43R,0.08000X0.19500*%
%ADD44R,0.07000X0.21000*%
%ADD45R,0.08000X0.19000*%
%ADD46C,0.00984*%
%ADD47C,0.00787*%
%ADD48C,0.00500*%
%ADD49R,0.04737X0.06706*%
%ADD50R,0.16548X0.09265*%
%ADD51R,0.03202X0.04068*%
%ADD52R,0.16548X0.03162*%
%ADD53R,0.13162X0.03635*%
%ADD54R,0.04343X0.03950*%
%ADD55O,0.03162X0.09461*%
%ADD56P,0.21175X4X360.0*%
G04:AMPARAMS|DCode=57|XSize=16.66mil|YSize=35.56mil|CornerRadius=0mil|HoleSize=0mil|Usage=FLASHONLY|Rotation=315.000|XOffset=0mil|YOffset=0mil|HoleType=Round|Shape=Rectangle|*
%AMROTATEDRECTD57*
4,1,4,-0.01846,-0.00668,0.00668,0.01846,0.01846,0.00668,-0.00668,-0.01846,-0.01846,-0.00668,0.0*
%
%ADD57ROTATEDRECTD57*%

G04:AMPARAMS|DCode=58|XSize=16.66mil|YSize=35.56mil|CornerRadius=0mil|HoleSize=0mil|Usage=FLASHONLY|Rotation=45.000|XOffset=0mil|YOffset=0mil|HoleType=Round|Shape=Rectangle|*
%AMROTATEDRECTD58*
4,1,4,0.00668,-0.01846,-0.01846,0.00668,-0.00668,0.01846,0.01846,-0.00668,0.00668,-0.01846,0.0*
%
%ADD58ROTATEDRECTD58*%

%ADD59R,0.06706X0.06706*%
%ADD60C,0.06706*%
%ADD61R,0.06706X0.06706*%
%ADD62C,0.02769*%
D32*
X-0Y0D02*
Y160000D01*
X90000D01*
Y0D02*
Y160000D01*
X-0Y0D02*
X90000D01*
D49*
X5000Y55312D02*
D03*
Y44888D02*
D03*
X85000Y55312D02*
D03*
Y44888D02*
D03*
D50*
X71500Y117567D02*
D03*
X44000D02*
D03*
X16500D02*
D03*
D51*
X64000Y104339D02*
D03*
X69000D02*
D03*
X74000D02*
D03*
X79000D02*
D03*
Y126661D02*
D03*
X74000D02*
D03*
X69000D02*
D03*
X64000D02*
D03*
X36500Y104339D02*
D03*
X41500D02*
D03*
X46500D02*
D03*
X51500D02*
D03*
Y126661D02*
D03*
X46500D02*
D03*
X41500D02*
D03*
X36500D02*
D03*
X9000Y104339D02*
D03*
X14000D02*
D03*
X19000D02*
D03*
X24000D02*
D03*
Y126661D02*
D03*
X19000D02*
D03*
X14000D02*
D03*
X9000D02*
D03*
D52*
X71500Y109398D02*
D03*
X44000D02*
D03*
X16500D02*
D03*
D53*
X73193Y106799D02*
D03*
X45693D02*
D03*
X18193D02*
D03*
D54*
X76500Y39244D02*
D03*
Y44756D02*
D03*
X33000Y24256D02*
D03*
Y18744D02*
D03*
X86500Y74244D02*
D03*
Y79756D02*
D03*
X74000Y98756D02*
D03*
Y93244D02*
D03*
X68000Y98756D02*
D03*
Y93244D02*
D03*
X46500Y98756D02*
D03*
Y93244D02*
D03*
X40500Y98756D02*
D03*
Y93244D02*
D03*
X19500Y98756D02*
D03*
Y93244D02*
D03*
X13500Y98756D02*
D03*
Y93244D02*
D03*
D55*
X79000Y85449D02*
D03*
X74000D02*
D03*
X69000D02*
D03*
X64000D02*
D03*
X79000Y66551D02*
D03*
X74000D02*
D03*
X69000D02*
D03*
X64000D02*
D03*
X51500Y85449D02*
D03*
X46500D02*
D03*
X41500D02*
D03*
X36500D02*
D03*
X51500Y66551D02*
D03*
X46500D02*
D03*
X41500D02*
D03*
X36500D02*
D03*
X24000Y85449D02*
D03*
X19000D02*
D03*
X14000D02*
D03*
X9000D02*
D03*
X24000Y66551D02*
D03*
X19000D02*
D03*
X14000D02*
D03*
X9000D02*
D03*
D56*
X48000Y35000D02*
D03*
D57*
X49670Y46692D02*
D03*
X50784Y45579D02*
D03*
X51897Y44465D02*
D03*
X53011Y43352D02*
D03*
X54124Y42238D02*
D03*
X55238Y41125D02*
D03*
X56352Y40011D02*
D03*
X57465Y38897D02*
D03*
X58579Y37784D02*
D03*
X59692Y36670D02*
D03*
X46330Y23308D02*
D03*
X45216Y24421D02*
D03*
X44103Y25535D02*
D03*
X42989Y26648D02*
D03*
X41875Y27762D02*
D03*
X40762Y28875D02*
D03*
X39648Y29989D02*
D03*
X38535Y31103D02*
D03*
X37421Y32216D02*
D03*
X36307Y33330D02*
D03*
D58*
X59692D02*
D03*
X58579Y32216D02*
D03*
X57465Y31103D02*
D03*
X56352Y29989D02*
D03*
X55238Y28875D02*
D03*
X54124Y27762D02*
D03*
X53011Y26648D02*
D03*
X51897Y25535D02*
D03*
X50784Y24421D02*
D03*
X49670Y23308D02*
D03*
X36307Y36670D02*
D03*
X37421Y37784D02*
D03*
X38535Y38897D02*
D03*
X39648Y40011D02*
D03*
X40762Y41125D02*
D03*
X41875Y42238D02*
D03*
X42989Y43352D02*
D03*
X44103Y44465D02*
D03*
X45216Y45579D02*
D03*
X46330Y46692D02*
D03*
D59*
X15000Y25000D02*
D03*
D60*
X5000D02*
D03*
X15000Y15000D02*
D03*
X5000D02*
D03*
X15000Y5000D02*
D03*
X5000D02*
D03*
X75000Y145000D02*
D03*
Y155000D02*
D03*
X65000Y145000D02*
D03*
Y155000D02*
D03*
X55000Y145000D02*
D03*
Y155000D02*
D03*
X45000Y145000D02*
D03*
Y155000D02*
D03*
X35000Y145000D02*
D03*
X55000Y5000D02*
D03*
Y15000D02*
D03*
X65000Y5000D02*
D03*
Y15000D02*
D03*
X75000Y5000D02*
D03*
Y15000D02*
D03*
X85000Y5000D02*
D03*
D61*
X35000Y155000D02*
D03*
X85000Y15000D02*
D03*
D62*
X40000Y15500D02*
D03*
X47500Y18000D02*
D03*
X60000Y22500D02*
D03*
X64000Y24000D02*
D03*
X57000Y22000D02*
D03*
X27500Y26500D02*
D03*
Y17500D02*
D03*
X4000Y60500D02*
D03*
X63500Y41500D02*
D03*
X55000Y34500D02*
D03*
X42000Y9500D02*
D03*
X55000Y48000D02*
D03*
X57500Y53500D02*
D03*
X39500Y23500D02*
D03*
X40500Y19500D02*
D03*
X69000Y59000D02*
D03*
X62000Y53500D02*
D03*
X74000Y59500D02*
D03*
X60500Y49000D02*
D03*
X35500Y51500D02*
D03*
X31500Y39500D02*
D03*
X55500Y64500D02*
D03*
X30476Y43774D02*
D03*
X41500Y60000D02*
D03*
X61000Y27000D02*
D03*
X38500Y54000D02*
D03*
X63500Y29500D02*
D03*
X17000Y47000D02*
D03*
X20000Y49500D02*
D03*
X21500Y52500D02*
D03*
X8888Y44888D02*
D03*
X19000Y56000D02*
D03*
X84500Y108000D02*
D03*
X82500Y71000D02*
D03*
X55000Y72500D02*
D03*
X29000D02*
D03*
X7500Y96000D02*
D03*
X22500Y109500D02*
D03*
Y106500D02*
D03*
X26000D02*
D03*
Y109500D02*
D03*
X40000D02*
D03*
X42000Y107000D02*
D03*
X42500Y109398D02*
D03*
X37000Y109500D02*
D03*
X35500Y96000D02*
D03*
X53500Y109500D02*
D03*
Y106500D02*
D03*
X50000D02*
D03*
Y109500D02*
D03*
X64500D02*
D03*
X70000Y109398D02*
D03*
X69500Y107000D02*
D03*
X67500Y109500D02*
D03*
X60500Y126500D02*
D03*
X63500Y96000D02*
D03*
X75000Y115000D02*
D03*
X78000D02*
D03*
X75000Y117500D02*
D03*
X78000D02*
D03*
X75000Y120000D02*
D03*
X78000D02*
D03*
X50500Y115000D02*
D03*
X47500D02*
D03*
X50500Y120000D02*
D03*
X47500D02*
D03*
Y117500D02*
D03*
X50500D02*
D03*
X20000Y120000D02*
D03*
Y117500D02*
D03*
Y115000D02*
D03*
X23000D02*
D03*
Y120000D02*
D03*
Y117500D02*
D03*
X79000Y97500D02*
D03*
X51000D02*
D03*
X79000Y71500D02*
D03*
X51500Y72000D02*
D03*
X64000D02*
D03*
X36500Y72500D02*
D03*
Y91500D02*
D03*
X63500Y92000D02*
D03*
X74000Y90500D02*
D03*
X46500Y90000D02*
D03*
X33000Y126500D02*
D03*
X69000Y130000D02*
D03*
X41756Y130244D02*
D03*
X23272Y97000D02*
D03*
X14500Y130000D02*
D03*
X24000Y72000D02*
D03*
X19000Y90500D02*
D03*
X8500Y72500D02*
D03*
X9000Y91500D02*
D03*
X4661Y126661D02*
D03*
M02*
