%FSLAX25Y25*%
%MOIN*%
G70*
G01*
G75*
G04 Layer_Color=11599871*
%ADD10R,0.03937X0.05906*%
%ADD11R,0.15748X0.08465*%
%ADD12R,0.02402X0.03268*%
%ADD13R,0.15748X0.02362*%
%ADD14R,0.12362X0.02835*%
%ADD15R,0.03543X0.03150*%
%ADD16O,0.02362X0.08661*%
%ADD17P,0.20044X4X360.0*%
G04:AMPARAMS|DCode=18|XSize=8.66mil|YSize=27.56mil|CornerRadius=0mil|HoleSize=0mil|Usage=FLASHONLY|Rotation=315.000|XOffset=0mil|YOffset=0mil|HoleType=Round|Shape=Rectangle|*
%AMROTATEDRECTD18*
4,1,4,-0.01281,-0.00668,0.00668,0.01281,0.01281,0.00668,-0.00668,-0.01281,-0.01281,-0.00668,0.0*
%
%ADD18ROTATEDRECTD18*%

G04:AMPARAMS|DCode=19|XSize=8.66mil|YSize=27.56mil|CornerRadius=0mil|HoleSize=0mil|Usage=FLASHONLY|Rotation=45.000|XOffset=0mil|YOffset=0mil|HoleType=Round|Shape=Rectangle|*
%AMROTATEDRECTD19*
4,1,4,0.00668,-0.01281,-0.01281,0.00668,-0.00668,0.01281,0.01281,-0.00668,0.00668,-0.01281,0.0*
%
%ADD19ROTATEDRECTD19*%

%ADD20C,0.00800*%
%ADD21C,0.00600*%
%ADD22C,0.02000*%
%ADD23R,0.06500X0.17000*%
%ADD24R,0.07000X0.17000*%
%ADD25R,0.08000X0.05500*%
%ADD26R,0.07000X0.33000*%
%ADD27R,0.07500X0.05500*%
%ADD28R,0.10000X0.04500*%
%ADD29R,0.11000X0.04500*%
%ADD30R,0.07000X0.20000*%
%ADD31R,0.58000X0.10500*%
%ADD32C,0.00200*%
%ADD33R,0.05906X0.05906*%
%ADD34C,0.05906*%
%ADD35R,0.05906X0.05906*%
%ADD36C,0.01969*%
%ADD37R,0.01378X0.01378*%
%ADD38R,0.03150X0.03543*%
%ADD39R,0.23000X0.07500*%
%ADD40R,0.23500X0.07500*%
%ADD41R,0.17000X0.07500*%
%ADD42R,0.07000X0.19500*%
%ADD43R,0.08000X0.19500*%
%ADD44R,0.07000X0.21000*%
%ADD45R,0.08000X0.19000*%
%ADD46C,0.00984*%
%ADD47C,0.00787*%
%ADD48C,0.00500*%
%ADD49R,0.04737X0.06706*%
%ADD50R,0.16548X0.09265*%
%ADD51R,0.03202X0.04068*%
%ADD52R,0.16548X0.03162*%
%ADD53R,0.13162X0.03635*%
%ADD54R,0.04343X0.03950*%
%ADD55O,0.03162X0.09461*%
%ADD56P,0.21175X4X360.0*%
G04:AMPARAMS|DCode=57|XSize=16.66mil|YSize=35.56mil|CornerRadius=0mil|HoleSize=0mil|Usage=FLASHONLY|Rotation=315.000|XOffset=0mil|YOffset=0mil|HoleType=Round|Shape=Rectangle|*
%AMROTATEDRECTD57*
4,1,4,-0.01846,-0.00668,0.00668,0.01846,0.01846,0.00668,-0.00668,-0.01846,-0.01846,-0.00668,0.0*
%
%ADD57ROTATEDRECTD57*%

G04:AMPARAMS|DCode=58|XSize=16.66mil|YSize=35.56mil|CornerRadius=0mil|HoleSize=0mil|Usage=FLASHONLY|Rotation=45.000|XOffset=0mil|YOffset=0mil|HoleType=Round|Shape=Rectangle|*
%AMROTATEDRECTD58*
4,1,4,0.00668,-0.01846,-0.01846,0.00668,-0.00668,0.01846,0.01846,-0.00668,0.00668,-0.01846,0.0*
%
%ADD58ROTATEDRECTD58*%

%ADD59R,0.06706X0.06706*%
%ADD60C,0.06706*%
%ADD61R,0.06706X0.06706*%
%ADD62C,0.02769*%
%ADD63R,0.02178X0.02178*%
%ADD64R,0.03950X0.04343*%
%ADD65C,0.00394*%
D32*
X-0Y0D02*
Y160000D01*
X90000D01*
Y0D02*
Y160000D01*
X-0Y0D02*
X90000D01*
D47*
X-0D02*
X20000D01*
X-0Y30000D02*
X20000D01*
X-0Y0D02*
Y30000D01*
X20000Y0D02*
Y30000D01*
Y0D02*
Y19167D01*
X30000Y160000D02*
X80000D01*
X30000Y140000D02*
X80000D01*
X30000D02*
Y160000D01*
X80000Y140000D02*
Y160000D01*
D48*
X58001Y79000D02*
X61000D01*
Y77500D01*
X60500Y77001D01*
X58501D01*
X58001Y77500D01*
Y79000D01*
X58501Y76001D02*
X58001Y75501D01*
Y74501D01*
X58501Y74002D01*
X59001D01*
X59500Y74501D01*
Y75001D01*
Y74501D01*
X60000Y74002D01*
X60500D01*
X61000Y74501D01*
Y75501D01*
X60500Y76001D01*
X27000Y3999D02*
X25001Y1000D01*
Y3999D02*
X27000Y1000D01*
X22002D02*
X24001D01*
X22002Y2999D01*
Y3499D01*
X22501Y3999D01*
X23501D01*
X24001Y3499D01*
X27500Y144999D02*
X25501Y142000D01*
Y144999D02*
X27500Y142000D01*
X24501Y144499D02*
X24001Y144999D01*
X23001D01*
X22502Y144499D01*
Y143999D01*
X23001Y143500D01*
X23501D01*
X23001D01*
X22502Y143000D01*
Y142500D01*
X23001Y142000D01*
X24001D01*
X24501Y142500D01*
X19500Y44500D02*
X16501D01*
Y43001D01*
X17001Y42501D01*
X18000D01*
X18500Y43001D01*
Y44500D01*
Y43500D02*
X19500Y42501D01*
Y39502D02*
Y41501D01*
X17501Y39502D01*
X17001D01*
X16501Y40001D01*
Y41001D01*
X17001Y41501D01*
Y38502D02*
X16501Y38002D01*
Y37002D01*
X17001Y36503D01*
X17501D01*
X18000Y37002D01*
Y37502D01*
Y37002D01*
X18500Y36503D01*
X19000D01*
X19500Y37002D01*
Y38002D01*
X19000Y38502D01*
X7000Y61000D02*
X9999D01*
Y62499D01*
X9499Y62999D01*
X8500D01*
X8000Y62499D01*
Y61000D01*
Y62000D02*
X7000Y62999D01*
Y65998D02*
Y63999D01*
X8999Y65998D01*
X9499D01*
X9999Y65499D01*
Y64499D01*
X9499Y63999D01*
Y66998D02*
X9999Y67498D01*
Y68498D01*
X9499Y68997D01*
X7500D01*
X7000Y68498D01*
Y67498D01*
X7500Y66998D01*
X9499D01*
X26500Y58500D02*
X23501D01*
Y57000D01*
X24001Y56501D01*
X25001D01*
X25500Y57000D01*
Y58500D01*
Y57500D02*
X26500Y56501D01*
Y53502D02*
Y55501D01*
X24501Y53502D01*
X24001D01*
X23501Y54001D01*
Y55001D01*
X24001Y55501D01*
X26500Y52502D02*
Y51502D01*
Y52002D01*
X23501D01*
X24001Y52502D01*
X64500Y97000D02*
Y99999D01*
X63001D01*
X62501Y99499D01*
Y98500D01*
X63001Y98000D01*
X64500D01*
X63500D02*
X62501Y97000D01*
X61501D02*
X60501D01*
X61001D01*
Y99999D01*
X61501Y99499D01*
X57002Y99999D02*
X58002Y99499D01*
X59002Y98500D01*
Y97500D01*
X58502Y97000D01*
X57502D01*
X57002Y97500D01*
Y98000D01*
X57502Y98500D01*
X59002D01*
X37500Y97000D02*
Y99999D01*
X36000D01*
X35501Y99499D01*
Y98500D01*
X36000Y98000D01*
X37500D01*
X36500D02*
X35501Y97000D01*
X34501D02*
X33501D01*
X34001D01*
Y99999D01*
X34501Y99499D01*
X32002D02*
X31502Y99999D01*
X30502D01*
X30002Y99499D01*
Y97500D01*
X30502Y97000D01*
X31502D01*
X32002Y97500D01*
Y99499D01*
X81500Y89500D02*
Y92499D01*
X80001D01*
X79501Y91999D01*
Y91000D01*
X80001Y90500D01*
X81500D01*
X80500D02*
X79501Y89500D01*
X78501D02*
X77501D01*
X78001D01*
Y92499D01*
X78501Y91999D01*
X74002Y92499D02*
X76002D01*
Y91000D01*
X75002Y91499D01*
X74502D01*
X74002Y91000D01*
Y90000D01*
X74502Y89500D01*
X75502D01*
X76002Y90000D01*
X52500Y90000D02*
Y92999D01*
X51000D01*
X50501Y92499D01*
Y91500D01*
X51000Y91000D01*
X52500D01*
X51500D02*
X50501Y90000D01*
X49501Y90500D02*
X49001Y90000D01*
X48001D01*
X47502Y90500D01*
Y92499D01*
X48001Y92999D01*
X49001D01*
X49501Y92499D01*
Y91999D01*
X49001Y91500D01*
X47502D01*
X25000Y75000D02*
Y77999D01*
X23501D01*
X23001Y77499D01*
Y76499D01*
X23501Y76000D01*
X25000D01*
X24000D02*
X23001Y75000D01*
X20002Y77999D02*
X21001Y77499D01*
X22001Y76499D01*
Y75500D01*
X21501Y75000D01*
X20501D01*
X20002Y75500D01*
Y76000D01*
X20501Y76499D01*
X22001D01*
X81500Y75500D02*
Y78499D01*
X80001D01*
X79501Y77999D01*
Y76999D01*
X80001Y76500D01*
X81500D01*
X80500D02*
X79501Y75500D01*
X78501D02*
X77501D01*
X78001D01*
Y78499D01*
X78501Y77999D01*
X76002D02*
X75502Y78499D01*
X74502D01*
X74002Y77999D01*
Y77499D01*
X74502Y76999D01*
X74002Y76500D01*
Y76000D01*
X74502Y75500D01*
X75502D01*
X76002Y76000D01*
Y76500D01*
X75502Y76999D01*
X76002Y77499D01*
Y77999D01*
X75502Y76999D02*
X74502D01*
X54000Y75000D02*
Y77999D01*
X52500D01*
X52001Y77499D01*
Y76499D01*
X52500Y76000D01*
X54000D01*
X53000D02*
X52001Y75000D01*
X51001D02*
X50001D01*
X50501D01*
Y77999D01*
X51001Y77499D01*
X46502Y75000D02*
X48502D01*
X46502Y76999D01*
Y77499D01*
X47002Y77999D01*
X48002D01*
X48502Y77499D01*
X59501Y87499D02*
X60000Y87999D01*
X61000D01*
X61500Y87499D01*
Y85500D01*
X61000Y85000D01*
X60000D01*
X59501Y85500D01*
X56502Y87999D02*
X57501Y87499D01*
X58501Y86500D01*
Y85500D01*
X58001Y85000D01*
X57001D01*
X56502Y85500D01*
Y86000D01*
X57001Y86500D01*
X58501D01*
X4501Y87499D02*
X5001Y87999D01*
X6000D01*
X6500Y87499D01*
Y85500D01*
X6000Y85000D01*
X5001D01*
X4501Y85500D01*
X1502Y85000D02*
X3501D01*
X1502Y86999D01*
Y87499D01*
X2001Y87999D01*
X3001D01*
X3501Y87499D01*
X32001D02*
X32500Y87999D01*
X33500D01*
X34000Y87499D01*
Y85500D01*
X33500Y85000D01*
X32500D01*
X32001Y85500D01*
X29501Y85000D02*
Y87999D01*
X31001Y86500D01*
X29002D01*
X69500Y130000D02*
Y132999D01*
X68001D01*
X67501Y132499D01*
Y131500D01*
X68001Y131000D01*
X69500D01*
X68500D02*
X67501Y130000D01*
X66501D02*
X65501D01*
X66001D01*
Y132999D01*
X66501Y132499D01*
X64002Y132999D02*
X62002D01*
Y132499D01*
X64002Y130500D01*
Y130000D01*
X41500D02*
Y132999D01*
X40001D01*
X39501Y132499D01*
Y131500D01*
X40001Y131000D01*
X41500D01*
X40500D02*
X39501Y130000D01*
X38501D02*
X37501D01*
X38001D01*
Y132999D01*
X38501Y132499D01*
X36002Y130000D02*
X35002D01*
X35502D01*
Y132999D01*
X36002Y132499D01*
X68001Y68001D02*
X67501Y68501D01*
Y69500D01*
X68001Y70000D01*
X70000D01*
X70500Y69500D01*
Y68501D01*
X70000Y68001D01*
X67501Y65002D02*
Y67001D01*
X69001D01*
X68501Y66001D01*
Y65501D01*
X69001Y65002D01*
X70000D01*
X70500Y65501D01*
Y66501D01*
X70000Y67001D01*
X40501Y68001D02*
X40001Y68501D01*
Y69500D01*
X40501Y70000D01*
X42500D01*
X43000Y69500D01*
Y68501D01*
X42500Y68001D01*
X40501Y67001D02*
X40001Y66501D01*
Y65501D01*
X40501Y65002D01*
X41001D01*
X41500Y65501D01*
Y66001D01*
Y65501D01*
X42000Y65002D01*
X42500D01*
X43000Y65501D01*
Y66501D01*
X42500Y67001D01*
X30501Y79000D02*
X33500D01*
Y77500D01*
X33000Y77001D01*
X31001D01*
X30501Y77500D01*
Y79000D01*
X33500Y74002D02*
Y76001D01*
X31501Y74002D01*
X31001D01*
X30501Y74501D01*
Y75501D01*
X31001Y76001D01*
X10500Y97000D02*
Y99999D01*
X9001D01*
X8501Y99499D01*
Y98500D01*
X9001Y98000D01*
X10500D01*
X9500D02*
X8501Y97000D01*
X6001D02*
Y99999D01*
X7501Y98500D01*
X5502D01*
X12500Y130000D02*
Y132999D01*
X11000D01*
X10501Y132499D01*
Y131500D01*
X11000Y131000D01*
X12500D01*
X11500D02*
X10501Y130000D01*
X7502Y132999D02*
X9501D01*
Y131500D01*
X8501Y131999D01*
X8001D01*
X7502Y131500D01*
Y130500D01*
X8001Y130000D01*
X9001D01*
X9501Y130500D01*
X26965Y91335D02*
Y94334D01*
X25465D01*
X24965Y93834D01*
Y92834D01*
X25465Y92334D01*
X26965D01*
X25965D02*
X24965Y91335D01*
X23966Y93834D02*
X23466Y94334D01*
X22466D01*
X21966Y93834D01*
Y93334D01*
X22466Y92834D01*
X22966D01*
X22466D01*
X21966Y92334D01*
Y91834D01*
X22466Y91335D01*
X23466D01*
X23966Y91834D01*
X14999Y67499D02*
X15499Y67000D01*
Y66000D01*
X14999Y65500D01*
X13000D01*
X12500Y66000D01*
Y67000D01*
X13000Y67499D01*
X12500Y68499D02*
Y69499D01*
Y68999D01*
X15499D01*
X14999Y68499D01*
X2501Y79000D02*
X5500D01*
Y77500D01*
X5000Y77001D01*
X3001D01*
X2501Y77500D01*
Y79000D01*
X5500Y76001D02*
Y75001D01*
Y75501D01*
X2501D01*
X3001Y76001D01*
D65*
X65961Y80146D02*
G03*
X65961Y80146I-197J0D01*
G01*
X38461D02*
G03*
X38461Y80146I-197J0D01*
G01*
X10961D02*
G03*
X10961Y80146I-197J0D01*
G01*
M02*
