%FSLAX25Y25*%
%MOIN*%
G70*
G01*
G75*
%ADD10R,0.06299X0.07087*%
%ADD11R,0.12362X0.02835*%
%ADD12R,0.15748X0.02362*%
%ADD13R,0.02402X0.03268*%
%ADD14R,0.15748X0.08465*%
%ADD15O,0.02362X0.08661*%
%ADD16R,0.03543X0.03150*%
%ADD17R,0.03937X0.05906*%
G04:AMPARAMS|DCode=18|XSize=8.66mil|YSize=27.56mil|CornerRadius=0mil|HoleSize=0mil|Usage=FLASHONLY|Rotation=45.000|XOffset=0mil|YOffset=0mil|HoleType=Round|Shape=Rectangle|*
%AMROTATEDRECTD18*
4,1,4,0.00668,-0.01281,-0.01281,0.00668,-0.00668,0.01281,0.01281,-0.00668,0.00668,-0.01281,0.0*
%
%ADD18ROTATEDRECTD18*%

G04:AMPARAMS|DCode=19|XSize=8.66mil|YSize=27.56mil|CornerRadius=0mil|HoleSize=0mil|Usage=FLASHONLY|Rotation=315.000|XOffset=0mil|YOffset=0mil|HoleType=Round|Shape=Rectangle|*
%AMROTATEDRECTD19*
4,1,4,-0.01281,-0.00668,0.00668,0.01281,0.01281,0.00668,-0.00668,-0.01281,-0.01281,-0.00668,0.0*
%
%ADD19ROTATEDRECTD19*%

%ADD20P,0.20044X4X360.0*%
%ADD21C,0.02000*%
%ADD22C,0.00600*%
%ADD23C,0.00800*%
%ADD24R,0.58000X0.10500*%
%ADD25R,0.07000X0.20000*%
%ADD26R,0.11000X0.04500*%
%ADD27R,0.10000X0.04500*%
%ADD28R,0.07500X0.05500*%
%ADD29R,0.07000X0.17000*%
%ADD30R,0.07000X0.33000*%
%ADD31R,0.08000X0.05500*%
%ADD32R,0.06500X0.17000*%
%ADD33C,0.00200*%
%ADD34R,0.05906X0.05906*%
%ADD35C,0.05906*%
%ADD36R,0.05906X0.05906*%
%ADD37C,0.01969*%
%ADD38R,0.07087X0.06299*%
%ADD39R,0.05906X0.05118*%
%ADD40R,0.01378X0.01378*%
%ADD41R,0.03150X0.03543*%
%ADD42R,0.04500X0.14500*%
%ADD43R,0.08000X0.19000*%
%ADD44R,0.08000X0.19500*%
%ADD45R,0.07000X0.21000*%
%ADD46R,0.07000X0.19500*%
%ADD47R,0.17000X0.07500*%
%ADD48R,0.23500X0.07500*%
%ADD49R,0.23000X0.07500*%
D10*
X84512Y135000D02*
D03*
X73488D02*
D03*
D11*
X18193Y106799D02*
D03*
X45693D02*
D03*
X73193D02*
D03*
D12*
X16500Y109398D02*
D03*
X44000D02*
D03*
X71500D02*
D03*
D13*
X9000Y126661D02*
D03*
X14000D02*
D03*
X19000D02*
D03*
X24000D02*
D03*
Y104339D02*
D03*
X19000D02*
D03*
X14000D02*
D03*
X9000D02*
D03*
X36500Y126661D02*
D03*
X41500D02*
D03*
X46500D02*
D03*
X51500D02*
D03*
Y104339D02*
D03*
X46500D02*
D03*
X41500D02*
D03*
X36500D02*
D03*
X64000Y126661D02*
D03*
X69000D02*
D03*
X74000D02*
D03*
X79000D02*
D03*
Y104339D02*
D03*
X74000D02*
D03*
X69000D02*
D03*
X64000D02*
D03*
D14*
X16500Y117567D02*
D03*
X44000D02*
D03*
X71500D02*
D03*
D15*
X9000Y66551D02*
D03*
X14000D02*
D03*
X19000D02*
D03*
X24000D02*
D03*
X9000Y85449D02*
D03*
X14000D02*
D03*
X19000D02*
D03*
X24000D02*
D03*
X36500Y66551D02*
D03*
X41500D02*
D03*
X46500D02*
D03*
X51500D02*
D03*
X36500Y85449D02*
D03*
X41500D02*
D03*
X46500D02*
D03*
X51500D02*
D03*
X64000Y66551D02*
D03*
X69000D02*
D03*
X74000D02*
D03*
X79000D02*
D03*
X64000Y85449D02*
D03*
X69000D02*
D03*
X74000D02*
D03*
X79000D02*
D03*
D16*
X13500Y93244D02*
D03*
Y98756D02*
D03*
X19500Y93244D02*
D03*
Y98756D02*
D03*
X40500Y93244D02*
D03*
Y98756D02*
D03*
X46500Y93244D02*
D03*
Y98756D02*
D03*
X68000Y93244D02*
D03*
Y98756D02*
D03*
X74000Y93244D02*
D03*
Y98756D02*
D03*
X86500Y79756D02*
D03*
Y74244D02*
D03*
X33000Y18744D02*
D03*
Y24256D02*
D03*
X76500Y44756D02*
D03*
Y39244D02*
D03*
D17*
X85000Y44888D02*
D03*
Y55312D02*
D03*
X5000Y44888D02*
D03*
Y55312D02*
D03*
D18*
X46330Y46692D02*
D03*
X45216Y45579D02*
D03*
X44103Y44465D02*
D03*
X42989Y43352D02*
D03*
X41875Y42238D02*
D03*
X40762Y41125D02*
D03*
X39648Y40011D02*
D03*
X38535Y38897D02*
D03*
X37421Y37784D02*
D03*
X36307Y36670D02*
D03*
X49670Y23308D02*
D03*
X50784Y24421D02*
D03*
X51897Y25535D02*
D03*
X53011Y26648D02*
D03*
X54124Y27762D02*
D03*
X55238Y28875D02*
D03*
X56352Y29989D02*
D03*
X57465Y31103D02*
D03*
X58579Y32216D02*
D03*
X59692Y33330D02*
D03*
D19*
X36307D02*
D03*
X37421Y32216D02*
D03*
X38535Y31103D02*
D03*
X39648Y29989D02*
D03*
X40762Y28875D02*
D03*
X41875Y27762D02*
D03*
X42989Y26648D02*
D03*
X44103Y25535D02*
D03*
X45216Y24421D02*
D03*
X46330Y23308D02*
D03*
X59692Y36670D02*
D03*
X58579Y37784D02*
D03*
X57465Y38897D02*
D03*
X56352Y40011D02*
D03*
X55238Y41125D02*
D03*
X54124Y42238D02*
D03*
X53011Y43352D02*
D03*
X51897Y44465D02*
D03*
X50784Y45579D02*
D03*
X49670Y46692D02*
D03*
D20*
X48000Y35000D02*
D03*
D33*
X-0Y0D02*
X90000D01*
Y160000D01*
X-0D02*
X90000D01*
X-0Y0D02*
Y160000D01*
D34*
X85000Y15000D02*
D03*
X35000Y155000D02*
D03*
D35*
X85000Y5000D02*
D03*
X75000Y15000D02*
D03*
Y5000D02*
D03*
X65000Y15000D02*
D03*
Y5000D02*
D03*
X55000Y15000D02*
D03*
Y5000D02*
D03*
X35000Y145000D02*
D03*
X45000Y155000D02*
D03*
Y145000D02*
D03*
X55000Y155000D02*
D03*
Y145000D02*
D03*
X65000Y155000D02*
D03*
Y145000D02*
D03*
X75000Y155000D02*
D03*
Y145000D02*
D03*
X5000Y5000D02*
D03*
X15000D02*
D03*
X5000Y15000D02*
D03*
X15000D02*
D03*
X5000Y25000D02*
D03*
D36*
X15000D02*
D03*
M02*
