  0
SECTION
  2
HEADER
  9
$ACADVER
  1
AC1009
  9
$FILLMODE
 70
1
  9
$EXTMIN
 10
-232.3789
 20
-226.4289
 30
0.0000
  9
$EXTMAX
 10
219.1650
 20
232.3789
 30
0.0000
  0
ENDSEC
  0
SECTION
  2
TABLES
  0
TABLE
  2
LTYPE
 70
1
  0
LTYPE
  2
CONTINUOUS
 70
64
  3
Solid line
 72
65
 73
0
 40
0
  0
ENDTAB
  0
TABLE
  2
LAYER
 70
255
  0
LAYER
  2
17
 70
64
 62
53
  6
CONTINUOUS
  0
LAYER
  2
20
 70
64
 62
213
  6
CONTINUOUS
  0
ENDTAB
  0
ENDSEC
  0
SECTION
  2
BLOCKS
  0
BLOCK
  8
0
  2
RECT
 70
64
 10
0.0000
 20
0.0000
 30
0.0000
  3
RECT
  0
SOLID
  8
0
 10
-0.5000
 20
-0.5000
 30
0.0000
 11
0.5000
 21
-0.5000
 31
0.0000
 12
-0.5000
 22
0.5000
 32
0.0000
 13
0.5000
 23
0.5000
 33
0.0000
  0
ENDBLK
  8
0
  0
BLOCK
  8
0
  2
PIE
 70
64
 10
0.0000
 20
0.0000
 30
0.0000
  3
PIE
  0
POLYLINE
  8
0
 66
1
 10
0.0000
 20
0.0000
 30
0.0000
 40
0.5000
 41
0.5000
 70
0
  0
VERTEX
  8
0
 10
0.0000
 20
-0.2500
 30
0.0000
 42
1.0000
  0
VERTEX
  8
0
 10
0.0000
 20
0.2500
 30
0.0000
 42
1.0000
  0
VERTEX
  8
0
 10
0.0000
 20
-0.2500
 30
0.0000
  0
SEQEND
  8
0
  0
ENDBLK
  8
0
  0
BLOCK
  8
0
  2
OCTAGONP
 70
64
 10
0.0000
 20
0.0000
 30
0.0000
  3
OCTAGONP
  0
POLYLINE
  8
0
 66
1
 10
0.0000
 20
0.0000
 30
0.0000
 40
0.5000
 41
0.5000
 70
0
  0
VERTEX
  8
0
 10
-0.2500
 20
-0.1036
 30
0.0000
  0
VERTEX
  8
0
 10
-0.2500
 20
0.1036
 30
0.0000
  0
VERTEX
  8
0
 10
-0.1036
 20
0.2500
 30
0.0000
  0
VERTEX
  8
0
 10
0.1036
 20
0.2500
 30
0.0000
  0
VERTEX
  8
0
 10
0.2500
 20
0.1036
 30
0.0000
  0
VERTEX
  8
0
 10
0.2500
 20
-0.1036
 30
0.0000
  0
VERTEX
  8
0
 10
0.1036
 20
-0.2500
 30
0.0000
  0
VERTEX
  8
0
 10
-0.1036
 20
-0.2500
 30
0.0000
  0
VERTEX
  8
0
 10
-0.2500
 20
-0.1036
 30
0.0000
  0
VERTEX
  8
0
 10
-0.2500
 20
0.1036
 30
0.0000
  0
SEQEND
  8
0
  0
ENDBLK
  8
0
  0
BLOCK
  8
0
  2
SQUAREP
 70
64
 10
0.0000
 20
0.0000
 30
0.0000
  3
SQUAREP
  0
SOLID
  8
0
 10
-0.5000
 20
-0.5000
 30
0.0000
 11
0.5000
 21
-0.5000
 31
0.0000
 12
-0.5000
 22
0.5000
 32
0.0000
 13
0.5000
 23
0.5000
 33
0.0000
  0
ENDBLK
  8
0
  0
BLOCK
  8
0
  2
ROUNDP
 70
64
 10
0.0000
 20
0.0000
 30
0.0000
  3
ROUNDP
  0
POLYLINE
  8
0
 66
1
 10
0.0000
 20
0.0000
 30
0.0000
 40
0.5000
 41
0.5000
 70
0
  0
VERTEX
  8
0
 10
0.0000
 20
-0.2500
 30
0.0000
 42
1.0000
  0
VERTEX
  8
0
 10
0.0000
 20
0.2500
 30
0.0000
 42
1.0000
  0
VERTEX
  8
0
 10
0.0000
 20
-0.2500
 30
0.0000
  0
SEQEND
  8
0
  0
ENDBLK
  8
0
  0
BLOCK
  8
0
  2
ANNULUSP
 70
64
 10
0.0000
 20
0.0000
 30
0.0000
  3
ANNULUSP
  0
POLYLINE
  8
0
 66
1
 10
0.0000
 20
0.0000
 30
0.0000
 40
0.5000
 41
0.5000
 70
0
  0
VERTEX
  8
0
 10
0.0000
 20
-0.2500
 30
0.0000
 42
1.0000
  0
VERTEX
  8
0
 10
0.0000
 20
0.2500
 30
0.0000
 42
1.0000
  0
VERTEX
  8
0
 10
0.0000
 20
-0.2500
 30
0.0000
  0
SEQEND
  8
0
  0
ENDBLK
  8
0
  0
BLOCK
  8
0
  2
THERMALP
 70
64
 10
0.0000
 20
0.0000
 30
0.0000
  3
THERMALP
  0
POLYLINE
  8
0
 66
1
 10
0.0000
 20
0.0000
 30
0.0000
 40
0.1000
 41
0.1000
 70
0
  0
VERTEX
  8
0
 10
-0.2379
 20
0.4500
 30
0.0000
  0
VERTEX
  8
0
 10
0.2379
 20
0.4500
 30
0.0000
  0
SEQEND
  8
0
  0
POLYLINE
  8
0
 66
1
 10
0.0000
 20
0.0000
 30
0.0000
 40
0.0500
 41
0.0500
 70
0
  0
VERTEX
  8
0
 10
0.2379
 20
0.4250
 30
0.0000
 42
1.0000
  0
VERTEX
  8
0
 10
0.2379
 20
0.4750
 30
0.0000
  0
SEQEND
  8
0
  0
POLYLINE
  8
0
 66
1
 10
0.0000
 20
0.0000
 30
0.0000
 40
0.0500
 41
0.0500
 70
0
  0
VERTEX
  8
0
 10
-0.2379
 20
0.4750
 30
0.0000
 42
1.0000
  0
VERTEX
  8
0
 10
-0.2379
 20
0.4250
 30
0.0000
  0
SEQEND
  8
0
  0
POLYLINE
  8
0
 66
1
 10
0.0000
 20
0.0000
 30
0.0000
 40
0.1000
 41
0.1000
 70
0
  0
VERTEX
  8
0
 10
0.4500
 20
0.2379
 30
0.0000
  0
VERTEX
  8
0
 10
0.4500
 20
-0.2379
 30
0.0000
  0
SEQEND
  8
0
  0
POLYLINE
  8
0
 66
1
 10
0.0000
 20
0.0000
 30
0.0000
 40
0.0500
 41
0.0500
 70
0
  0
VERTEX
  8
0
 10
0.4250
 20
-0.2379
 30
0.0000
 42
1.0000
  0
VERTEX
  8
0
 10
0.4750
 20
-0.2379
 30
0.0000
  0
SEQEND
  8
0
  0
POLYLINE
  8
0
 66
1
 10
0.0000
 20
0.0000
 30
0.0000
 40
0.0500
 41
0.0500
 70
0
  0
VERTEX
  8
0
 10
0.4750
 20
0.2379
 30
0.0000
 42
1.0000
  0
VERTEX
  8
0
 10
0.4250
 20
0.2379
 30
0.0000
  0
SEQEND
  8
0
  0
POLYLINE
  8
0
 66
1
 10
0.0000
 20
0.0000
 30
0.0000
 40
0.1000
 41
0.1000
 70
0
  0
VERTEX
  8
0
 10
0.2379
 20
-0.4500
 30
0.0000
  0
VERTEX
  8
0
 10
-0.2379
 20
-0.4500
 30
0.0000
  0
SEQEND
  8
0
  0
POLYLINE
  8
0
 66
1
 10
0.0000
 20
0.0000
 30
0.0000
 40
0.0500
 41
0.0500
 70
0
  0
VERTEX
  8
0
 10
-0.2379
 20
-0.4250
 30
0.0000
 42
1.0000
  0
VERTEX
  8
0
 10
-0.2379
 20
-0.4750
 30
0.0000
  0
SEQEND
  8
0
  0
POLYLINE
  8
0
 66
1
 10
0.0000
 20
0.0000
 30
0.0000
 40
0.0500
 41
0.0500
 70
0
  0
VERTEX
  8
0
 10
0.2379
 20
-0.4750
 30
0.0000
 42
1.0000
  0
VERTEX
  8
0
 10
0.2379
 20
-0.4250
 30
0.0000
  0
SEQEND
  8
0
  0
POLYLINE
  8
0
 66
1
 10
0.0000
 20
0.0000
 30
0.0000
 40
0.1000
 41
0.1000
 70
0
  0
VERTEX
  8
0
 10
-0.4500
 20
-0.2379
 30
0.0000
  0
VERTEX
  8
0
 10
-0.4500
 20
0.2379
 30
0.0000
  0
SEQEND
  8
0
  0
POLYLINE
  8
0
 66
1
 10
0.0000
 20
0.0000
 30
0.0000
 40
0.0500
 41
0.0500
 70
0
  0
VERTEX
  8
0
 10
-0.4250
 20
0.2379
 30
0.0000
 42
1.0000
  0
VERTEX
  8
0
 10
-0.4750
 20
0.2379
 30
0.0000
  0
SEQEND
  8
0
  0
POLYLINE
  8
0
 66
1
 10
0.0000
 20
0.0000
 30
0.0000
 40
0.0500
 41
0.0500
 70
0
  0
VERTEX
  8
0
 10
-0.4750
 20
-0.2379
 30
0.0000
 42
1.0000
  0
VERTEX
  8
0
 10
-0.4250
 20
-0.2379
 30
0.0000
  0
SEQEND
  8
0
  0
ENDBLK
  8
0
  0
BLOCK
  8
0
  2
OCTAGONV
 70
64
 10
0.0000
 20
0.0000
 30
0.0000
  3
OCTAGONV
  0
POLYLINE
  8
0
 66
1
 10
0.0000
 20
0.0000
 30
0.0000
 40
0.5000
 41
0.5000
 70
0
  0
VERTEX
  8
0
 10
-0.2500
 20
-0.1036
 30
0.0000
  0
VERTEX
  8
0
 10
-0.2500
 20
0.1036
 30
0.0000
  0
VERTEX
  8
0
 10
-0.1036
 20
0.2500
 30
0.0000
  0
VERTEX
  8
0
 10
0.1036
 20
0.2500
 30
0.0000
  0
VERTEX
  8
0
 10
0.2500
 20
0.1036
 30
0.0000
  0
VERTEX
  8
0
 10
0.2500
 20
-0.1036
 30
0.0000
  0
VERTEX
  8
0
 10
0.1036
 20
-0.2500
 30
0.0000
  0
VERTEX
  8
0
 10
-0.1036
 20
-0.2500
 30
0.0000
  0
VERTEX
  8
0
 10
-0.2500
 20
-0.1036
 30
0.0000
  0
VERTEX
  8
0
 10
-0.2500
 20
0.1036
 30
0.0000
  0
SEQEND
  8
0
  0
ENDBLK
  8
0
  0
BLOCK
  8
0
  2
SQUAREV
 70
64
 10
0.0000
 20
0.0000
 30
0.0000
  3
SQUAREV
  0
SOLID
  8
0
 10
-0.5000
 20
-0.5000
 30
0.0000
 11
0.5000
 21
-0.5000
 31
0.0000
 12
-0.5000
 22
0.5000
 32
0.0000
 13
0.5000
 23
0.5000
 33
0.0000
  0
ENDBLK
  8
0
  0
BLOCK
  8
0
  2
ROUNDV
 70
64
 10
0.0000
 20
0.0000
 30
0.0000
  3
ROUNDV
  0
POLYLINE
  8
0
 66
1
 10
0.0000
 20
0.0000
 30
0.0000
 40
0.5000
 41
0.5000
 70
0
  0
VERTEX
  8
0
 10
0.0000
 20
-0.2500
 30
0.0000
 42
1.0000
  0
VERTEX
  8
0
 10
0.0000
 20
0.2500
 30
0.0000
 42
1.0000
  0
VERTEX
  8
0
 10
0.0000
 20
-0.2500
 30
0.0000
  0
SEQEND
  8
0
  0
ENDBLK
  8
0
  0
BLOCK
  8
0
  2
ANNULUSV
 70
64
 10
0.0000
 20
0.0000
 30
0.0000
  3
ANNULUSV
  0
POLYLINE
  8
0
 66
1
 10
0.0000
 20
0.0000
 30
0.0000
 40
0.5000
 41
0.5000
 70
0
  0
VERTEX
  8
0
 10
0.0000
 20
-0.2500
 30
0.0000
 42
1.0000
  0
VERTEX
  8
0
 10
0.0000
 20
0.2500
 30
0.0000
 42
1.0000
  0
VERTEX
  8
0
 10
0.0000
 20
-0.2500
 30
0.0000
  0
SEQEND
  8
0
  0
ENDBLK
  8
0
  0
BLOCK
  8
0
  2
THERMALV
 70
64
 10
0.0000
 20
0.0000
 30
0.0000
  3
THERMALV
  0
POLYLINE
  8
0
 66
1
 10
0.0000
 20
0.0000
 30
0.0000
 40
0.1000
 41
0.1000
 70
0
  0
VERTEX
  8
0
 10
-0.2379
 20
0.4500
 30
0.0000
  0
VERTEX
  8
0
 10
0.2379
 20
0.4500
 30
0.0000
  0
SEQEND
  8
0
  0
POLYLINE
  8
0
 66
1
 10
0.0000
 20
0.0000
 30
0.0000
 40
0.0500
 41
0.0500
 70
0
  0
VERTEX
  8
0
 10
0.2379
 20
0.4250
 30
0.0000
 42
1.0000
  0
VERTEX
  8
0
 10
0.2379
 20
0.4750
 30
0.0000
  0
SEQEND
  8
0
  0
POLYLINE
  8
0
 66
1
 10
0.0000
 20
0.0000
 30
0.0000
 40
0.0500
 41
0.0500
 70
0
  0
VERTEX
  8
0
 10
-0.2379
 20
0.4750
 30
0.0000
 42
1.0000
  0
VERTEX
  8
0
 10
-0.2379
 20
0.4250
 30
0.0000
  0
SEQEND
  8
0
  0
POLYLINE
  8
0
 66
1
 10
0.0000
 20
0.0000
 30
0.0000
 40
0.1000
 41
0.1000
 70
0
  0
VERTEX
  8
0
 10
0.4500
 20
0.2379
 30
0.0000
  0
VERTEX
  8
0
 10
0.4500
 20
-0.2379
 30
0.0000
  0
SEQEND
  8
0
  0
POLYLINE
  8
0
 66
1
 10
0.0000
 20
0.0000
 30
0.0000
 40
0.0500
 41
0.0500
 70
0
  0
VERTEX
  8
0
 10
0.4250
 20
-0.2379
 30
0.0000
 42
1.0000
  0
VERTEX
  8
0
 10
0.4750
 20
-0.2379
 30
0.0000
  0
SEQEND
  8
0
  0
POLYLINE
  8
0
 66
1
 10
0.0000
 20
0.0000
 30
0.0000
 40
0.0500
 41
0.0500
 70
0
  0
VERTEX
  8
0
 10
0.4750
 20
0.2379
 30
0.0000
 42
1.0000
  0
VERTEX
  8
0
 10
0.4250
 20
0.2379
 30
0.0000
  0
SEQEND
  8
0
  0
POLYLINE
  8
0
 66
1
 10
0.0000
 20
0.0000
 30
0.0000
 40
0.1000
 41
0.1000
 70
0
  0
VERTEX
  8
0
 10
0.2379
 20
-0.4500
 30
0.0000
  0
VERTEX
  8
0
 10
-0.2379
 20
-0.4500
 30
0.0000
  0
SEQEND
  8
0
  0
POLYLINE
  8
0
 66
1
 10
0.0000
 20
0.0000
 30
0.0000
 40
0.0500
 41
0.0500
 70
0
  0
VERTEX
  8
0
 10
-0.2379
 20
-0.4250
 30
0.0000
 42
1.0000
  0
VERTEX
  8
0
 10
-0.2379
 20
-0.4750
 30
0.0000
  0
SEQEND
  8
0
  0
POLYLINE
  8
0
 66
1
 10
0.0000
 20
0.0000
 30
0.0000
 40
0.0500
 41
0.0500
 70
0
  0
VERTEX
  8
0
 10
0.2379
 20
-0.4750
 30
0.0000
 42
1.0000
  0
VERTEX
  8
0
 10
0.2379
 20
-0.4250
 30
0.0000
  0
SEQEND
  8
0
  0
POLYLINE
  8
0
 66
1
 10
0.0000
 20
0.0000
 30
0.0000
 40
0.1000
 41
0.1000
 70
0
  0
VERTEX
  8
0
 10
-0.4500
 20
-0.2379
 30
0.0000
  0
VERTEX
  8
0
 10
-0.4500
 20
0.2379
 30
0.0000
  0
SEQEND
  8
0
  0
POLYLINE
  8
0
 66
1
 10
0.0000
 20
0.0000
 30
0.0000
 40
0.0500
 41
0.0500
 70
0
  0
VERTEX
  8
0
 10
-0.4250
 20
0.2379
 30
0.0000
 42
1.0000
  0
VERTEX
  8
0
 10
-0.4750
 20
0.2379
 30
0.0000
  0
SEQEND
  8
0
  0
POLYLINE
  8
0
 66
1
 10
0.0000
 20
0.0000
 30
0.0000
 40
0.0500
 41
0.0500
 70
0
  0
VERTEX
  8
0
 10
-0.4750
 20
-0.2379
 30
0.0000
 42
1.0000
  0
VERTEX
  8
0
 10
-0.4250
 20
-0.2379
 30
0.0000
  0
SEQEND
  8
0
  0
ENDBLK
  8
0
  0
BLOCK
  8
0
  2
LONGP100
 70
64
 10
0.0000
 20
0.0000
 30
0.0000
  3
LONGP100
  0
POLYLINE
  8
0
 66
1
 10
0.0000
 20
0.0000
 30
0.0000
 40
1.0000
 41
1.0000
 70
0
  0
VERTEX
  8
0
 10
-0.5000
 20
0.0000
 30
0.0000
  0
VERTEX
  8
0
 10
0.5000
 20
0.0000
 30
0.0000
  0
SEQEND
  8
0
  0
POLYLINE
  8
0
 66
1
 10
0.0000
 20
0.0000
 30
0.0000
 40
0.5000
 41
0.5000
 70
0
  0
VERTEX
  8
0
 10
0.5000
 20
-0.2500
 30
0.0000
 42
1.0000
  0
VERTEX
  8
0
 10
0.5000
 20
0.2500
 30
0.0000
  0
SEQEND
  8
0
  0
POLYLINE
  8
0
 66
1
 10
0.0000
 20
0.0000
 30
0.0000
 40
0.5000
 41
0.5000
 70
0
  0
VERTEX
  8
0
 10
-0.5000
 20
0.2500
 30
0.0000
 42
1.0000
  0
VERTEX
  8
0
 10
-0.5000
 20
-0.2500
 30
0.0000
  0
SEQEND
  8
0
  0
ENDBLK
  8
0
  0
ENDSEC
  0
SECTION
  2
ENTITIES
  0
POLYLINE
  8
20
 66
1
 10
0.0000
 20
0.0000
 30
0.0000
 40
0.2000
 41
0.2000
 70
0
  0
VERTEX
  8
20
 10
-37.6000
 20
54.5000
 30
0.0000
 42
0.2793
  0
VERTEX
  8
20
 10
37.6000
 20
54.5000
 30
0.0000
  0
SEQEND
  8
0
  0
POLYLINE
  8
20
 66
1
 10
0.0000
 20
0.0000
 30
0.0000
 40
0.1000
 41
0.1000
 70
0
  0
VERTEX
  8
20
 10
-37.5741
 20
54.5428
 30
0.0000
 42
1.0000
  0
VERTEX
  8
20
 10
-37.6259
 20
54.4572
 30
0.0000
  0
SEQEND
  8
0
  0
POLYLINE
  8
20
 66
1
 10
0.0000
 20
0.0000
 30
0.0000
 40
0.1000
 41
0.1000
 70
0
  0
VERTEX
  8
20
 10
37.6259
 20
54.4572
 30
0.0000
 42
1.0000
  0
VERTEX
  8
20
 10
37.5741
 20
54.5428
 30
0.0000
  0
SEQEND
  8
0
  0
POLYLINE
  8
20
 66
1
 10
0.0000
 20
0.0000
 30
0.0000
 40
0.2000
 41
0.2000
 70
0
  0
VERTEX
  8
20
 10
37.6000
 20
54.5000
 30
0.0000
  0
VERTEX
  8
20
 10
54.5000
 20
37.6000
 30
0.0000
  0
SEQEND
  8
0
  0
POLYLINE
  8
20
 66
1
 10
0.0000
 20
0.0000
 30
0.0000
 40
0.1000
 41
0.1000
 70
0
  0
VERTEX
  8
20
 10
54.4646
 20
37.5646
 30
0.0000
 42
1.0000
  0
VERTEX
  8
20
 10
54.5354
 20
37.6354
 30
0.0000
  0
SEQEND
  8
0
  0
POLYLINE
  8
20
 66
1
 10
0.0000
 20
0.0000
 30
0.0000
 40
0.1000
 41
0.1000
 70
0
  0
VERTEX
  8
20
 10
37.6354
 20
54.5354
 30
0.0000
 42
1.0000
  0
VERTEX
  8
20
 10
37.5646
 20
54.4646
 30
0.0000
  0
SEQEND
  8
0
  0
POLYLINE
  8
20
 66
1
 10
0.0000
 20
0.0000
 30
0.0000
 40
0.2000
 41
0.2000
 70
0
  0
VERTEX
  8
20
 10
54.5000
 20
37.6000
 30
0.0000
 42
0.2795
  0
VERTEX
  8
20
 10
54.5000
 20
-37.6000
 30
0.0000
  0
SEQEND
  8
0
  0
POLYLINE
  8
20
 66
1
 10
0.0000
 20
0.0000
 30
0.0000
 40
0.1000
 41
0.1000
 70
0
  0
VERTEX
  8
20
 10
54.5428
 20
37.5741
 30
0.0000
 42
1.0000
  0
VERTEX
  8
20
 10
54.4572
 20
37.6259
 30
0.0000
  0
SEQEND
  8
0
  0
POLYLINE
  8
20
 66
1
 10
0.0000
 20
0.0000
 30
0.0000
 40
0.1000
 41
0.1000
 70
0
  0
VERTEX
  8
20
 10
54.4572
 20
-37.6259
 30
0.0000
 42
1.0000
  0
VERTEX
  8
20
 10
54.5428
 20
-37.5741
 30
0.0000
  0
SEQEND
  8
0
  0
POLYLINE
  8
20
 66
1
 10
0.0000
 20
0.0000
 30
0.0000
 40
0.2000
 41
0.2000
 70
0
  0
VERTEX
  8
20
 10
54.5000
 20
-37.6000
 30
0.0000
  0
VERTEX
  8
20
 10
37.6000
 20
-54.5000
 30
0.0000
  0
SEQEND
  8
0
  0
POLYLINE
  8
20
 66
1
 10
0.0000
 20
0.0000
 30
0.0000
 40
0.1000
 41
0.1000
 70
0
  0
VERTEX
  8
20
 10
37.5646
 20
-54.4646
 30
0.0000
 42
1.0000
  0
VERTEX
  8
20
 10
37.6354
 20
-54.5354
 30
0.0000
  0
SEQEND
  8
0
  0
POLYLINE
  8
20
 66
1
 10
0.0000
 20
0.0000
 30
0.0000
 40
0.1000
 41
0.1000
 70
0
  0
VERTEX
  8
20
 10
54.5354
 20
-37.6354
 30
0.0000
 42
1.0000
  0
VERTEX
  8
20
 10
54.4646
 20
-37.5646
 30
0.0000
  0
SEQEND
  8
0
  0
POLYLINE
  8
20
 66
1
 10
0.0000
 20
0.0000
 30
0.0000
 40
0.2000
 41
0.2000
 70
0
  0
VERTEX
  8
20
 10
-37.6000
 20
-54.5000
 30
0.0000
  0
VERTEX
  8
20
 10
-54.5000
 20
-37.6000
 30
0.0000
  0
SEQEND
  8
0
  0
POLYLINE
  8
20
 66
1
 10
0.0000
 20
0.0000
 30
0.0000
 40
0.1000
 41
0.1000
 70
0
  0
VERTEX
  8
20
 10
-54.4646
 20
-37.5646
 30
0.0000
 42
1.0000
  0
VERTEX
  8
20
 10
-54.5354
 20
-37.6354
 30
0.0000
  0
SEQEND
  8
0
  0
POLYLINE
  8
20
 66
1
 10
0.0000
 20
0.0000
 30
0.0000
 40
0.1000
 41
0.1000
 70
0
  0
VERTEX
  8
20
 10
-37.6354
 20
-54.5354
 30
0.0000
 42
1.0000
  0
VERTEX
  8
20
 10
-37.5646
 20
-54.4646
 30
0.0000
  0
SEQEND
  8
0
  0
POLYLINE
  8
20
 66
1
 10
0.0000
 20
0.0000
 30
0.0000
 40
0.2000
 41
0.2000
 70
0
  0
VERTEX
  8
20
 10
-54.5000
 20
-37.6000
 30
0.0000
 42
0.2791
  0
VERTEX
  8
20
 10
-54.5000
 20
37.6000
 30
0.0000
  0
SEQEND
  8
0
  0
POLYLINE
  8
20
 66
1
 10
0.0000
 20
0.0000
 30
0.0000
 40
0.1000
 41
0.1000
 70
0
  0
VERTEX
  8
20
 10
-54.5428
 20
-37.5741
 30
0.0000
 42
1.0000
  0
VERTEX
  8
20
 10
-54.4572
 20
-37.6259
 30
0.0000
  0
SEQEND
  8
0
  0
POLYLINE
  8
20
 66
1
 10
0.0000
 20
0.0000
 30
0.0000
 40
0.1000
 41
0.1000
 70
0
  0
VERTEX
  8
20
 10
-54.4572
 20
37.6259
 30
0.0000
 42
1.0000
  0
VERTEX
  8
20
 10
-54.5428
 20
37.5741
 30
0.0000
  0
SEQEND
  8
0
  0
POLYLINE
  8
20
 66
1
 10
0.0000
 20
0.0000
 30
0.0000
 40
0.2000
 41
0.2000
 70
0
  0
VERTEX
  8
20
 10
-54.5000
 20
37.6000
 30
0.0000
  0
VERTEX
  8
20
 10
-37.6000
 20
54.5000
 30
0.0000
  0
SEQEND
  8
0
  0
POLYLINE
  8
20
 66
1
 10
0.0000
 20
0.0000
 30
0.0000
 40
0.1000
 41
0.1000
 70
0
  0
VERTEX
  8
20
 10
-37.5646
 20
54.4646
 30
0.0000
 42
1.0000
  0
VERTEX
  8
20
 10
-37.6354
 20
54.5354
 30
0.0000
  0
SEQEND
  8
0
  0
POLYLINE
  8
20
 66
1
 10
0.0000
 20
0.0000
 30
0.0000
 40
0.1000
 41
0.1000
 70
0
  0
VERTEX
  8
20
 10
-54.5354
 20
37.6354
 30
0.0000
 42
1.0000
  0
VERTEX
  8
20
 10
-54.4646
 20
37.5646
 30
0.0000
  0
SEQEND
  8
0
  0
POLYLINE
  8
20
 66
1
 10
0.0000
 20
0.0000
 30
0.0000
 40
0.2000
 41
0.2000
 70
0
  0
VERTEX
  8
20
 10
37.6000
 20
-54.5000
 30
0.0000
 42
0.2795
  0
VERTEX
  8
20
 10
-37.6000
 20
-54.5000
 30
0.0000
  0
SEQEND
  8
0
  0
POLYLINE
  8
20
 66
1
 10
0.0000
 20
0.0000
 30
0.0000
 40
0.1000
 41
0.1000
 70
0
  0
VERTEX
  8
20
 10
37.5741
 20
-54.5428
 30
0.0000
 42
1.0000
  0
VERTEX
  8
20
 10
37.6259
 20
-54.4572
 30
0.0000
  0
SEQEND
  8
0
  0
POLYLINE
  8
20
 66
1
 10
0.0000
 20
0.0000
 30
0.0000
 40
0.1000
 41
0.1000
 70
0
  0
VERTEX
  8
20
 10
-37.6259
 20
-54.4572
 30
0.0000
 42
1.0000
  0
VERTEX
  8
20
 10
-37.5741
 20
-54.5428
 30
0.0000
  0
SEQEND
  8
0
  0
CIRCLE
  8
20
 10
-5.5400
 20
-10.3100
 30
0.0000
 40
1.2700
  0
CIRCLE
  8
20
 10
-5.6400
 20
10.0900
 30
0.0000
 40
1.2700
  0
CIRCLE
  8
20
 10
-28.5400
 20
45.8900
 30
0.0000
 40
1.2700
  0
CIRCLE
  8
20
 10
-45.7400
 20
28.5900
 30
0.0000
 40
1.2700
  0
CIRCLE
  8
20
 10
-45.8500
 20
-28.5300
 30
0.0000
 40
1.2700
  0
CIRCLE
  8
20
 10
-28.6500
 20
-45.7300
 30
0.0000
 40
1.2700
  0
CIRCLE
  8
20
 10
45.8200
 20
28.6000
 30
0.0000
 40
1.2700
  0
CIRCLE
  8
20
 10
28.6200
 20
45.8000
 30
0.0000
 40
1.2700
  0
CIRCLE
  8
20
 10
28.6500
 20
-45.7200
 30
0.0000
 40
1.2700
  0
CIRCLE
  8
20
 10
45.7500
 20
-28.6200
 30
0.0000
 40
1.2700
  0
CIRCLE
  8
20
 10
38.9500
 20
0.0800
 30
0.0000
 40
1.2700
  0
CIRCLE
  8
20
 10
0.0500
 20
-39.0200
 30
0.0000
 40
1.2700
  0
CIRCLE
  8
20
 10
-38.9500
 20
0.0700
 30
0.0000
 40
1.2700
  0
CIRCLE
  8
20
 10
0.0600
 20
38.9900
 30
0.0000
 40
1.2700
  0
INSERT
  8
17
  2
OCTAGONP
 10
30.4300
 20
-32.1300
 30
0.0000
 41
1.5240
 42
1.5240
 43
1.0000
 50
270.0000
  0
INSERT
  8
17
  2
OCTAGONP
 10
30.4300
 20
-32.1300
 30
0.0000
 41
1.5240
 42
1.5240
 43
1.0000
 50
270.0000
  0
INSERT
  8
17
  2
OCTAGONP
 10
32.9700
 20
-32.1300
 30
0.0000
 41
1.5240
 42
1.5240
 43
1.0000
 50
270.0000
  0
INSERT
  8
17
  2
OCTAGONP
 10
32.9700
 20
-32.1300
 30
0.0000
 41
1.5240
 42
1.5240
 43
1.0000
 50
270.0000
  0
INSERT
  8
17
  2
OCTAGONP
 10
30.4300
 20
-34.6700
 30
0.0000
 41
1.5240
 42
1.5240
 43
1.0000
 50
270.0000
  0
INSERT
  8
17
  2
OCTAGONP
 10
30.4300
 20
-34.6700
 30
0.0000
 41
1.5240
 42
1.5240
 43
1.0000
 50
270.0000
  0
INSERT
  8
17
  2
OCTAGONP
 10
32.9700
 20
-34.6700
 30
0.0000
 41
1.5240
 42
1.5240
 43
1.0000
 50
270.0000
  0
INSERT
  8
17
  2
OCTAGONP
 10
32.9700
 20
-34.6700
 30
0.0000
 41
1.5240
 42
1.5240
 43
1.0000
 50
270.0000
  0
INSERT
  8
17
  2
OCTAGONP
 10
-34.6100
 20
-20.3700
 30
0.0000
 41
1.5240
 42
1.5240
 43
1.0000
 50
0.0000
  0
INSERT
  8
17
  2
OCTAGONP
 10
-34.6100
 20
-20.3700
 30
0.0000
 41
1.5240
 42
1.5240
 43
1.0000
 50
0.0000
  0
INSERT
  8
17
  2
OCTAGONP
 10
-34.6100
 20
-17.8300
 30
0.0000
 41
1.5240
 42
1.5240
 43
1.0000
 50
0.0000
  0
INSERT
  8
17
  2
OCTAGONP
 10
-34.6100
 20
-17.8300
 30
0.0000
 41
1.5240
 42
1.5240
 43
1.0000
 50
0.0000
  0
INSERT
  8
17
  2
OCTAGONP
 10
-32.0700
 20
-20.3700
 30
0.0000
 41
1.5240
 42
1.5240
 43
1.0000
 50
0.0000
  0
INSERT
  8
17
  2
OCTAGONP
 10
-32.0700
 20
-20.3700
 30
0.0000
 41
1.5240
 42
1.5240
 43
1.0000
 50
0.0000
  0
INSERT
  8
17
  2
OCTAGONP
 10
-32.0700
 20
-17.8300
 30
0.0000
 41
1.5240
 42
1.5240
 43
1.0000
 50
0.0000
  0
INSERT
  8
17
  2
OCTAGONP
 10
-32.0700
 20
-17.8300
 30
0.0000
 41
1.5240
 42
1.5240
 43
1.0000
 50
0.0000
  0
INSERT
  8
17
  2
OCTAGONP
 10
-29.5300
 20
-20.3700
 30
0.0000
 41
1.5240
 42
1.5240
 43
1.0000
 50
0.0000
  0
INSERT
  8
17
  2
OCTAGONP
 10
-29.5300
 20
-20.3700
 30
0.0000
 41
1.5240
 42
1.5240
 43
1.0000
 50
0.0000
  0
INSERT
  8
17
  2
OCTAGONP
 10
-29.5300
 20
-17.8300
 30
0.0000
 41
1.5240
 42
1.5240
 43
1.0000
 50
0.0000
  0
INSERT
  8
17
  2
OCTAGONP
 10
-29.5300
 20
-17.8300
 30
0.0000
 41
1.5240
 42
1.5240
 43
1.0000
 50
0.0000
  0
INSERT
  8
17
  2
OCTAGONP
 10
-26.9900
 20
-20.3700
 30
0.0000
 41
1.5240
 42
1.5240
 43
1.0000
 50
0.0000
  0
INSERT
  8
17
  2
OCTAGONP
 10
-26.9900
 20
-20.3700
 30
0.0000
 41
1.5240
 42
1.5240
 43
1.0000
 50
0.0000
  0
INSERT
  8
17
  2
OCTAGONP
 10
-26.9900
 20
-17.8300
 30
0.0000
 41
1.5240
 42
1.5240
 43
1.0000
 50
0.0000
  0
INSERT
  8
17
  2
OCTAGONP
 10
-26.9900
 20
-17.8300
 30
0.0000
 41
1.5240
 42
1.5240
 43
1.0000
 50
0.0000
  0
INSERT
  8
17
  2
LONGP100
 10
5.9000
 20
-11.5300
 30
0.0000
 41
1.5240
 42
1.5240
 43
1.0000
 50
180.0000
  0
INSERT
  8
17
  2
LONGP100
 10
5.9000
 20
-11.5300
 30
0.0000
 41
1.5240
 42
1.5240
 43
1.0000
 50
180.0000
  0
INSERT
  8
17
  2
LONGP100
 10
5.9000
 20
-8.9900
 30
0.0000
 41
1.5240
 42
1.5240
 43
1.0000
 50
180.0000
  0
INSERT
  8
17
  2
LONGP100
 10
5.9000
 20
-8.9900
 30
0.0000
 41
1.5240
 42
1.5240
 43
1.0000
 50
180.0000
  0
INSERT
  8
17
  2
LONGP100
 10
5.9000
 20
-6.4500
 30
0.0000
 41
1.5240
 42
1.5240
 43
1.0000
 50
180.0000
  0
INSERT
  8
17
  2
LONGP100
 10
5.9000
 20
-6.4500
 30
0.0000
 41
1.5240
 42
1.5240
 43
1.0000
 50
180.0000
  0
INSERT
  8
17
  2
LONGP100
 10
5.9000
 20
-3.9100
 30
0.0000
 41
1.5240
 42
1.5240
 43
1.0000
 50
180.0000
  0
INSERT
  8
17
  2
LONGP100
 10
5.9000
 20
-3.9100
 30
0.0000
 41
1.5240
 42
1.5240
 43
1.0000
 50
180.0000
  0
INSERT
  8
17
  2
LONGP100
 10
5.9000
 20
6.2500
 30
0.0000
 41
1.5240
 42
1.5240
 43
1.0000
 50
180.0000
  0
INSERT
  8
17
  2
LONGP100
 10
5.9000
 20
6.2500
 30
0.0000
 41
1.5240
 42
1.5240
 43
1.0000
 50
180.0000
  0
INSERT
  8
17
  2
OCTAGONP
 10
13.1700
 20
-21.1300
 30
0.0000
 41
1.5240
 42
1.5240
 43
1.0000
 50
180.0000
  0
INSERT
  8
17
  2
OCTAGONP
 10
13.1700
 20
-21.1300
 30
0.0000
 41
1.5240
 42
1.5240
 43
1.0000
 50
180.0000
  0
INSERT
  8
17
  2
OCTAGONP
 10
13.1700
 20
-23.6700
 30
0.0000
 41
1.5240
 42
1.5240
 43
1.0000
 50
180.0000
  0
INSERT
  8
17
  2
OCTAGONP
 10
13.1700
 20
-23.6700
 30
0.0000
 41
1.5240
 42
1.5240
 43
1.0000
 50
180.0000
  0
INSERT
  8
17
  2
OCTAGONP
 10
10.6300
 20
-21.1300
 30
0.0000
 41
1.5240
 42
1.5240
 43
1.0000
 50
180.0000
  0
INSERT
  8
17
  2
OCTAGONP
 10
10.6300
 20
-21.1300
 30
0.0000
 41
1.5240
 42
1.5240
 43
1.0000
 50
180.0000
  0
INSERT
  8
17
  2
OCTAGONP
 10
10.6300
 20
-23.6700
 30
0.0000
 41
1.5240
 42
1.5240
 43
1.0000
 50
180.0000
  0
INSERT
  8
17
  2
OCTAGONP
 10
10.6300
 20
-23.6700
 30
0.0000
 41
1.5240
 42
1.5240
 43
1.0000
 50
180.0000
  0
INSERT
  8
17
  2
LONGP100
 10
-6.7500
 20
25.3200
 30
0.0000
 41
1.5240
 42
1.5240
 43
1.0000
 50
180.0000
  0
INSERT
  8
17
  2
LONGP100
 10
-6.7500
 20
25.3200
 30
0.0000
 41
1.5240
 42
1.5240
 43
1.0000
 50
180.0000
  0
INSERT
  8
17
  2
LONGP100
 10
-6.7500
 20
27.8600
 30
0.0000
 41
1.5240
 42
1.5240
 43
1.0000
 50
180.0000
  0
INSERT
  8
17
  2
LONGP100
 10
-6.7500
 20
27.8600
 30
0.0000
 41
1.5240
 42
1.5240
 43
1.0000
 50
180.0000
  0
INSERT
  8
17
  2
LONGP100
 10
-6.7500
 20
30.4000
 30
0.0000
 41
1.5240
 42
1.5240
 43
1.0000
 50
180.0000
  0
INSERT
  8
17
  2
LONGP100
 10
-6.7500
 20
30.4000
 30
0.0000
 41
1.5240
 42
1.5240
 43
1.0000
 50
180.0000
  0
INSERT
  8
17
  2
LONGP100
 10
-5.2000
 20
18.7700
 30
0.0000
 41
1.3716
 42
1.3716
 43
1.0000
 50
180.0000
  0
INSERT
  8
17
  2
LONGP100
 10
-5.2000
 20
18.7700
 30
0.0000
 41
1.3716
 42
1.3716
 43
1.0000
 50
180.0000
  0
INSERT
  8
17
  2
LONGP100
 10
-5.2000
 20
16.2300
 30
0.0000
 41
1.3716
 42
1.3716
 43
1.0000
 50
180.0000
  0
INSERT
  8
17
  2
LONGP100
 10
-5.2000
 20
16.2300
 30
0.0000
 41
1.3716
 42
1.3716
 43
1.0000
 50
180.0000
  0
INSERT
  8
17
  2
LONGP100
 10
27.5300
 20
12.6000
 30
0.0000
 41
1.5240
 42
1.5240
 43
1.0000
 50
90.0000
  0
INSERT
  8
17
  2
LONGP100
 10
27.5300
 20
12.6000
 30
0.0000
 41
1.5240
 42
1.5240
 43
1.0000
 50
90.0000
  0
INSERT
  8
17
  2
LONGP100
 10
30.0700
 20
12.6000
 30
0.0000
 41
1.5240
 42
1.5240
 43
1.0000
 50
90.0000
  0
INSERT
  8
17
  2
LONGP100
 10
30.0700
 20
12.6000
 30
0.0000
 41
1.5240
 42
1.5240
 43
1.0000
 50
90.0000
  0
INSERT
  8
17
  2
LONGP100
 10
3.4500
 20
27.7900
 30
0.0000
 41
1.5240
 42
1.5240
 43
1.0000
 50
180.0000
  0
INSERT
  8
17
  2
LONGP100
 10
3.4500
 20
27.7900
 30
0.0000
 41
1.5240
 42
1.5240
 43
1.0000
 50
180.0000
  0
INSERT
  8
17
  2
LONGP100
 10
3.4500
 20
30.3300
 30
0.0000
 41
1.5240
 42
1.5240
 43
1.0000
 50
180.0000
  0
INSERT
  8
17
  2
LONGP100
 10
3.4500
 20
30.3300
 30
0.0000
 41
1.5240
 42
1.5240
 43
1.0000
 50
180.0000
  0
INSERT
  8
17
  2
LONGP100
 10
-51.2970
 20
37.3585
 30
0.0000
 41
1.3716
 42
1.3716
 43
1.0000
 50
315.0000
  0
INSERT
  8
17
  2
LONGP100
 10
-51.2970
 20
37.3585
 30
0.0000
 41
1.3716
 42
1.3716
 43
1.0000
 50
315.0000
  0
INSERT
  8
17
  2
LONGP100
 10
-49.5010
 20
39.1546
 30
0.0000
 41
1.3716
 42
1.3716
 43
1.0000
 50
315.0000
  0
INSERT
  8
17
  2
LONGP100
 10
-49.5010
 20
39.1546
 30
0.0000
 41
1.3716
 42
1.3716
 43
1.0000
 50
315.0000
  0
INSERT
  8
17
  2
LONGP100
 10
51.8597
 20
-37.2939
 30
0.0000
 41
1.3716
 42
1.3716
 43
1.0000
 50
135.0000
  0
INSERT
  8
17
  2
LONGP100
 10
51.8597
 20
-37.2939
 30
0.0000
 41
1.3716
 42
1.3716
 43
1.0000
 50
135.0000
  0
INSERT
  8
17
  2
LONGP100
 10
50.0636
 20
-39.0899
 30
0.0000
 41
1.3716
 42
1.3716
 43
1.0000
 50
135.0000
  0
INSERT
  8
17
  2
LONGP100
 10
50.0636
 20
-39.0899
 30
0.0000
 41
1.3716
 42
1.3716
 43
1.0000
 50
135.0000
  0
INSERT
  8
17
  2
LONGP100
 10
-42.5453
 20
14.9493
 30
0.0000
 41
1.5240
 42
1.5240
 43
1.0000
 50
193.0000
  0
INSERT
  8
17
  2
LONGP100
 10
-42.5453
 20
14.9493
 30
0.0000
 41
1.5240
 42
1.5240
 43
1.0000
 50
193.0000
  0
INSERT
  8
17
  2
LONGP100
 10
-43.1167
 20
17.4242
 30
0.0000
 41
1.5240
 42
1.5240
 43
1.0000
 50
193.0000
  0
INSERT
  8
17
  2
LONGP100
 10
-43.1167
 20
17.4242
 30
0.0000
 41
1.5240
 42
1.5240
 43
1.0000
 50
193.0000
  0
INSERT
  8
17
  2
LONGP100
 10
-43.6881
 20
19.8991
 30
0.0000
 41
1.5240
 42
1.5240
 43
1.0000
 50
193.0000
  0
INSERT
  8
17
  2
LONGP100
 10
-43.6881
 20
19.8991
 30
0.0000
 41
1.5240
 42
1.5240
 43
1.0000
 50
193.0000
  0
INSERT
  8
17
  2
LONGP100
 10
14.9288
 20
42.5454
 30
0.0000
 41
1.5240
 42
1.5240
 43
1.0000
 50
103.0000
  0
INSERT
  8
17
  2
LONGP100
 10
14.9288
 20
42.5454
 30
0.0000
 41
1.5240
 42
1.5240
 43
1.0000
 50
103.0000
  0
INSERT
  8
17
  2
LONGP100
 10
17.4037
 20
43.1168
 30
0.0000
 41
1.5240
 42
1.5240
 43
1.0000
 50
103.0000
  0
INSERT
  8
17
  2
LONGP100
 10
17.4037
 20
43.1168
 30
0.0000
 41
1.5240
 42
1.5240
 43
1.0000
 50
103.0000
  0
INSERT
  8
17
  2
LONGP100
 10
19.8786
 20
43.6882
 30
0.0000
 41
1.5240
 42
1.5240
 43
1.0000
 50
103.0000
  0
INSERT
  8
17
  2
LONGP100
 10
19.8786
 20
43.6882
 30
0.0000
 41
1.5240
 42
1.5240
 43
1.0000
 50
103.0000
  0
INSERT
  8
17
  2
LONGP100
 10
42.5387
 20
-14.9480
 30
0.0000
 41
1.5240
 42
1.5240
 43
1.0000
 50
13.0000
  0
INSERT
  8
17
  2
LONGP100
 10
42.5387
 20
-14.9480
 30
0.0000
 41
1.5240
 42
1.5240
 43
1.0000
 50
13.0000
  0
INSERT
  8
17
  2
LONGP100
 10
43.1100
 20
-17.4229
 30
0.0000
 41
1.5240
 42
1.5240
 43
1.0000
 50
13.0000
  0
INSERT
  8
17
  2
LONGP100
 10
43.1100
 20
-17.4229
 30
0.0000
 41
1.5240
 42
1.5240
 43
1.0000
 50
13.0000
  0
INSERT
  8
17
  2
LONGP100
 10
43.6814
 20
-19.8978
 30
0.0000
 41
1.5240
 42
1.5240
 43
1.0000
 50
13.0000
  0
INSERT
  8
17
  2
LONGP100
 10
43.6814
 20
-19.8978
 30
0.0000
 41
1.5240
 42
1.5240
 43
1.0000
 50
13.0000
  0
INSERT
  8
17
  2
LONGP100
 10
-14.9521
 20
-42.5400
 30
0.0000
 41
1.5240
 42
1.5240
 43
1.0000
 50
283.0000
  0
INSERT
  8
17
  2
LONGP100
 10
-14.9521
 20
-42.5400
 30
0.0000
 41
1.5240
 42
1.5240
 43
1.0000
 50
283.0000
  0
INSERT
  8
17
  2
LONGP100
 10
-17.4270
 20
-43.1114
 30
0.0000
 41
1.5240
 42
1.5240
 43
1.0000
 50
283.0000
  0
INSERT
  8
17
  2
LONGP100
 10
-17.4270
 20
-43.1114
 30
0.0000
 41
1.5240
 42
1.5240
 43
1.0000
 50
283.0000
  0
INSERT
  8
17
  2
LONGP100
 10
-19.9019
 20
-43.6828
 30
0.0000
 41
1.5240
 42
1.5240
 43
1.0000
 50
283.0000
  0
INSERT
  8
17
  2
LONGP100
 10
-19.9019
 20
-43.6828
 30
0.0000
 41
1.5240
 42
1.5240
 43
1.0000
 50
283.0000
  0
INSERT
  8
17
  2
LONGP100
 10
34.1086
 20
-26.5586
 30
0.0000
 41
1.5240
 42
1.5240
 43
1.0000
 50
270.0000
  0
INSERT
  8
17
  2
LONGP100
 10
34.1086
 20
-26.5586
 30
0.0000
 41
1.5240
 42
1.5240
 43
1.0000
 50
270.0000
  0
INSERT
  8
17
  2
LONGP100
 10
31.5686
 20
-26.5586
 30
0.0000
 41
1.5240
 42
1.5240
 43
1.0000
 50
270.0000
  0
INSERT
  8
17
  2
LONGP100
 10
31.5686
 20
-26.5586
 30
0.0000
 41
1.5240
 42
1.5240
 43
1.0000
 50
270.0000
  0
INSERT
  8
17
  2
LONGP100
 10
29.0286
 20
-26.5586
 30
0.0000
 41
1.5240
 42
1.5240
 43
1.0000
 50
270.0000
  0
INSERT
  8
17
  2
LONGP100
 10
29.0286
 20
-26.5586
 30
0.0000
 41
1.5240
 42
1.5240
 43
1.0000
 50
270.0000
  0
INSERT
  8
17
  2
OCTAGONP
 10
16.9700
 20
-10.3700
 30
0.0000
 41
1.5240
 42
1.5240
 43
1.0000
 50
90.0000
  0
INSERT
  8
17
  2
OCTAGONP
 10
16.9700
 20
-10.3700
 30
0.0000
 41
1.5240
 42
1.5240
 43
1.0000
 50
90.0000
  0
INSERT
  8
17
  2
OCTAGONP
 10
14.4300
 20
-10.3700
 30
0.0000
 41
1.5240
 42
1.5240
 43
1.0000
 50
90.0000
  0
INSERT
  8
17
  2
OCTAGONP
 10
14.4300
 20
-10.3700
 30
0.0000
 41
1.5240
 42
1.5240
 43
1.0000
 50
90.0000
  0
INSERT
  8
17
  2
OCTAGONP
 10
16.9700
 20
-7.8300
 30
0.0000
 41
1.5240
 42
1.5240
 43
1.0000
 50
90.0000
  0
INSERT
  8
17
  2
OCTAGONP
 10
16.9700
 20
-7.8300
 30
0.0000
 41
1.5240
 42
1.5240
 43
1.0000
 50
90.0000
  0
INSERT
  8
17
  2
OCTAGONP
 10
14.4300
 20
-7.8300
 30
0.0000
 41
1.5240
 42
1.5240
 43
1.0000
 50
90.0000
  0
INSERT
  8
17
  2
OCTAGONP
 10
14.4300
 20
-7.8300
 30
0.0000
 41
1.5240
 42
1.5240
 43
1.0000
 50
90.0000
  0
INSERT
  8
17
  2
OCTAGONP
 10
-23.4755
 20
12.7210
 30
0.0000
 41
1.5240
 42
1.5240
 43
1.0000
 50
135.0000
  0
INSERT
  8
17
  2
OCTAGONP
 10
-23.4755
 20
12.7210
 30
0.0000
 41
1.5240
 42
1.5240
 43
1.0000
 50
135.0000
  0
INSERT
  8
17
  2
OCTAGONP
 10
-25.2716
 20
10.9250
 30
0.0000
 41
1.5240
 42
1.5240
 43
1.0000
 50
135.0000
  0
INSERT
  8
17
  2
OCTAGONP
 10
-25.2716
 20
10.9250
 30
0.0000
 41
1.5240
 42
1.5240
 43
1.0000
 50
135.0000
  0
INSERT
  8
17
  2
OCTAGONP
 10
-25.2716
 20
14.5171
 30
0.0000
 41
1.5240
 42
1.5240
 43
1.0000
 50
135.0000
  0
INSERT
  8
17
  2
OCTAGONP
 10
-25.2716
 20
14.5171
 30
0.0000
 41
1.5240
 42
1.5240
 43
1.0000
 50
135.0000
  0
INSERT
  8
17
  2
OCTAGONP
 10
-27.0676
 20
12.7210
 30
0.0000
 41
1.5240
 42
1.5240
 43
1.0000
 50
135.0000
  0
INSERT
  8
17
  2
OCTAGONP
 10
-27.0676
 20
12.7210
 30
0.0000
 41
1.5240
 42
1.5240
 43
1.0000
 50
135.0000
  0
INSERT
  8
17
  2
OCTAGONP
 10
-27.0676
 20
16.3131
 30
0.0000
 41
1.5240
 42
1.5240
 43
1.0000
 50
135.0000
  0
INSERT
  8
17
  2
OCTAGONP
 10
-27.0676
 20
16.3131
 30
0.0000
 41
1.5240
 42
1.5240
 43
1.0000
 50
135.0000
  0
INSERT
  8
17
  2
OCTAGONP
 10
-28.8637
 20
14.5171
 30
0.0000
 41
1.5240
 42
1.5240
 43
1.0000
 50
135.0000
  0
INSERT
  8
17
  2
OCTAGONP
 10
-28.8637
 20
14.5171
 30
0.0000
 41
1.5240
 42
1.5240
 43
1.0000
 50
135.0000
  0
INSERT
  8
17
  2
OCTAGONP
 10
-45.0238
 20
41.4454
 30
0.0000
 41
1.5240
 42
1.5240
 43
1.0000
 50
45.0000
  0
INSERT
  8
17
  2
OCTAGONP
 10
-45.0238
 20
41.4454
 30
0.0000
 41
1.5240
 42
1.5240
 43
1.0000
 50
45.0000
  0
INSERT
  8
17
  2
OCTAGONP
 10
-46.8199
 20
43.2414
 30
0.0000
 41
1.5240
 42
1.5240
 43
1.0000
 50
45.0000
  0
INSERT
  8
17
  2
OCTAGONP
 10
-46.8199
 20
43.2414
 30
0.0000
 41
1.5240
 42
1.5240
 43
1.0000
 50
45.0000
  0
INSERT
  8
17
  2
OCTAGONP
 10
-43.2278
 20
43.2414
 30
0.0000
 41
1.5240
 42
1.5240
 43
1.0000
 50
45.0000
  0
INSERT
  8
17
  2
OCTAGONP
 10
-43.2278
 20
43.2414
 30
0.0000
 41
1.5240
 42
1.5240
 43
1.0000
 50
45.0000
  0
INSERT
  8
17
  2
OCTAGONP
 10
-45.0238
 20
45.0375
 30
0.0000
 41
1.5240
 42
1.5240
 43
1.0000
 50
45.0000
  0
INSERT
  8
17
  2
OCTAGONP
 10
-45.0238
 20
45.0375
 30
0.0000
 41
1.5240
 42
1.5240
 43
1.0000
 50
45.0000
  0
INSERT
  8
17
  2
OCTAGONP
 10
-41.4317
 20
45.0375
 30
0.0000
 41
1.5240
 42
1.5240
 43
1.0000
 50
45.0000
  0
INSERT
  8
17
  2
OCTAGONP
 10
-41.4317
 20
45.0375
 30
0.0000
 41
1.5240
 42
1.5240
 43
1.0000
 50
45.0000
  0
INSERT
  8
17
  2
OCTAGONP
 10
-43.2278
 20
46.8335
 30
0.0000
 41
1.5240
 42
1.5240
 43
1.0000
 50
45.0000
  0
INSERT
  8
17
  2
OCTAGONP
 10
-43.2278
 20
46.8335
 30
0.0000
 41
1.5240
 42
1.5240
 43
1.0000
 50
45.0000
  0
INSERT
  8
17
  2
OCTAGONP
 10
-39.6357
 20
46.8335
 30
0.0000
 41
1.5240
 42
1.5240
 43
1.0000
 50
45.0000
  0
INSERT
  8
17
  2
OCTAGONP
 10
-39.6357
 20
46.8335
 30
0.0000
 41
1.5240
 42
1.5240
 43
1.0000
 50
45.0000
  0
INSERT
  8
17
  2
OCTAGONP
 10
-41.4317
 20
48.6296
 30
0.0000
 41
1.5240
 42
1.5240
 43
1.0000
 50
45.0000
  0
INSERT
  8
17
  2
OCTAGONP
 10
-41.4317
 20
48.6296
 30
0.0000
 41
1.5240
 42
1.5240
 43
1.0000
 50
45.0000
  0
INSERT
  8
17
  2
OCTAGONP
 10
-37.8396
 20
48.6296
 30
0.0000
 41
1.5240
 42
1.5240
 43
1.0000
 50
45.0000
  0
INSERT
  8
17
  2
OCTAGONP
 10
-37.8396
 20
48.6296
 30
0.0000
 41
1.5240
 42
1.5240
 43
1.0000
 50
45.0000
  0
INSERT
  8
17
  2
OCTAGONP
 10
-39.6357
 20
50.4256
 30
0.0000
 41
1.5240
 42
1.5240
 43
1.0000
 50
45.0000
  0
INSERT
  8
17
  2
OCTAGONP
 10
-39.6357
 20
50.4256
 30
0.0000
 41
1.5240
 42
1.5240
 43
1.0000
 50
45.0000
  0
INSERT
  8
17
  2
OCTAGONP
 10
12.7659
 20
23.5300
 30
0.0000
 41
1.5240
 42
1.5240
 43
1.0000
 50
45.0000
  0
INSERT
  8
17
  2
OCTAGONP
 10
12.7659
 20
23.5300
 30
0.0000
 41
1.5240
 42
1.5240
 43
1.0000
 50
45.0000
  0
INSERT
  8
17
  2
OCTAGONP
 10
10.9698
 20
25.3260
 30
0.0000
 41
1.5240
 42
1.5240
 43
1.0000
 50
45.0000
  0
INSERT
  8
17
  2
OCTAGONP
 10
10.9698
 20
25.3260
 30
0.0000
 41
1.5240
 42
1.5240
 43
1.0000
 50
45.0000
  0
INSERT
  8
17
  2
OCTAGONP
 10
14.5619
 20
25.3260
 30
0.0000
 41
1.5240
 42
1.5240
 43
1.0000
 50
45.0000
  0
INSERT
  8
17
  2
OCTAGONP
 10
14.5619
 20
25.3260
 30
0.0000
 41
1.5240
 42
1.5240
 43
1.0000
 50
45.0000
  0
INSERT
  8
17
  2
OCTAGONP
 10
12.7659
 20
27.1221
 30
0.0000
 41
1.5240
 42
1.5240
 43
1.0000
 50
45.0000
  0
INSERT
  8
17
  2
OCTAGONP
 10
12.7659
 20
27.1221
 30
0.0000
 41
1.5240
 42
1.5240
 43
1.0000
 50
45.0000
  0
INSERT
  8
17
  2
OCTAGONP
 10
16.3580
 20
27.1221
 30
0.0000
 41
1.5240
 42
1.5240
 43
1.0000
 50
45.0000
  0
INSERT
  8
17
  2
OCTAGONP
 10
16.3580
 20
27.1221
 30
0.0000
 41
1.5240
 42
1.5240
 43
1.0000
 50
45.0000
  0
INSERT
  8
17
  2
OCTAGONP
 10
14.5619
 20
28.9181
 30
0.0000
 41
1.5240
 42
1.5240
 43
1.0000
 50
45.0000
  0
INSERT
  8
17
  2
OCTAGONP
 10
14.5619
 20
28.9181
 30
0.0000
 41
1.5240
 42
1.5240
 43
1.0000
 50
45.0000
  0
INSERT
  8
17
  2
OCTAGONP
 10
41.5168
 20
45.0543
 30
0.0000
 41
1.5240
 42
1.5240
 43
1.0000
 50
315.0000
  0
INSERT
  8
17
  2
OCTAGONP
 10
41.5168
 20
45.0543
 30
0.0000
 41
1.5240
 42
1.5240
 43
1.0000
 50
315.0000
  0
INSERT
  8
17
  2
OCTAGONP
 10
43.3129
 20
46.8503
 30
0.0000
 41
1.5240
 42
1.5240
 43
1.0000
 50
315.0000
  0
INSERT
  8
17
  2
OCTAGONP
 10
43.3129
 20
46.8503
 30
0.0000
 41
1.5240
 42
1.5240
 43
1.0000
 50
315.0000
  0
INSERT
  8
17
  2
OCTAGONP
 10
43.3129
 20
43.2582
 30
0.0000
 41
1.5240
 42
1.5240
 43
1.0000
 50
315.0000
  0
INSERT
  8
17
  2
OCTAGONP
 10
43.3129
 20
43.2582
 30
0.0000
 41
1.5240
 42
1.5240
 43
1.0000
 50
315.0000
  0
INSERT
  8
17
  2
OCTAGONP
 10
45.1089
 20
45.0543
 30
0.0000
 41
1.5240
 42
1.5240
 43
1.0000
 50
315.0000
  0
INSERT
  8
17
  2
OCTAGONP
 10
45.1089
 20
45.0543
 30
0.0000
 41
1.5240
 42
1.5240
 43
1.0000
 50
315.0000
  0
INSERT
  8
17
  2
OCTAGONP
 10
45.1089
 20
41.4622
 30
0.0000
 41
1.5240
 42
1.5240
 43
1.0000
 50
315.0000
  0
INSERT
  8
17
  2
OCTAGONP
 10
45.1089
 20
41.4622
 30
0.0000
 41
1.5240
 42
1.5240
 43
1.0000
 50
315.0000
  0
INSERT
  8
17
  2
OCTAGONP
 10
46.9050
 20
43.2582
 30
0.0000
 41
1.5240
 42
1.5240
 43
1.0000
 50
315.0000
  0
INSERT
  8
17
  2
OCTAGONP
 10
46.9050
 20
43.2582
 30
0.0000
 41
1.5240
 42
1.5240
 43
1.0000
 50
315.0000
  0
INSERT
  8
17
  2
OCTAGONP
 10
46.9050
 20
39.6661
 30
0.0000
 41
1.5240
 42
1.5240
 43
1.0000
 50
315.0000
  0
INSERT
  8
17
  2
OCTAGONP
 10
46.9050
 20
39.6661
 30
0.0000
 41
1.5240
 42
1.5240
 43
1.0000
 50
315.0000
  0
INSERT
  8
17
  2
OCTAGONP
 10
48.7010
 20
41.4622
 30
0.0000
 41
1.5240
 42
1.5240
 43
1.0000
 50
315.0000
  0
INSERT
  8
17
  2
OCTAGONP
 10
48.7010
 20
41.4622
 30
0.0000
 41
1.5240
 42
1.5240
 43
1.0000
 50
315.0000
  0
INSERT
  8
17
  2
OCTAGONP
 10
48.7010
 20
37.8701
 30
0.0000
 41
1.5240
 42
1.5240
 43
1.0000
 50
315.0000
  0
INSERT
  8
17
  2
OCTAGONP
 10
48.7010
 20
37.8701
 30
0.0000
 41
1.5240
 42
1.5240
 43
1.0000
 50
315.0000
  0
INSERT
  8
17
  2
OCTAGONP
 10
50.4971
 20
39.6661
 30
0.0000
 41
1.5240
 42
1.5240
 43
1.0000
 50
315.0000
  0
INSERT
  8
17
  2
OCTAGONP
 10
50.4971
 20
39.6661
 30
0.0000
 41
1.5240
 42
1.5240
 43
1.0000
 50
315.0000
  0
INSERT
  8
17
  2
OCTAGONP
 10
23.5476
 20
-12.7373
 30
0.0000
 41
1.5240
 42
1.5240
 43
1.0000
 50
315.0000
  0
INSERT
  8
17
  2
OCTAGONP
 10
23.5476
 20
-12.7373
 30
0.0000
 41
1.5240
 42
1.5240
 43
1.0000
 50
315.0000
  0
INSERT
  8
17
  2
OCTAGONP
 10
25.3437
 20
-10.9413
 30
0.0000
 41
1.5240
 42
1.5240
 43
1.0000
 50
315.0000
  0
INSERT
  8
17
  2
OCTAGONP
 10
25.3437
 20
-10.9413
 30
0.0000
 41
1.5240
 42
1.5240
 43
1.0000
 50
315.0000
  0
INSERT
  8
17
  2
OCTAGONP
 10
25.3437
 20
-14.5334
 30
0.0000
 41
1.5240
 42
1.5240
 43
1.0000
 50
315.0000
  0
INSERT
  8
17
  2
OCTAGONP
 10
25.3437
 20
-14.5334
 30
0.0000
 41
1.5240
 42
1.5240
 43
1.0000
 50
315.0000
  0
INSERT
  8
17
  2
OCTAGONP
 10
27.1398
 20
-12.7373
 30
0.0000
 41
1.5240
 42
1.5240
 43
1.0000
 50
315.0000
  0
INSERT
  8
17
  2
OCTAGONP
 10
27.1398
 20
-12.7373
 30
0.0000
 41
1.5240
 42
1.5240
 43
1.0000
 50
315.0000
  0
INSERT
  8
17
  2
OCTAGONP
 10
27.1398
 20
-16.3295
 30
0.0000
 41
1.5240
 42
1.5240
 43
1.0000
 50
315.0000
  0
INSERT
  8
17
  2
OCTAGONP
 10
27.1398
 20
-16.3295
 30
0.0000
 41
1.5240
 42
1.5240
 43
1.0000
 50
315.0000
  0
INSERT
  8
17
  2
OCTAGONP
 10
28.9358
 20
-14.5334
 30
0.0000
 41
1.5240
 42
1.5240
 43
1.0000
 50
315.0000
  0
INSERT
  8
17
  2
OCTAGONP
 10
28.9358
 20
-14.5334
 30
0.0000
 41
1.5240
 42
1.5240
 43
1.0000
 50
315.0000
  0
INSERT
  8
17
  2
OCTAGONP
 10
45.0503
 20
-41.4383
 30
0.0000
 41
1.5240
 42
1.5240
 43
1.0000
 50
225.0000
  0
INSERT
  8
17
  2
OCTAGONP
 10
45.0503
 20
-41.4383
 30
0.0000
 41
1.5240
 42
1.5240
 43
1.0000
 50
225.0000
  0
INSERT
  8
17
  2
OCTAGONP
 10
46.8463
 20
-43.2344
 30
0.0000
 41
1.5240
 42
1.5240
 43
1.0000
 50
225.0000
  0
INSERT
  8
17
  2
OCTAGONP
 10
46.8463
 20
-43.2344
 30
0.0000
 41
1.5240
 42
1.5240
 43
1.0000
 50
225.0000
  0
INSERT
  8
17
  2
OCTAGONP
 10
43.2542
 20
-43.2344
 30
0.0000
 41
1.5240
 42
1.5240
 43
1.0000
 50
225.0000
  0
INSERT
  8
17
  2
OCTAGONP
 10
43.2542
 20
-43.2344
 30
0.0000
 41
1.5240
 42
1.5240
 43
1.0000
 50
225.0000
  0
INSERT
  8
17
  2
OCTAGONP
 10
45.0503
 20
-45.0304
 30
0.0000
 41
1.5240
 42
1.5240
 43
1.0000
 50
225.0000
  0
INSERT
  8
17
  2
OCTAGONP
 10
45.0503
 20
-45.0304
 30
0.0000
 41
1.5240
 42
1.5240
 43
1.0000
 50
225.0000
  0
INSERT
  8
17
  2
OCTAGONP
 10
41.4582
 20
-45.0304
 30
0.0000
 41
1.5240
 42
1.5240
 43
1.0000
 50
225.0000
  0
INSERT
  8
17
  2
OCTAGONP
 10
41.4582
 20
-45.0304
 30
0.0000
 41
1.5240
 42
1.5240
 43
1.0000
 50
225.0000
  0
INSERT
  8
17
  2
OCTAGONP
 10
43.2542
 20
-46.8265
 30
0.0000
 41
1.5240
 42
1.5240
 43
1.0000
 50
225.0000
  0
INSERT
  8
17
  2
OCTAGONP
 10
43.2542
 20
-46.8265
 30
0.0000
 41
1.5240
 42
1.5240
 43
1.0000
 50
225.0000
  0
INSERT
  8
17
  2
OCTAGONP
 10
39.6621
 20
-46.8265
 30
0.0000
 41
1.5240
 42
1.5240
 43
1.0000
 50
225.0000
  0
INSERT
  8
17
  2
OCTAGONP
 10
39.6621
 20
-46.8265
 30
0.0000
 41
1.5240
 42
1.5240
 43
1.0000
 50
225.0000
  0
INSERT
  8
17
  2
OCTAGONP
 10
41.4582
 20
-48.6225
 30
0.0000
 41
1.5240
 42
1.5240
 43
1.0000
 50
225.0000
  0
INSERT
  8
17
  2
OCTAGONP
 10
41.4582
 20
-48.6225
 30
0.0000
 41
1.5240
 42
1.5240
 43
1.0000
 50
225.0000
  0
INSERT
  8
17
  2
OCTAGONP
 10
37.8661
 20
-48.6225
 30
0.0000
 41
1.5240
 42
1.5240
 43
1.0000
 50
225.0000
  0
INSERT
  8
17
  2
OCTAGONP
 10
37.8661
 20
-48.6225
 30
0.0000
 41
1.5240
 42
1.5240
 43
1.0000
 50
225.0000
  0
INSERT
  8
17
  2
OCTAGONP
 10
39.6621
 20
-50.4186
 30
0.0000
 41
1.5240
 42
1.5240
 43
1.0000
 50
225.0000
  0
INSERT
  8
17
  2
OCTAGONP
 10
39.6621
 20
-50.4186
 30
0.0000
 41
1.5240
 42
1.5240
 43
1.0000
 50
225.0000
  0
INSERT
  8
17
  2
OCTAGONP
 10
-12.6940
 20
-23.5091
 30
0.0000
 41
1.5240
 42
1.5240
 43
1.0000
 50
225.0000
  0
INSERT
  8
17
  2
OCTAGONP
 10
-12.6940
 20
-23.5091
 30
0.0000
 41
1.5240
 42
1.5240
 43
1.0000
 50
225.0000
  0
INSERT
  8
17
  2
OCTAGONP
 10
-10.8980
 20
-25.3051
 30
0.0000
 41
1.5240
 42
1.5240
 43
1.0000
 50
225.0000
  0
INSERT
  8
17
  2
OCTAGONP
 10
-10.8980
 20
-25.3051
 30
0.0000
 41
1.5240
 42
1.5240
 43
1.0000
 50
225.0000
  0
INSERT
  8
17
  2
OCTAGONP
 10
-14.4901
 20
-25.3051
 30
0.0000
 41
1.5240
 42
1.5240
 43
1.0000
 50
225.0000
  0
INSERT
  8
17
  2
OCTAGONP
 10
-14.4901
 20
-25.3051
 30
0.0000
 41
1.5240
 42
1.5240
 43
1.0000
 50
225.0000
  0
INSERT
  8
17
  2
OCTAGONP
 10
-12.6940
 20
-27.1012
 30
0.0000
 41
1.5240
 42
1.5240
 43
1.0000
 50
225.0000
  0
INSERT
  8
17
  2
OCTAGONP
 10
-12.6940
 20
-27.1012
 30
0.0000
 41
1.5240
 42
1.5240
 43
1.0000
 50
225.0000
  0
INSERT
  8
17
  2
OCTAGONP
 10
-16.2861
 20
-27.1012
 30
0.0000
 41
1.5240
 42
1.5240
 43
1.0000
 50
225.0000
  0
INSERT
  8
17
  2
OCTAGONP
 10
-16.2861
 20
-27.1012
 30
0.0000
 41
1.5240
 42
1.5240
 43
1.0000
 50
225.0000
  0
INSERT
  8
17
  2
OCTAGONP
 10
-14.4901
 20
-28.8972
 30
0.0000
 41
1.5240
 42
1.5240
 43
1.0000
 50
225.0000
  0
INSERT
  8
17
  2
OCTAGONP
 10
-14.4901
 20
-28.8972
 30
0.0000
 41
1.5240
 42
1.5240
 43
1.0000
 50
225.0000
  0
INSERT
  8
17
  2
OCTAGONP
 10
-41.4450
 20
-45.0617
 30
0.0000
 41
1.5240
 42
1.5240
 43
1.0000
 50
135.0000
  0
INSERT
  8
17
  2
OCTAGONP
 10
-41.4450
 20
-45.0617
 30
0.0000
 41
1.5240
 42
1.5240
 43
1.0000
 50
135.0000
  0
INSERT
  8
17
  2
OCTAGONP
 10
-43.2410
 20
-46.8577
 30
0.0000
 41
1.5240
 42
1.5240
 43
1.0000
 50
135.0000
  0
INSERT
  8
17
  2
OCTAGONP
 10
-43.2410
 20
-46.8577
 30
0.0000
 41
1.5240
 42
1.5240
 43
1.0000
 50
135.0000
  0
INSERT
  8
17
  2
OCTAGONP
 10
-43.2410
 20
-43.2656
 30
0.0000
 41
1.5240
 42
1.5240
 43
1.0000
 50
135.0000
  0
INSERT
  8
17
  2
OCTAGONP
 10
-43.2410
 20
-43.2656
 30
0.0000
 41
1.5240
 42
1.5240
 43
1.0000
 50
135.0000
  0
INSERT
  8
17
  2
OCTAGONP
 10
-45.0371
 20
-45.0617
 30
0.0000
 41
1.5240
 42
1.5240
 43
1.0000
 50
135.0000
  0
INSERT
  8
17
  2
OCTAGONP
 10
-45.0371
 20
-45.0617
 30
0.0000
 41
1.5240
 42
1.5240
 43
1.0000
 50
135.0000
  0
INSERT
  8
17
  2
OCTAGONP
 10
-45.0371
 20
-41.4696
 30
0.0000
 41
1.5240
 42
1.5240
 43
1.0000
 50
135.0000
  0
INSERT
  8
17
  2
OCTAGONP
 10
-45.0371
 20
-41.4696
 30
0.0000
 41
1.5240
 42
1.5240
 43
1.0000
 50
135.0000
  0
INSERT
  8
17
  2
OCTAGONP
 10
-46.8331
 20
-43.2656
 30
0.0000
 41
1.5240
 42
1.5240
 43
1.0000
 50
135.0000
  0
INSERT
  8
17
  2
OCTAGONP
 10
-46.8331
 20
-43.2656
 30
0.0000
 41
1.5240
 42
1.5240
 43
1.0000
 50
135.0000
  0
INSERT
  8
17
  2
OCTAGONP
 10
-46.8331
 20
-39.6735
 30
0.0000
 41
1.5240
 42
1.5240
 43
1.0000
 50
135.0000
  0
INSERT
  8
17
  2
OCTAGONP
 10
-46.8331
 20
-39.6735
 30
0.0000
 41
1.5240
 42
1.5240
 43
1.0000
 50
135.0000
  0
INSERT
  8
17
  2
OCTAGONP
 10
-48.6292
 20
-41.4696
 30
0.0000
 41
1.5240
 42
1.5240
 43
1.0000
 50
135.0000
  0
INSERT
  8
17
  2
OCTAGONP
 10
-48.6292
 20
-41.4696
 30
0.0000
 41
1.5240
 42
1.5240
 43
1.0000
 50
135.0000
  0
INSERT
  8
17
  2
OCTAGONP
 10
-48.6292
 20
-37.8775
 30
0.0000
 41
1.5240
 42
1.5240
 43
1.0000
 50
135.0000
  0
INSERT
  8
17
  2
OCTAGONP
 10
-48.6292
 20
-37.8775
 30
0.0000
 41
1.5240
 42
1.5240
 43
1.0000
 50
135.0000
  0
INSERT
  8
17
  2
OCTAGONP
 10
-50.4252
 20
-39.6735
 30
0.0000
 41
1.5240
 42
1.5240
 43
1.0000
 50
135.0000
  0
INSERT
  8
17
  2
OCTAGONP
 10
-50.4252
 20
-39.6735
 30
0.0000
 41
1.5240
 42
1.5240
 43
1.0000
 50
135.0000
  0
INSERT
  8
17
  2
LONGP100
 10
-1.1429
 20
-25.1014
 30
0.0000
 41
1.5240
 42
1.5240
 43
1.0000
 50
180.0000
  0
INSERT
  8
17
  2
LONGP100
 10
-1.1429
 20
-25.1014
 30
0.0000
 41
1.5240
 42
1.5240
 43
1.0000
 50
180.0000
  0
INSERT
  8
17
  2
LONGP100
 10
-1.1429
 20
-22.5614
 30
0.0000
 41
1.5240
 42
1.5240
 43
1.0000
 50
180.0000
  0
INSERT
  8
17
  2
LONGP100
 10
-1.1429
 20
-22.5614
 30
0.0000
 41
1.5240
 42
1.5240
 43
1.0000
 50
180.0000
  0
INSERT
  8
17
  2
LONGP100
 10
-1.1429
 20
-20.0214
 30
0.0000
 41
1.5240
 42
1.5240
 43
1.0000
 50
180.0000
  0
INSERT
  8
17
  2
LONGP100
 10
-1.1429
 20
-20.0214
 30
0.0000
 41
1.5240
 42
1.5240
 43
1.0000
 50
180.0000
  0
INSERT
  8
17
  2
ROUNDP
 10
17.4000
 20
4.2000
 30
0.0000
 41
1.9000
 42
1.9000
 43
1.0000
 50
90.0000
  0
INSERT
  8
17
  2
ROUNDP
 10
17.4000
 20
4.2000
 30
0.0000
 41
1.9000
 42
1.9000
 43
1.0000
 50
90.0000
  0
INSERT
  8
17
  2
ROUNDP
 10
17.4000
 20
1.8000
 30
0.0000
 41
1.9000
 42
1.9000
 43
1.0000
 50
90.0000
  0
INSERT
  8
17
  2
ROUNDP
 10
17.4000
 20
1.8000
 30
0.0000
 41
1.9000
 42
1.9000
 43
1.0000
 50
90.0000
  0
INSERT
  8
17
  2
ROUNDP
 10
16.0600
 20
-0.6100
 30
0.0000
 41
1.8000
 42
1.8000
 43
1.0000
 50
90.0000
  0
INSERT
  8
17
  2
ROUNDP
 10
16.0600
 20
-0.6100
 30
0.0000
 41
1.8000
 42
1.8000
 43
1.0000
 50
90.0000
  0
INSERT
  8
17
  2
ROUNDP
 10
16.0600
 20
6.6100
 30
0.0000
 41
1.8000
 42
1.8000
 43
1.0000
 50
90.0000
  0
INSERT
  8
17
  2
ROUNDP
 10
16.0600
 20
6.6100
 30
0.0000
 41
1.8000
 42
1.8000
 43
1.0000
 50
90.0000
  0
INSERT
  8
17
  2
SQUAREP
 10
-39.6350
 20
-5.6600
 30
0.0000
 41
1.0556
 42
1.0556
 43
1.0000
 50
90.0000
  0
INSERT
  8
17
  2
SQUAREP
 10
-39.6350
 20
-5.6600
 30
0.0000
 41
1.0556
 42
1.0556
 43
1.0000
 50
90.0000
  0
INSERT
  8
17
  2
ROUNDP
 10
-38.3650
 20
-5.6600
 30
0.0000
 41
1.0556
 42
1.0556
 43
1.0000
 50
90.0000
  0
INSERT
  8
17
  2
ROUNDP
 10
-38.3650
 20
-5.6600
 30
0.0000
 41
1.0556
 42
1.0556
 43
1.0000
 50
90.0000
  0
INSERT
  8
17
  2
ROUNDP
 10
-39.6350
 20
-6.9300
 30
0.0000
 41
1.0556
 42
1.0556
 43
1.0000
 50
90.0000
  0
INSERT
  8
17
  2
ROUNDP
 10
-39.6350
 20
-6.9300
 30
0.0000
 41
1.0556
 42
1.0556
 43
1.0000
 50
90.0000
  0
INSERT
  8
17
  2
ROUNDP
 10
-38.3650
 20
-6.9300
 30
0.0000
 41
1.0556
 42
1.0556
 43
1.0000
 50
90.0000
  0
INSERT
  8
17
  2
ROUNDP
 10
-38.3650
 20
-6.9300
 30
0.0000
 41
1.0556
 42
1.0556
 43
1.0000
 50
90.0000
  0
INSERT
  8
17
  2
ROUNDP
 10
-39.6350
 20
-8.2000
 30
0.0000
 41
1.0556
 42
1.0556
 43
1.0000
 50
90.0000
  0
INSERT
  8
17
  2
ROUNDP
 10
-39.6350
 20
-8.2000
 30
0.0000
 41
1.0556
 42
1.0556
 43
1.0000
 50
90.0000
  0
INSERT
  8
17
  2
ROUNDP
 10
-38.3650
 20
-8.2000
 30
0.0000
 41
1.0556
 42
1.0556
 43
1.0000
 50
90.0000
  0
INSERT
  8
17
  2
ROUNDP
 10
-38.3650
 20
-8.2000
 30
0.0000
 41
1.0556
 42
1.0556
 43
1.0000
 50
90.0000
  0
INSERT
  8
17
  2
ROUNDP
 10
-39.6350
 20
-9.4700
 30
0.0000
 41
1.0556
 42
1.0556
 43
1.0000
 50
90.0000
  0
INSERT
  8
17
  2
ROUNDP
 10
-39.6350
 20
-9.4700
 30
0.0000
 41
1.0556
 42
1.0556
 43
1.0000
 50
90.0000
  0
INSERT
  8
17
  2
ROUNDP
 10
-38.3650
 20
-9.4700
 30
0.0000
 41
1.0556
 42
1.0556
 43
1.0000
 50
90.0000
  0
INSERT
  8
17
  2
ROUNDP
 10
-38.3650
 20
-9.4700
 30
0.0000
 41
1.0556
 42
1.0556
 43
1.0000
 50
90.0000
  0
INSERT
  8
17
  2
ROUNDP
 10
-39.6350
 20
-10.7400
 30
0.0000
 41
1.0556
 42
1.0556
 43
1.0000
 50
90.0000
  0
INSERT
  8
17
  2
ROUNDP
 10
-39.6350
 20
-10.7400
 30
0.0000
 41
1.0556
 42
1.0556
 43
1.0000
 50
90.0000
  0
INSERT
  8
17
  2
ROUNDP
 10
-38.3650
 20
-10.7400
 30
0.0000
 41
1.0556
 42
1.0556
 43
1.0000
 50
90.0000
  0
INSERT
  8
17
  2
ROUNDP
 10
-38.3650
 20
-10.7400
 30
0.0000
 41
1.0556
 42
1.0556
 43
1.0000
 50
90.0000
  0
ENDSEC
  0
EOF
